NewsreaderCaption-ExtraBoldItalic.ufo
<glyph name="exclam" format="2">
	<unicode hex="0021"/>
	<advance width="743"/>
	<outline>
		<contour>
			<point x="888" y="1315" type="line" smooth="yes"/>
			<point x="915" y="1390"/>
			<point x="899" y="1432"/>
			<point x="650" y="1432" type="curve" smooth="yes"/>
			<point x="403" y="1432"/>
			<point x="360" y="1390"/>
			<point x="341" y="1315" type="curve" smooth="yes"/>
			<point x="319" y="1229" type="line" smooth="yes"/>
			<point x="287" y="1101"/>
			<point x="315" y="887"/>
			<point x="245" y="555" type="curve"/>
			<point x="519" y="555" type="line"/>
			<point x="652" y="887"/>
			<point x="811" y="1101"/>
			<point x="857" y="1229" type="curve" smooth="yes"/>
		</contour>
		<contour>
			<point x="337" y="408" type="curve" smooth="yes"/>
			<point x="103" y="408"/>
			<point x="14" y="280"/>
			<point x="14" y="130" type="curve" smooth="yes"/>
			<point x="14" y="29"/>
			<point x="77" y="-30"/>
			<point x="203" y="-30" type="curve" smooth="yes"/>
			<point x="437" y="-30"/>
			<point x="526" y="98"/>
			<point x="526" y="248" type="curve" smooth="yes"/>
			<point x="526" y="349"/>
			<point x="463" y="408"/>
		</contour>
	</outline>
</glyph>
<glyph name="quotesingle" format="2">
  <advance width="570"/>
  <unicode hex="0027"/>
  <outline>
    <contour>
      <point x="240.0" y="800.0" type="line"/>
      <point x="489.0" y="800.0" type="line"/>
      <point x="715.0" y="1336.0" type="line"/>
      <point x="739.0" y="1414.0" type="line"/>
      <point x="366.0" y="1414.0" type="line"/>
      <point x="342.0" y="1336.0" type="line"/>
    </contour>
  </outline>
</glyph>
<glyph name="parenleft" format="2">
	<unicode hex="0028"/>
	<advance width="794"/>
	<outline>
		<contour>
			<point x="987" y="1345" type="curve"/>
			<point x="884" y="1494" type="line"/>
			<point x="217" y="1124"/>
			<point x="101" y="792"/>
			<point x="101" y="471" type="curve" smooth="yes"/>
			<point x="101" y="259"/>
			<point x="182" y="38"/>
			<point x="370" y="-248" type="curve"/>
			<point x="562" y="-153" type="line"/>
			<point x="489" y="27"/>
			<point x="459" y="163"/>
			<point x="459" y="378" type="curve" smooth="yes"/>
			<point x="459" y="655"/>
			<point x="544" y="1030"/>
		</contour>
	</outline>
</glyph>
<glyph name="parenright" format="2">
	<unicode hex="0029"/>
	<advance width="794"/>
	<outline>
		<contour>
			<point x="-130" y="-99" type="curve"/>
			<point x="-27" y="-248" type="line"/>
			<point x="640" y="122"/>
			<point x="756" y="454"/>
			<point x="756" y="775" type="curve" smooth="yes"/>
			<point x="756" y="987"/>
			<point x="675" y="1208"/>
			<point x="487" y="1494" type="curve"/>
			<point x="295" y="1399" type="line"/>
			<point x="368" y="1219"/>
			<point x="398" y="1083"/>
			<point x="398" y="868" type="curve" smooth="yes"/>
			<point x="398" y="591"/>
			<point x="313" y="216"/>
		</contour>
	</outline>
</glyph>
<glyph name="asterisk" format="2">
	<unicode hex="002A"/>
	<advance width="1005"/>
	<outline>
		<contour>
			<point x="889" y="730" type="line"/>
			<point x="822" y="950" type="line"/>
			<point x="1048" y="989" type="line"/>
			<point x="1034" y="1174" type="line"/>
			<point x="803" y="1177" type="line"/>
			<point x="836" y="1405" type="line"/>
			<point x="656" y="1448" type="line"/>
			<point x="583" y="1230" type="line"/>
			<point x="375" y="1331" type="line"/>
			<point x="279" y="1174" type="line"/>
			<point x="463" y="1036" type="line"/>
			<point x="303" y="871" type="line"/>
			<point x="422" y="730" type="line"/>
			<point x="612" y="862" type="line"/>
			<point x="719" y="659" type="line"/>
		</contour>
	</outline>
</glyph>
<glyph name="plus" format="2">
	<unicode hex="002B"/>
	<advance width="1200"/>
	<outline>
		<contour>
			<point x="333" y="62" type="line"/>
			<point x="588" y="62" type="line"/>
			<point x="869" y="982" type="line"/>
			<point x="614" y="982" type="line"/>
		</contour>
		<contour>
			<point x="205" y="656" type="line"/>
			<point x="123" y="388" type="line"/>
			<point x="997" y="388" type="line"/>
			<point x="1079" y="656" type="line"/>
		</contour>
	</outline>
</glyph>
<glyph name="comma" format="2">
	<unicode hex="002C"/>
	<advance width="661"/>
	<outline>
		<contour>
			<point x="-153" y="-271" type="curve"/>
			<point x="-77" y="-405" type="line"/>
			<point x="373" y="-171"/>
			<point x="487" y="9"/>
			<point x="487" y="233" type="curve" smooth="yes"/>
			<point x="487" y="365"/>
			<point x="411" y="437"/>
			<point x="270" y="437" type="curve" smooth="yes"/>
			<point x="112" y="437"/>
			<point x="8" y="316"/>
			<point x="8" y="202" type="curve" smooth="yes"/>
			<point x="8" y="150"/>
			<point x="134" y="117"/>
			<point x="134" y="11" type="curve" smooth="yes"/>
			<point x="134" y="-64"/>
			<point x="84" y="-141"/>
		</contour>
	</outline>
</glyph>
<glyph name="hyphen" format="2">
	<unicode hex="002D"/>
	<advance width="901"/>
	<outline>
		<contour>
			<point x="173" y="674" type="line"/>
			<point x="81" y="370" type="line"/>
			<point x="729" y="370" type="line"/>
			<point x="822" y="674" type="line"/>
		</contour>
	</outline>
</glyph>
<glyph name="period" format="2">
	<unicode hex="002E"/>
	<advance width="685"/>
	<outline>
		<contour>
			<point x="336" y="460" type="curve"/>
			<point x="126" y="460"/>
			<point x="2" y="318"/>
			<point x="2" y="144" type="curve" smooth="yes"/>
			<point x="2" y="34"/>
			<point x="67" y="-30"/>
			<point x="198" y="-30" type="curve"/>
			<point x="408" y="-30"/>
			<point x="532" y="112"/>
			<point x="532" y="286" type="curve" smooth="yes"/>
			<point x="532" y="396"/>
			<point x="467" y="460"/>
		</contour>
	</outline>
</glyph>
<glyph name="slash" format="2">
	<unicode hex="002F"/>
	<advance width="1024"/>
	<outline>
		<contour>
			<point x="-88" y="0" type="line"/>
			<point x="249" y="0" type="line"/>
			<point x="1229" y="1414" type="line"/>
			<point x="892" y="1414" type="line"/>
		</contour>
	</outline>
</glyph>
<glyph name="zero" format="2">
	<unicode hex="0030"/>
	<advance width="1550"/>
	<outline>
		<contour>
			<point x="580" y="408" type="curve" smooth="yes"/>
			<point x="580" y="731"/>
			<point x="730" y="1177"/>
			<point x="964" y="1177" type="curve" smooth="yes"/>
			<point x="1044" y="1177"/>
			<point x="1083" y="1134"/>
			<point x="1083" y="1006" type="curve" smooth="yes"/>
			<point x="1083" y="683"/>
			<point x="933" y="237"/>
			<point x="699" y="237" type="curve" smooth="yes"/>
			<point x="619" y="237"/>
			<point x="580" y="280"/>
		</contour>
		<contour>
			<point x="980" y="1444" type="curve" smooth="yes"/>
			<point x="292" y="1444"/>
			<point x="116" y="832"/>
			<point x="116" y="492" type="curve" smooth="yes"/>
			<point x="116" y="192"/>
			<point x="267" y="-30"/>
			<point x="683" y="-30" type="curve" smooth="yes"/>
			<point x="1371" y="-30"/>
			<point x="1547" y="582"/>
			<point x="1547" y="922" type="curve" smooth="yes"/>
			<point x="1547" y="1222"/>
			<point x="1396" y="1444"/>
		</contour>
	</outline>
</glyph>
<glyph name="one" format="2">
	<unicode hex="0031"/>
	<advance width="1550"/>
	<outline>
		<contour>
			<point x="519" y="195" type="line"/>
			<point x="186" y="113" type="line"/>
			<point x="147" y="0" type="line"/>
			<point x="1261" y="0" type="line"/>
			<point x="1299" y="113" type="line"/>
			<point x="1021" y="196" type="line"/>
			<point x="1394" y="1414" type="line"/>
			<point x="999" y="1414" type="line"/>
			<point x="336" y="1144" type="line"/>
			<point x="382" y="950" type="line"/>
			<point x="947" y="1095" type="line"/>
			<point x="856" y="1297" type="line"/>
		</contour>
	</outline>
</glyph>
<glyph name="colon" format="2">
	<unicode hex="003A"/>
	<advance width="727"/>
	<outline>
		<contour>
			<point x="317" y="437" type="curve" smooth="yes"/>
			<point x="105" y="437"/>
			<point x="5" y="296"/>
			<point x="5" y="153" type="curve" smooth="yes"/>
			<point x="5" y="45"/>
			<point x="78" y="-30"/>
			<point x="216" y="-30" type="curve" smooth="yes"/>
			<point x="428" y="-30"/>
			<point x="528" y="111"/>
			<point x="528" y="254" type="curve" smooth="yes"/>
			<point x="528" y="362"/>
			<point x="455" y="437"/>
		</contour>
		<contour>
			<point x="512" y="1074" type="curve" smooth="yes"/>
			<point x="300" y="1074"/>
			<point x="200" y="933"/>
			<point x="200" y="790" type="curve" smooth="yes"/>
			<point x="200" y="682"/>
			<point x="273" y="607"/>
			<point x="411" y="607" type="curve" smooth="yes"/>
			<point x="623" y="607"/>
			<point x="723" y="748"/>
			<point x="723" y="891" type="curve" smooth="yes"/>
			<point x="723" y="999"/>
			<point x="650" y="1074"/>
		</contour>
	</outline>
</glyph>
<glyph name="semicolon" format="2">
  <advance width="715"/>
  <unicode hex="003B"/>
  <outline>
    <contour>
      <point x="-144.0" y="-271.0" type="curve"/>
      <point x="-68.0" y="-405.0" type="line"/>
      <point x="382.0" y="-171.0"/>
      <point x="496.0" y="9.0"/>
      <point x="496.0" y="233.0" type="curve" smooth="yes"/>
      <point x="496.0" y="365.0"/>
      <point x="420.0" y="437.0"/>
      <point x="279.0" y="437.0" type="curve" smooth="yes"/>
      <point x="121.0" y="437.0"/>
      <point x="17.0" y="316.0"/>
      <point x="17.0" y="202.0" type="curve" smooth="yes"/>
      <point x="17.0" y="150.0"/>
      <point x="143.0" y="117.0"/>
      <point x="143.0" y="11.0" type="curve" smooth="yes"/>
      <point x="143.0" y="-64.0"/>
      <point x="93.0" y="-141.0"/>
    </contour>
    <contour>
      <point x="503.0" y="1074.0" type="curve" smooth="yes"/>
      <point x="291.0" y="1074.0"/>
      <point x="191.0" y="933.0"/>
      <point x="191.0" y="790.0" type="curve" smooth="yes"/>
      <point x="191.0" y="682.0"/>
      <point x="264.0" y="607.0"/>
      <point x="402.0" y="607.0" type="curve" smooth="yes"/>
      <point x="614.0" y="607.0"/>
      <point x="714.0" y="748.0"/>
      <point x="714.0" y="891.0" type="curve" smooth="yes"/>
      <point x="714.0" y="999.0"/>
      <point x="641.0" y="1074.0"/>
    </contour>
  </outline>
</glyph>
<glyph name="less" format="2">
  <advance width="1200"/>
  <unicode hex="003C"/>
  <guideline x="1208.0" y="1074" angle="2.351047439731967" identifier="eJa9cLxceB"/>
  <outline>
    <contour>
      <point x="256.0" y="414.0" type="line"/>
      <point x="1111.0" y="759.0" type="line"/>
      <point x="1208.0" y="1074.0" type="line"/>
      <point x="181.0" y="649.0" type="line"/>
      <point x="103.0" y="394.0" type="line"/>
      <point x="871.0" y="-30.0" type="line"/>
      <point x="950.0" y="232.0" type="line"/>
      <point x="306.0" y="576.0" type="line"/>
    </contour>
  </outline>
</glyph>
<glyph name="greater" format="2">
	<unicode hex="003E"/>
	<advance width="1200"/>
	<outline>
		<contour>
			<point x="945" y="629" type="line"/>
			<point x="90" y="284" type="line"/>
			<point x="-7" y="-31" type="line"/>
			<point x="1020" y="394" type="line"/>
			<point x="1098" y="649" type="line"/>
			<point x="330" y="1073" type="line"/>
			<point x="251" y="811" type="line"/>
			<point x="895" y="467" type="line"/>
		</contour>
	</outline>
</glyph>
<glyph name="question" format="2">
	<unicode hex="003F"/>
	<advance width="1503"/>
	<outline>
		<contour>
			<point x="693" y="408" type="curve" smooth="yes"/>
			<point x="459" y="408"/>
			<point x="370" y="280"/>
			<point x="370" y="130" type="curve" smooth="yes"/>
			<point x="370" y="29"/>
			<point x="433" y="-30"/>
			<point x="559" y="-30" type="curve" smooth="yes"/>
			<point x="793" y="-30"/>
			<point x="882" y="98"/>
			<point x="882" y="248" type="curve" smooth="yes"/>
			<point x="882" y="349"/>
			<point x="819" y="408"/>
		</contour>
		<contour>
			<point x="848" y="1444" type="curve" smooth="yes"/>
			<point x="418" y="1444"/>
			<point x="262" y="1331"/>
			<point x="262" y="1158" type="curve" smooth="yes"/>
			<point x="262" y="1052"/>
			<point x="339" y="977"/>
			<point x="453" y="977" type="curve" smooth="yes"/>
			<point x="491" y="977"/>
			<point x="586" y="1173"/>
			<point x="832" y="1173" type="curve" smooth="yes"/>
			<point x="986" y="1173"/>
			<point x="1058" y="1114"/>
			<point x="1058" y="1008" type="curve" smooth="yes"/>
			<point x="1058" y="887"/>
			<point x="975" y="835"/>
			<point x="644" y="858" type="curve"/>
			<point x="568" y="524" type="line"/>
			<point x="878" y="524" type="line"/>
			<point x="1009" y="718" type="line"/>
			<point x="838" y="630" type="line"/>
			<point x="1348" y="589"/>
			<point x="1542" y="740"/>
			<point x="1542" y="998" type="curve" smooth="yes"/>
			<point x="1542" y="1220"/>
			<point x="1359" y="1444"/>
		</contour>
	</outline>
</glyph>
<glyph name="at" format="2">
	<unicode hex="0040"/>
	<advance width="1981"/>
	<outline>
		<contour>
			<point x="1527" y="303" type="curve" smooth="yes"/>
			<point x="1455" y="303"/>
			<point x="1424" y="335"/>
			<point x="1424" y="402" type="curve" smooth="yes"/>
			<point x="1424" y="433"/>
			<point x="1429" y="469"/>
			<point x="1445" y="519" type="curve" smooth="yes"/>
			<point x="1591" y="1024" type="line"/>
			<point x="1302" y="1024" type="line"/>
			<point x="1182" y="851" type="line"/>
			<point x="1136" y="733" type="line" smooth="yes"/>
			<point x="1063" y="536"/>
			<point x="976" y="405"/>
			<point x="910" y="405" type="curve" smooth="yes"/>
			<point x="877" y="405"/>
			<point x="859" y="424"/>
			<point x="859" y="467" type="curve" smooth="yes"/>
			<point x="859" y="614"/>
			<point x="1013" y="846"/>
			<point x="1114" y="846" type="curve" smooth="yes"/>
			<point x="1164" y="846"/>
			<point x="1178" y="824"/>
			<point x="1205" y="758" type="curve"/>
			<point x="1227" y="801" type="line"/>
			<point x="1180" y="967"/>
			<point x="1100" y="1047"/>
			<point x="983" y="1047" type="curve" smooth="yes"/>
			<point x="727" y="1047"/>
			<point x="463" y="727"/>
			<point x="463" y="427" type="curve" smooth="yes"/>
			<point x="463" y="266"/>
			<point x="567" y="157"/>
			<point x="723" y="157" type="curve" smooth="yes"/>
			<point x="883" y="157"/>
			<point x="965" y="238"/>
			<point x="1124" y="532" type="curve"/>
			<point x="1152" y="532" type="line"/>
			<point x="1135" y="483" type="line" smooth="yes"/>
			<point x="1123" y="444"/>
			<point x="1116" y="407"/>
			<point x="1116" y="373" type="curve" smooth="yes"/>
			<point x="1116" y="227"/>
			<point x="1213" y="141"/>
			<point x="1431" y="141" type="curve" smooth="yes"/>
			<point x="1742" y="141"/>
			<point x="1989" y="416"/>
			<point x="1989" y="835" type="curve" smooth="yes"/>
			<point x="1989" y="1207"/>
			<point x="1710" y="1444"/>
			<point x="1232" y="1444" type="curve" smooth="yes"/>
			<point x="478" y="1444"/>
			<point x="95" y="991"/>
			<point x="95" y="402" type="curve" smooth="yes"/>
			<point x="95" y="-26"/>
			<point x="363" y="-272"/>
			<point x="897" y="-272" type="curve" smooth="yes"/>
			<point x="1156" y="-272"/>
			<point x="1384" y="-214"/>
			<point x="1617" y="-94" type="curve"/>
			<point x="1569" y="8" type="line"/>
			<point x="1353" y="-98"/>
			<point x="1141" y="-151"/>
			<point x="962" y="-151" type="curve" smooth="yes"/>
			<point x="484" y="-151"/>
			<point x="250" y="53"/>
			<point x="250" y="429" type="curve" smooth="yes"/>
			<point x="250" y="959"/>
			<point x="600" y="1332"/>
			<point x="1204" y="1332" type="curve" smooth="yes"/>
			<point x="1633" y="1332"/>
			<point x="1845" y="1135"/>
			<point x="1845" y="813" type="curve" smooth="yes"/>
			<point x="1845" y="494"/>
			<point x="1689" y="303"/>
		</contour>
	</outline>
</glyph>
<glyph name="A" format="2">
	<unicode hex="0041"/>
	<advance width="1851"/>
	<outline>
		<contour>
			<point x="367" y="388" type="line"/>
			<point x="1082" y="388" type="line"/>
			<point x="1159" y="611" type="line"/>
			<point x="444" y="611" type="line"/>
		</contour>
		<contour>
			<point x="1575" y="165" type="line"/>
			<point x="1448" y="1414" type="line"/>
			<point x="880" y="1414" type="line"/>
			<point x="59" y="162" type="line"/>
			<point x="-94" y="108" type="line"/>
			<point x="-129" y="0" type="line"/>
			<point x="450" y="0" type="line"/>
			<point x="484" y="108" type="line"/>
			<point x="339" y="162" type="line"/>
			<point x="1060" y="1284" type="line"/>
			<point x="985" y="1273" type="line"/>
			<point x="1072" y="163" type="line"/>
			<point x="904" y="108" type="line"/>
			<point x="868" y="0" type="line"/>
			<point x="1709" y="0" type="line"/>
			<point x="1744" y="108" type="line"/>
		</contour>
	</outline>
	<anchor name="UCtop" x="1161" y="1414"/>
	<anchor name="bottom" x="668" y="0"/>
	<anchor name="right" x="1504" y="0"/>
</glyph>
<glyph name="D" format="2">
	<unicode hex="0044"/>
	<advance width="1751"/>
	<outline>
		<contour>
			<point x="794" y="234" type="curve" smooth="yes"/>
			<point x="456" y="234" type="line"/>
			<point x="337" y="0" type="line"/>
			<point x="743" y="0" type="line" smooth="yes"/>
			<point x="1322" y="0"/>
			<point x="1730" y="328"/>
			<point x="1730" y="914" type="curve" smooth="yes"/>
			<point x="1730" y="1195"/>
			<point x="1582" y="1414"/>
			<point x="1100" y="1414" type="curve" smooth="yes"/>
			<point x="769" y="1414" type="line"/>
			<point x="754" y="1180" type="line"/>
			<point x="1011" y="1180" type="line" smooth="yes"/>
			<point x="1162" y="1180"/>
			<point x="1239" y="1103"/>
			<point x="1239" y="965" type="curve" smooth="yes"/>
			<point x="1239" y="742"/>
			<point x="1092" y="234"/>
		</contour>
		<contour>
			<point x="476" y="1249" type="line"/>
			<point x="140" y="169" type="line"/>
			<point x="-28" y="108" type="line"/>
			<point x="-61" y="0" type="line"/>
			<point x="601" y="0" type="line"/>
			<point x="1038" y="1414" type="line"/>
			<point x="354" y="1414" type="line"/>
			<point x="322" y="1306" type="line"/>
		</contour>
	</outline>
	<anchor name="UCtop" x="1088" y="1414"/>
	<anchor name="bottom" x="745" y="0"/>
</glyph>
<glyph name="E" format="2">
	<unicode hex="0045"/>
	<advance width="1652"/>
	<outline>
		<contour>
			<point x="476" y="1249" type="line"/>
			<point x="140" y="169" type="line"/>
			<point x="-28" y="108" type="line"/>
			<point x="-61" y="0" type="line"/>
			<point x="601" y="0" type="line"/>
			<point x="1038" y="1414" type="line"/>
			<point x="354" y="1414" type="line"/>
			<point x="322" y="1306" type="line"/>
		</contour>
		<contour>
			<point x="1462" y="1329" type="line"/>
			<point x="1462" y="991" type="line"/>
			<point x="1656" y="991" type="line"/>
			<point x="1779" y="1512" type="line"/>
			<point x="1644" y="1512" type="line"/>
			<point x="1508" y="1414" type="line"/>
			<point x="795" y="1414" type="line"/>
			<point x="729" y="1180" type="line"/>
			<point x="1514" y="1180" type="line"/>
		</contour>
		<contour>
			<point x="1117" y="-103" type="line"/>
			<point x="1274" y="-103" type="line"/>
			<point x="1602" y="493" type="line"/>
			<point x="1407" y="493" type="line"/>
			<point x="994" y="92" type="line"/>
			<point x="1243" y="234" type="line"/>
			<point x="431" y="234" type="line"/>
			<point x="363" y="0" type="line"/>
			<point x="1083" y="0" type="line"/>
		</contour>
		<contour>
			<point x="1160" y="480" type="line"/>
			<point x="1238" y="735" type="line"/>
			<point x="1316" y="990" type="line"/>
			<point x="1144" y="990" type="line"/>
			<point x="1081" y="839" type="line"/>
			<point x="620" y="839" type="line"/>
			<point x="557" y="635" type="line"/>
			<point x="1020" y="635" type="line"/>
			<point x="988" y="480" type="line"/>
		</contour>
	</outline>
	<anchor name="UCtop" x="1072" y="1414"/>
	<anchor name="right" x="1199" y="0"/>
	<anchor name="bottom" x="669" y="0"/>
</glyph>
<glyph name="F" format="2">
	<unicode hex="0046"/>
	<advance width="1529"/>
	<outline>
		<contour>
			<point x="1256" y="900" type="line"/>
			<point x="1084" y="900" type="line"/>
			<point x="1021" y="749" type="line"/>
			<point x="560" y="749" type="line"/>
			<point x="497" y="545" type="line"/>
			<point x="960" y="545" type="line"/>
			<point x="928" y="390" type="line"/>
			<point x="1100" y="390" type="line"/>
			<point x="1178" y="645" type="line"/>
		</contour>
		<contour>
			<point x="1613" y="951" type="line"/>
			<point x="1756" y="1512" type="line"/>
			<point x="1621" y="1512" type="line"/>
			<point x="1485" y="1414" type="line"/>
			<point x="795" y="1414" type="line"/>
			<point x="729" y="1180" type="line"/>
			<point x="1491" y="1180" type="line"/>
			<point x="1439" y="1329" type="line"/>
			<point x="1419" y="951" type="line"/>
		</contour>
		<contour>
			<point x="651" y="165" type="line"/>
			<point x="1038" y="1414" type="line"/>
			<point x="354" y="1414" type="line"/>
			<point x="322" y="1306" type="line"/>
			<point x="476" y="1249" type="line"/>
			<point x="140" y="169" type="line"/>
			<point x="-28" y="108" type="line"/>
			<point x="-61" y="0" type="line"/>
			<point x="773" y="0" type="line"/>
			<point x="804" y="108" type="line"/>
		</contour>
	</outline>
	<anchor name="UCtop" x="1020" y="1414"/>
	<anchor name="bottom" x="345" y="0"/>
</glyph>
<glyph name="H" format="2">
	<unicode hex="0048"/>
	<advance width="1952"/>
	<outline>
		<contour>
			<point x="531" y="606" type="line"/>
			<point x="1487" y="606" type="line"/>
			<point x="1545" y="840" type="line"/>
			<point x="590" y="840" type="line"/>
		</contour>
		<contour>
			<point x="476" y="1249" type="line"/>
			<point x="140" y="169" type="line"/>
			<point x="-28" y="108" type="line"/>
			<point x="-61" y="0" type="line"/>
			<point x="773" y="0" type="line"/>
			<point x="804" y="108" type="line"/>
			<point x="651" y="165" type="line"/>
			<point x="987" y="1245" type="line"/>
			<point x="1155" y="1306" type="line"/>
			<point x="1186" y="1414" type="line"/>
			<point x="354" y="1414" type="line"/>
			<point x="322" y="1306" type="line"/>
		</contour>
		<contour>
			<point x="1415" y="1249" type="line"/>
			<point x="1080" y="169" type="line"/>
			<point x="911" y="108" type="line"/>
			<point x="880" y="0" type="line"/>
			<point x="1712" y="0" type="line"/>
			<point x="1745" y="108" type="line"/>
			<point x="1590" y="165" type="line"/>
			<point x="1926" y="1245" type="line"/>
			<point x="2094" y="1306" type="line"/>
			<point x="2126" y="1414" type="line"/>
			<point x="1293" y="1414" type="line"/>
			<point x="1262" y="1306" type="line"/>
		</contour>
	</outline>
	<anchor name="UCtop" x="1249" y="1414"/>
	<anchor name="bottom" x="816" y="0"/>
</glyph>
<glyph name="I" format="2">
	<unicode hex="0049"/>
	<advance width="1013"/>
	<outline>
		<contour>
			<point x="476" y="1249" type="line"/>
			<point x="140" y="169" type="line"/>
			<point x="-28" y="108" type="line"/>
			<point x="-61" y="0" type="line"/>
			<point x="773" y="0" type="line"/>
			<point x="804" y="108" type="line"/>
			<point x="651" y="165" type="line"/>
			<point x="987" y="1245" type="line"/>
			<point x="1155" y="1306" type="line"/>
			<point x="1186" y="1414" type="line"/>
			<point x="354" y="1414" type="line"/>
			<point x="322" y="1306" type="line"/>
		</contour>
	</outline>
	<anchor name="UCtop" x="782" y="1414"/>
	<anchor name="right" x="554" y="0"/>
	<anchor name="bottom" x="344" y="0"/>
</glyph>
<glyph name="J" format="2">
  <advance width="1335"/>
  <unicode hex="004A"/>
  <anchor x="1149.0" y="1414" name="UCtop"/>
  <anchor x="418.0" y="0" name="bottom"/>
  <outline>
    <contour>
      <point x="1095" y="421" type="curve" smooth="yes"/>
      <point x="1353" y="1245" type="line"/>
      <point x="1521" y="1306" type="line"/>
      <point x="1552" y="1414" type="line"/>
      <point x="720" y="1414" type="line"/>
      <point x="688" y="1306" type="line"/>
      <point x="842" y="1249" type="line"/>
      <point x="594" y="454" type="line" smooth="yes"/>
      <point x="542" y="287"/>
      <point x="474.0" y="233.0"/>
      <point x="348" y="233" type="curve" smooth="yes"/>
      <point x="210" y="233"/>
      <point x="173" y="396"/>
      <point x="88" y="396" type="curve" smooth="yes"/>
      <point x="-16" y="396"/>
      <point x="-76" y="316"/>
      <point x="-76" y="210" type="curve" smooth="yes"/>
      <point x="-76.0" y="67.0"/>
      <point x="41" y="-26"/>
      <point x="320" y="-26" type="curve" smooth="yes"/>
      <point x="759" y="-26.0"/>
      <point x="1019" y="180"/>
    </contour>
  </outline>
</glyph>
<glyph name="K" format="2">
  <advance width="1878"/>
  <unicode hex="004B"/>
  <anchor x="1206.0" y="1414" name="UCtop"/>
  <anchor x="903.0" y="0" name="bottom"/>
  <outline>
    <contour>
      <point x="1647.0" y="164.0" type="line"/>
      <point x="1326.0" y="946.0" type="line"/>
      <point x="1255.0" y="746.0" type="line"/>
      <point x="1843.0" y="1255.0" type="line"/>
      <point x="2012.0" y="1306.0" type="line"/>
      <point x="2047.0" y="1414.0" type="line"/>
      <point x="1428.0" y="1414.0" type="line"/>
      <point x="1393.0" y="1306.0" type="line"/>
      <point x="1525.0" y="1254.0" type="line"/>
      <point x="1061.0" y="849.0" type="line"/>
      <point x="686.0" y="849.0" type="line"/>
      <point x="622.0" y="615.0" type="line"/>
      <point x="931.0" y="615.0" type="line"/>
      <point x="1113.0" y="111.0" type="line"/>
      <point x="1113.0" y="111.0" type="line"/>
      <point x="1079.0" y="0.0" type="line"/>
      <point x="1726.0" y="0.0" type="line"/>
      <point x="1762.0" y="114.0" type="line"/>
    </contour>
    <contour>
      <point x="476.0" y="1249.0" type="line"/>
      <point x="140.0" y="169.0" type="line"/>
      <point x="-28.0" y="108.0" type="line"/>
      <point x="-61.0" y="0.0" type="line"/>
      <point x="773.0" y="0.0" type="line"/>
      <point x="804.0" y="108.0" type="line"/>
      <point x="651.0" y="165.0" type="line"/>
      <point x="987.0" y="1245.0" type="line"/>
      <point x="1155.0" y="1306.0" type="line"/>
      <point x="1186.0" y="1414.0" type="line"/>
      <point x="354.0" y="1414.0" type="line"/>
      <point x="322.0" y="1306.0" type="line"/>
    </contour>
  </outline>
</glyph>
<glyph name="L" format="2">
	<unicode hex="004C"/>
	<advance width="1519"/>
	<outline>
		<contour>
			<point x="987" y="1245" type="line"/>
			<point x="1155" y="1306" type="line"/>
			<point x="1186" y="1414" type="line"/>
			<point x="354" y="1414" type="line"/>
			<point x="322" y="1306" type="line"/>
			<point x="476" y="1249" type="line"/>
			<point x="140" y="169" type="line"/>
			<point x="-28" y="108" type="line"/>
			<point x="-61" y="0" type="line"/>
			<point x="601" y="0" type="line"/>
		</contour>
		<contour>
			<point x="901" y="120" type="line"/>
			<point x="1081" y="234" type="line"/>
			<point x="244" y="234" type="line"/>
			<point x="176" y="0" type="line"/>
			<point x="975" y="0" type="line"/>
			<point x="1049" y="-103" type="line"/>
			<point x="1206" y="-103" type="line"/>
			<point x="1496" y="562" type="line"/>
			<point x="1299" y="562" type="line"/>
		</contour>
	</outline>
	<anchor name="UCtop" x="783" y="1414"/>
	<anchor name="right" x="1249" y="1414"/>
	<anchor name="bottom" x="597" y="0"/>
	<anchor name="mid" x="1398" y="854"/>
</glyph>
<glyph name="M" format="2">
	<unicode hex="004D"/>
	<advance width="2397"/>
	<outline>
		<contour>
			<point x="793" y="1336" type="line"/>
			<point x="722" y="1288" type="line"/>
			<point x="663" y="0" type="line"/>
			<point x="1189" y="0" type="line"/>
			<point x="1901" y="1373" type="line"/>
			<point x="1912" y="1414" type="line"/>
			<point x="1659" y="1414" type="line"/>
			<point x="977" y="56" type="line"/>
			<point x="1157" y="127" type="line"/>
			<point x="1217" y="1414" type="line"/>
			<point x="369" y="1414" type="line"/>
			<point x="337" y="1306" type="line"/>
			<point x="510" y="1222" type="line"/>
			<point x="114" y="163" type="line"/>
			<point x="-59" y="108" type="line"/>
			<point x="-89" y="0" type="line"/>
			<point x="488" y="0" type="line"/>
			<point x="519" y="108" type="line"/>
			<point x="363" y="166" type="line"/>
		</contour>
		<contour>
			<point x="1834" y="1414" type="line"/>
			<point x="1568" y="169" type="line"/>
			<point x="1414" y="108" type="line"/>
			<point x="1382" y="0" type="line"/>
			<point x="2179" y="0" type="line"/>
			<point x="2211" y="108" type="line"/>
			<point x="2075" y="165" type="line"/>
			<point x="2317" y="1241" type="line"/>
			<point x="2489" y="1306" type="line"/>
			<point x="2521" y="1414" type="line"/>
		</contour>
	</outline>
	<anchor name="UCtop" x="1379" y="1414"/>
	<anchor name="bottom" x="946" y="0"/>
</glyph>
<glyph name="N" format="2">
	<unicode hex="004E"/>
	<advance width="1812"/>
	<outline>
		<contour>
			<point x="1297" y="77" type="line"/>
			<point x="1103" y="1414" type="line"/>
			<point x="349" y="1414" type="line"/>
			<point x="319" y="1315" type="line"/>
			<point x="471" y="1228" type="line"/>
			<point x="142" y="163" type="line"/>
			<point x="-31" y="108" type="line"/>
			<point x="-61" y="0" type="line"/>
			<point x="536" y="0" type="line"/>
			<point x="567" y="108" type="line"/>
			<point x="397" y="167" type="line"/>
			<point x="742" y="1291" type="line"/>
			<point x="668" y="1229" type="line"/>
			<point x="848" y="0" type="line"/>
			<point x="1425" y="0" type="line"/>
			<point x="1810" y="1251" type="line"/>
			<point x="1983" y="1306" type="line"/>
			<point x="2013" y="1414" type="line"/>
			<point x="1416" y="1414" type="line"/>
			<point x="1385" y="1306" type="line"/>
			<point x="1555" y="1247" type="line"/>
			<point x="1185" y="38" type="line"/>
		</contour>
	</outline>
	<anchor name="UCtop" x="1189" y="1414"/>
	<anchor name="bottom" x="776" y="0"/>
</glyph>
<glyph name="O" format="2">
	<unicode hex="004F"/>
	<advance width="1804"/>
	<outline>
		<contour>
			<point x="623" y="487" type="curve" smooth="yes"/>
			<point x="623" y="824"/>
			<point x="766" y="1174"/>
			<point x="1066" y="1174" type="curve" smooth="yes"/>
			<point x="1218" y="1174"/>
			<point x="1295" y="1100"/>
			<point x="1295" y="927" type="curve" smooth="yes"/>
			<point x="1295" y="590"/>
			<point x="1152" y="240"/>
			<point x="852" y="240" type="curve" smooth="yes"/>
			<point x="700" y="240"/>
			<point x="623" y="314"/>
		</contour>
		<contour>
			<point x="1773" y="874" type="curve" smooth="yes"/>
			<point x="1773" y="1242"/>
			<point x="1554" y="1444"/>
			<point x="1079" y="1444" type="curve" smooth="yes"/>
			<point x="478" y="1444"/>
			<point x="145" y="1063"/>
			<point x="145" y="540" type="curve" smooth="yes"/>
			<point x="145" y="172"/>
			<point x="364" y="-30"/>
			<point x="839" y="-30" type="curve" smooth="yes"/>
			<point x="1440" y="-30"/>
			<point x="1773" y="351"/>
		</contour>
	</outline>
	<anchor name="UCtop" x="1106" y="1414"/>
	<anchor name="bottom" x="783" y="0"/>
	<anchor name="right" x="1023" y="0"/>
	<anchor name="horn" x="1436" y="1414"/>
</glyph>
<glyph name="P" format="2">
	<unicode hex="0050"/>
	<advance width="1614"/>
	<outline>
		<contour>
			<point x="1006" y="734" type="curve" smooth="yes"/>
			<point x="595" y="734" type="line"/>
			<point x="467" y="500" type="line"/>
			<point x="1063" y="500" type="line" smooth="yes"/>
			<point x="1515" y="500"/>
			<point x="1697" y="782"/>
			<point x="1697" y="1058" type="curve" smooth="yes"/>
			<point x="1697" y="1282"/>
			<point x="1564" y="1414"/>
			<point x="1169" y="1414" type="curve" smooth="yes"/>
			<point x="758" y="1414" type="line"/>
			<point x="763" y="1180" type="line"/>
			<point x="1049" y="1180" type="line" smooth="yes"/>
			<point x="1171" y="1180"/>
			<point x="1223" y="1145"/>
			<point x="1223" y="1061" type="curve" smooth="yes"/>
			<point x="1223" y="928"/>
			<point x="1160" y="734"/>
		</contour>
		<contour>
			<point x="651" y="165" type="line"/>
			<point x="1038" y="1414" type="line"/>
			<point x="354" y="1414" type="line"/>
			<point x="322" y="1306" type="line"/>
			<point x="476" y="1249" type="line"/>
			<point x="140" y="169" type="line"/>
			<point x="-28" y="108" type="line"/>
			<point x="-61" y="0" type="line"/>
			<point x="773" y="0" type="line"/>
			<point x="804" y="108" type="line"/>
		</contour>
	</outline>
	<anchor name="UCtop" x="1031" y="1414"/>
	<anchor name="bottom" x="345" y="0"/>
</glyph>
<glyph name="Q" format="2">
	<unicode hex="0051"/>
	<advance width="1796"/>
	<outline>
		<contour>
			<point x="459" y="-184" type="line" smooth="yes"/>
			<point x="576" y="-383"/>
			<point x="700" y="-465"/>
			<point x="1031" y="-465" type="curve" smooth="yes"/>
			<point x="1166" y="-465"/>
			<point x="1251" y="-451"/>
			<point x="1322" y="-435" type="curve"/>
			<point x="1371" y="-248" type="line"/>
			<point x="1123" y="-250"/>
			<point x="1049.3583110433" y="-235.4680585832"/>
			<point x="921" y="-91" type="curve" smooth="yes"/>
			<point x="674" y="187" type="line"/>
			<point x="741" y="55" type="line"/>
			<point x="1415" y="-36"/>
			<point x="1769" y="358"/>
			<point x="1769" y="874" type="curve" smooth="yes"/>
			<point x="1769" y="1245"/>
			<point x="1533" y="1444"/>
			<point x="1079" y="1444" type="curve" smooth="yes"/>
			<point x="491" y="1444"/>
			<point x="141" y="1045"/>
			<point x="141" y="540" type="curve" smooth="yes"/>
			<point x="141" y="411"/>
			<point x="172" y="305"/>
			<point x="290" y="104" type="curve" smooth="yes"/>
		</contour>
		<contour>
			<point x="619" y="477" type="curve" smooth="yes"/>
			<point x="619" y="785"/>
			<point x="788" y="1174"/>
			<point x="1080" y="1174" type="curve" smooth="yes"/>
			<point x="1222" y="1174"/>
			<point x="1291" y="1102"/>
			<point x="1291" y="937" type="curve" smooth="yes"/>
			<point x="1291" y="629"/>
			<point x="1122" y="240"/>
			<point x="830" y="240" type="curve" smooth="yes"/>
			<point x="688" y="240"/>
			<point x="619" y="312"/>
		</contour>
	</outline>
	<anchor name="bottom" x="563" y="-435"/>
	<anchor name="UCtop" x="1102" y="1414"/>
</glyph>
<glyph name="R" format="2">
	<unicode hex="0052"/>
	<advance width="1829"/>
	<outline>
		<contour>
			<point x="1086" y="779" type="curve" smooth="yes"/>
			<point x="530" y="779" type="line"/>
			<point x="486" y="577" type="line"/>
			<point x="918" y="577" type="line" smooth="yes"/>
			<point x="1055" y="577"/>
			<point x="1066" y="529"/>
			<point x="1075" y="384" type="curve" smooth="yes"/>
			<point x="1083" y="248" type="line" smooth="yes"/>
			<point x="1096" y="24"/>
			<point x="1146" y="-37"/>
			<point x="1649" y="0" type="curve"/>
			<point x="1689" y="158" type="line"/>
			<point x="1590" y="158"/>
			<point x="1573" y="177"/>
			<point x="1565" y="297" type="curve" smooth="yes"/>
			<point x="1557" y="410" type="line" smooth="yes"/>
			<point x="1544" y="589"/>
			<point x="1494" y="671"/>
			<point x="1298" y="692" type="curve"/>
			<point x="1298" y="686" type="line"/>
			<point x="1670" y="705"/>
			<point x="1813" y="869"/>
			<point x="1813" y="1111" type="curve" smooth="yes"/>
			<point x="1813" y="1290"/>
			<point x="1689" y="1414"/>
			<point x="1354" y="1414" type="curve" smooth="yes"/>
			<point x="758" y="1414" type="line"/>
			<point x="673" y="1180" type="line"/>
			<point x="1228" y="1180" type="line" smooth="yes"/>
			<point x="1288" y="1180"/>
			<point x="1316" y="1151"/>
			<point x="1316" y="1084" type="curve" smooth="yes"/>
			<point x="1316" y="946"/>
			<point x="1253" y="779"/>
		</contour>
		<contour>
			<point x="651" y="165" type="line"/>
			<point x="1038" y="1414" type="line"/>
			<point x="354" y="1414" type="line"/>
			<point x="322" y="1306" type="line"/>
			<point x="476" y="1249" type="line"/>
			<point x="140" y="169" type="line"/>
			<point x="-28" y="108" type="line"/>
			<point x="-61" y="0" type="line"/>
			<point x="773" y="0" type="line"/>
			<point x="804" y="108" type="line"/>
		</contour>
	</outline>
	<anchor name="UCtop" x="1129" y="1414"/>
	<anchor name="bottom" x="866" y="0"/>
</glyph>
<glyph name="S" format="2">
	<unicode hex="0053"/>
	<advance width="1445"/>
	<outline>
		<contour>
			<point x="1252" y="1144" type="curve"/>
			<point x="1172" y="1293" type="line"/>
			<point x="1234" y="966" type="line"/>
			<point x="1435" y="966" type="line"/>
			<point x="1506" y="1512" type="line"/>
			<point x="1356" y="1512" type="line"/>
			<point x="1218" y="1365" type="line"/>
			<point x="1415" y="1355" type="line"/>
			<point x="1332" y="1412"/>
			<point x="1163" y="1444"/>
			<point x="994" y="1444" type="curve" smooth="yes"/>
			<point x="524" y="1444"/>
			<point x="254" y="1256"/>
			<point x="254" y="921" type="curve" smooth="yes"/>
			<point x="254" y="743"/>
			<point x="343" y="669"/>
			<point x="517" y="596" type="curve" smooth="yes"/>
			<point x="691" y="523"/>
			<point x="878" y="511"/>
			<point x="878" y="403" type="curve" smooth="yes"/>
			<point x="878" y="280"/>
			<point x="776" y="217"/>
			<point x="529" y="217" type="curve" smooth="yes"/>
			<point x="379" y="217"/>
			<point x="241" y="256"/>
			<point x="124" y="304" type="curve"/>
			<point x="424" y="19" type="line"/>
			<point x="272" y="508" type="line"/>
			<point x="90" y="508" type="line"/>
			<point x="70" y="25" type="line"/>
			<point x="167" y="1"/>
			<point x="318" y="-30"/>
			<point x="485" y="-30" type="curve" smooth="yes"/>
			<point x="1062" y="-30"/>
			<point x="1341" y="190"/>
			<point x="1341" y="561" type="curve" smooth="yes"/>
			<point x="1341" y="775"/>
			<point x="1169" y="854"/>
			<point x="1001" y="906" type="curve" smooth="yes"/>
			<point x="833" y="958"/>
			<point x="699" y="981"/>
			<point x="699" y="1072" type="curve" smooth="yes"/>
			<point x="699" y="1155"/>
			<point x="754" y="1200"/>
			<point x="985" y="1200" type="curve" smooth="yes"/>
			<point x="1071" y="1200"/>
			<point x="1193" y="1178"/>
		</contour>
	</outline>
	<anchor name="UCtop" x="901" y="1414"/>
	<anchor name="bottom" x="658" y="0"/>
</glyph>
<glyph name="T" format="2">
	<unicode hex="0054"/>
	<advance width="1716"/>
	<outline>
		<contour>
			<point x="1634" y="1180" type="line"/>
			<point x="1542" y="1268" type="line"/>
			<point x="1606" y="858" type="line"/>
			<point x="1791" y="858" type="line"/>
			<point x="1873" y="1514" type="line"/>
			<point x="1705" y="1514" type="line"/>
			<point x="1551" y="1374" type="line"/>
			<point x="1735" y="1414" type="line"/>
			<point x="479" y="1414" type="line"/>
			<point x="647" y="1374" type="line"/>
			<point x="581" y="1514" type="line"/>
			<point x="408" y="1514" type="line"/>
			<point x="149" y="858" type="line"/>
			<point x="351" y="858" type="line"/>
			<point x="661" y="1240" type="line"/>
			<point x="483" y="1180" type="line"/>
		</contour>
		<contour>
			<point x="850" y="1300" type="line"/>
			<point x="499" y="169" type="line"/>
			<point x="327" y="108" type="line"/>
			<point x="295" y="0" type="line"/>
			<point x="1128" y="0" type="line"/>
			<point x="1159" y="108" type="line"/>
			<point x="1010" y="165" type="line"/>
			<point x="1362" y="1300" type="line"/>
		</contour>
	</outline>
	<anchor name="UCtop" x="1141" y="1414"/>
	<anchor name="bottom" x="703" y="0"/>
</glyph>
<glyph name="U" format="2">
	<unicode hex="0055"/>
	<advance width="1751"/>
	<outline>
		<contour>
			<point x="721" y="556" type="curve" smooth="yes"/>
			<point x="935" y="1245" type="line"/>
			<point x="1103" y="1306" type="line"/>
			<point x="1134" y="1414" type="line"/>
			<point x="302" y="1414" type="line"/>
			<point x="270" y="1306" type="line"/>
			<point x="424" y="1249" type="line"/>
			<point x="215" y="579" type="line" smooth="yes"/>
			<point x="94" y="193"/>
			<point x="304" y="-30"/>
			<point x="800" y="-30" type="curve" smooth="yes"/>
			<point x="1223" y="-30"/>
			<point x="1418" y="132"/>
			<point x="1540" y="530" type="curve" smooth="yes"/>
			<point x="1762" y="1251" type="line"/>
			<point x="1935" y="1306" type="line"/>
			<point x="1965" y="1414" type="line"/>
			<point x="1368" y="1414" type="line"/>
			<point x="1337" y="1306" type="line"/>
			<point x="1507" y="1247" type="line"/>
			<point x="1301" y="575" type="line" smooth="yes"/>
			<point x="1234" y="355"/>
			<point x="1142" y="296"/>
			<point x="949" y="296" type="curve" smooth="yes"/>
			<point x="747" y="296"/>
			<point x="664" y="374"/>
		</contour>
	</outline>
	<anchor name="UCtop" x="1206" y="1414"/>
	<anchor name="right" x="995" y="0"/>
	<anchor name="bottom" x="753" y="0"/>
	<anchor name="horn" x="1758" y="1414"/>
</glyph>
<glyph name="V" format="2">
	<unicode hex="0056"/>
	<advance width="1766"/>
	<outline>
		<contour>
			<point x="390" y="1249" type="line"/>
			<point x="477" y="0" type="line"/>
			<point x="1045" y="0" type="line"/>
			<point x="1826" y="1252" type="line"/>
			<point x="1969" y="1306" type="line"/>
			<point x="2004" y="1414" type="line"/>
			<point x="1425" y="1414" type="line"/>
			<point x="1391" y="1306" type="line"/>
			<point x="1546" y="1252" type="line"/>
			<point x="865" y="130" type="line"/>
			<point x="940" y="141" type="line"/>
			<point x="893" y="1251" type="line"/>
			<point x="1061" y="1306" type="line"/>
			<point x="1097" y="1414" type="line"/>
			<point x="256" y="1414" type="line"/>
			<point x="221" y="1306" type="line"/>
		</contour>
	</outline>
	<anchor name="UCtop" x="1216" y="1414"/>
	<anchor name="bottom" x="783" y="0"/>
</glyph>
<glyph name="W" format="2">
	<unicode hex="0057"/>
	<advance width="2485"/>
	<outline>
		<contour>
			<point x="2271" y="1252" type="line"/>
			<point x="1726" y="129" type="line"/>
			<point x="1787" y="89" type="line"/>
			<point x="1940" y="1414" type="line"/>
			<point x="1331" y="1414" type="line"/>
			<point x="762" y="151" type="line"/>
			<point x="822" y="150" type="line"/>
			<point x="906" y="1240" type="line"/>
			<point x="1054" y="1304" type="line"/>
			<point x="1089" y="1414" type="line"/>
			<point x="262" y="1414" type="line"/>
			<point x="228" y="1304" type="line"/>
			<point x="398" y="1237" type="line"/>
			<point x="330" y="0" type="line"/>
			<point x="939" y="0" type="line"/>
			<point x="1453" y="1099" type="line"/>
			<point x="1381" y="1051" type="line"/>
			<point x="1269" y="0" type="line"/>
			<point x="1905" y="0" type="line"/>
			<point x="2545" y="1252" type="line"/>
			<point x="2688" y="1306" type="line"/>
			<point x="2723" y="1414" type="line"/>
			<point x="2150" y="1414" type="line"/>
			<point x="2116" y="1306" type="line"/>
		</contour>
	</outline>
	<anchor name="UCtop" x="1619" y="1414"/>
	<anchor name="bottom" x="1186" y="0"/>
</glyph>
<glyph name="X" format="2">
	<unicode hex="0058"/>
	<advance width="1833"/>
	<outline>
		<contour>
			<point x="838" y="613" type="line"/>
			<point x="1113" y="602" type="line"/>
			<point x="1789" y="1243" type="line"/>
			<point x="1948" y="1306" type="line"/>
			<point x="1981" y="1414" type="line"/>
			<point x="1376" y="1414" type="line"/>
			<point x="1343" y="1306" type="line"/>
			<point x="1486" y="1248" type="line"/>
			<point x="1032" y="801" type="line"/>
			<point x="757" y="812" type="line"/>
			<point x="81" y="171" type="line"/>
			<point x="-78" y="108" type="line"/>
			<point x="-111" y="0" type="line"/>
			<point x="494" y="0" type="line"/>
			<point x="527" y="108" type="line"/>
			<point x="384" y="166" type="line"/>
		</contour>
		<contour>
			<point x="995" y="174" type="line"/>
			<point x="817" y="108" type="line"/>
			<point x="783" y="0" type="line"/>
			<point x="1690" y="0" type="line"/>
			<point x="1725" y="108" type="line"/>
			<point x="1576" y="195" type="line"/>
			<point x="1228" y="824" type="line"/>
			<point x="1201" y="872" type="line"/>
			<point x="990" y="1252" type="line"/>
			<point x="1134" y="1303" type="line"/>
			<point x="1168" y="1414" type="line"/>
			<point x="293" y="1414" type="line"/>
			<point x="260" y="1306" type="line"/>
			<point x="407" y="1237" type="line"/>
			<point x="709" y="691" type="line"/>
			<point x="739" y="636" type="line"/>
		</contour>
	</outline>
	<anchor name="UCtop" x="1178" y="1414"/>
	<anchor name="bottom" x="745" y="0"/>
</glyph>
<glyph name="Y" format="2">
	<unicode hex="0059"/>
	<advance width="1744"/>
	<outline>
		<contour>
			<point x="1497" y="1242" type="line"/>
			<point x="988" y="692" type="line"/>
			<point x="1092" y="692" type="line"/>
			<point x="887" y="1233" type="line"/>
			<point x="1048" y="1306" type="line"/>
			<point x="1082" y="1414" type="line"/>
			<point x="264" y="1414" type="line"/>
			<point x="231" y="1306" type="line"/>
			<point x="395" y="1230" type="line"/>
			<point x="663" y="601" type="line"/>
			<point x="528" y="169" type="line"/>
			<point x="360" y="108" type="line"/>
			<point x="327" y="0" type="line"/>
			<point x="1161" y="0" type="line"/>
			<point x="1192" y="108" type="line"/>
			<point x="1039" y="165" type="line"/>
			<point x="1176" y="602" type="line"/>
			<point x="1801" y="1252" type="line"/>
			<point x="1944" y="1306" type="line"/>
			<point x="1979" y="1414" type="line"/>
			<point x="1381" y="1414" type="line"/>
			<point x="1347" y="1306" type="line"/>
		</contour>
	</outline>
	<anchor name="UCtop" x="1148" y="1414"/>
	<anchor name="bottom" x="732" y="0"/>
</glyph>
<glyph name="Z" format="2">
	<unicode hex="005A"/>
	<advance width="1541"/>
	<outline>
		<contour>
			<point x="1652" y="1414" type="line"/>
			<point x="612" y="1414" type="line"/>
			<point x="535" y="1505" type="line"/>
			<point x="409" y="1505" type="line"/>
			<point x="222" y="935" type="line"/>
			<point x="413" y="935" type="line"/>
			<point x="592" y="1180" type="line"/>
			<point x="1414" y="1180" type="line"/>
			<point x="1085" y="1296" type="line"/>
			<point x="77" y="230" type="line"/>
			<point x="9" y="0" type="line"/>
			<point x="999" y="0" type="line"/>
			<point x="1056" y="-104" type="line"/>
			<point x="1204" y="-104" type="line"/>
			<point x="1471" y="524" type="line"/>
			<point x="1283" y="524" type="line"/>
			<point x="1034" y="234" type="line"/>
			<point x="297" y="234" type="line"/>
			<point x="571" y="117" type="line"/>
			<point x="1580" y="1184" type="line"/>
		</contour>
	</outline>
	<anchor name="UCtop" x="1073" y="1414"/>
	<anchor name="bottom" x="640" y="0"/>
</glyph>
<glyph name="bracketleft" format="2">
	<unicode hex="005B"/>
	<advance width="891"/>
	<outline>
		<contour>
			<point x="-39" y="-217" type="line"/>
			<point x="607" y="-217" type="line"/>
			<point x="673" y="0" type="line"/>
			<point x="369" y="0" type="line"/>
			<point x="751" y="1247" type="line"/>
			<point x="1055" y="1247" type="line"/>
			<point x="1121" y="1464" type="line"/>
			<point x="475" y="1464" type="line"/>
		</contour>
	</outline>
</glyph>
<glyph name="backslash" format="2">
  <advance width="966"/>
  <unicode hex="005C"/>
  <outline>
    <contour>
      <point x="765.0" y="0.0" type="line"/>
      <point x="609.0" y="1414.0" type="line"/>
      <point x="313.0" y="1414.0" type="line"/>
      <point x="469.0" y="0.0" type="line"/>
    </contour>
  </outline>
</glyph>
<glyph name="bracketright" format="2">
	<unicode hex="005D"/>
	<advance width="891"/>
	<outline>
		<contour>
			<point x="993" y="1464" type="line"/>
			<point x="347" y="1464" type="line"/>
			<point x="281" y="1247" type="line"/>
			<point x="585" y="1247" type="line"/>
			<point x="203" y="0" type="line"/>
			<point x="-101" y="0" type="line"/>
			<point x="-167" y="-217" type="line"/>
			<point x="479" y="-217" type="line"/>
		</contour>
	</outline>
</glyph>
<glyph name="asciicircum" format="2">
  <advance width="1200"/>
  <unicode hex="005E"/>
  <outline>
    <contour>
      <point x="777.0" y="1248.0" type="line"/>
      <point x="863.0" y="650.0" type="line"/>
      <point x="1117.0" y="650.0" type="line"/>
      <point x="1003.0" y="1414.0" type="line"/>
      <point x="749.0" y="1414.0" type="line"/>
      <point x="167.0" y="650.0" type="line"/>
      <point x="469.0" y="650.0" type="line"/>
      <point x="922.0" y="1248.0" type="line"/>
    </contour>
  </outline>
</glyph>
<glyph name="a" format="2">
	<unicode hex="0061"/>
	<advance width="1543"/>
	<outline>
		<contour>
			<point x="798" y="161" type="line" smooth="yes"/>
			<point x="738" y="16"/>
			<point x="785" y="-30"/>
			<point x="947" y="-30" type="curve" smooth="yes"/>
			<point x="1120" y="-30"/>
			<point x="1317" y="29"/>
			<point x="1544" y="231" type="curve"/>
			<point x="1485" y="322" type="line"/>
			<point x="1342" y="228"/>
			<point x="1243" y="211"/>
			<point x="1064" y="217" type="curve"/>
			<point x="1154" y="76" type="line"/>
			<point x="1499" y="1044" type="line"/>
			<point x="1135" y="1044" type="line"/>
			<point x="987" y="847" type="line"/>
			<point x="917" y="688" type="line" smooth="yes"/>
			<point x="832" y="495"/>
			<point x="673" y="237"/>
			<point x="563" y="237" type="curve" smooth="yes"/>
			<point x="512" y="237"/>
			<point x="486" y="259"/>
			<point x="486" y="307" type="curve" smooth="yes"/>
			<point x="486" y="488"/>
			<point x="720" y="839"/>
			<point x="862" y="839" type="curve" smooth="yes"/>
			<point x="916" y="839"/>
			<point x="956" y="818"/>
			<point x="994" y="719" type="curve"/>
			<point x="1024" y="770" type="line"/>
			<point x="974" y="977"/>
			<point x="884" y="1074"/>
			<point x="729" y="1074" type="curve" smooth="yes"/>
			<point x="402" y="1074"/>
			<point x="29" y="651"/>
			<point x="29" y="269" type="curve" smooth="yes"/>
			<point x="29" y="63"/>
			<point x="185" y="-30"/>
			<point x="335" y="-30" type="curve" smooth="yes"/>
			<point x="515" y="-30"/>
			<point x="639" y="35"/>
			<point x="878" y="438" type="curve"/>
			<point x="912" y="438" type="line"/>
		</contour>
	</outline>
	<anchor name="top" x="996" y="1044"/>
	<anchor name="right" x="1384" y="0"/>
	<anchor name="bottom" x="586" y="0"/>
</glyph>
<glyph name="b" format="2">
  <advance width="1364"/>
  <unicode hex="0062"/>
  <anchor x="1042.0" y="1414" name="UCtop"/>
  <anchor x="475.0" y="0" name="bottom"/>
  <outline>
    <contour>
      <point x="525" y="365" type="curve" smooth="yes"/>
      <point x="548" y="440" type="line" smooth="yes"/>
      <point x="611" y="647"/>
      <point x="713.0" y="784.0"/>
      <point x="804" y="784" type="curve" smooth="yes"/>
      <point x="855" y="784"/>
      <point x="873" y="753"/>
      <point x="873" y="670" type="curve" smooth="yes"/>
      <point x="873.0" y="436.0"/>
      <point x="709.0" y="168.0"/>
      <point x="589" y="168" type="curve" smooth="yes"/>
      <point x="529" y="168"/>
      <point x="504" y="199"/>
      <point x="504" y="254" type="curve" smooth="yes"/>
      <point x="504" y="284"/>
      <point x="512" y="322"/>
    </contour>
    <contour>
      <point x="328" y="1135" type="curve"/>
      <point x="112" y="411" type="line" smooth="yes"/>
      <point x="101" y="373"/>
      <point x="95" y="337"/>
      <point x="95" y="302" type="curve" smooth="yes"/>
      <point x="95" y="110"/>
      <point x="260" y="-30"/>
      <point x="546" y="-30" type="curve" smooth="yes"/>
      <point x="945" y="-30"/>
      <point x="1335" y="370"/>
      <point x="1335" y="766" type="curve" smooth="yes"/>
      <point x="1335" y="953"/>
      <point x="1227" y="1074"/>
      <point x="1044" y="1074" type="curve" smooth="yes"/>
      <point x="898" y="1074"/>
      <point x="781" y="1003"/>
      <point x="615" y="747" type="curve"/>
      <point x="574" y="747" type="line"/>
      <point x="919" y="1494" type="line"/>
      <point x="854" y="1494" type="line"/>
      <point x="152" y="1390" type="line"/>
      <point x="124" y="1277" type="line"/>
      <point x="182" y="1237"/>
      <point x="290" y="1161"/>
    </contour>
  </outline>
</glyph>
<glyph name="c" format="2">
	<unicode hex="0063"/>
	<advance width="1216"/>
	<outline>
		<contour>
			<point x="784" y="910" type="curve" smooth="yes"/>
			<point x="839" y="910"/>
			<point x="884" y="854"/>
			<point x="924" y="792" type="curve" smooth="yes"/>
			<point x="964" y="730"/>
			<point x="995" y="662"/>
			<point x="1017" y="662" type="curve" smooth="yes"/>
			<point x="1127" y="662"/>
			<point x="1221" y="736"/>
			<point x="1221" y="851" type="curve" smooth="yes"/>
			<point x="1221" y="976"/>
			<point x="1117" y="1074"/>
			<point x="835" y="1074" type="curve" smooth="yes"/>
			<point x="349" y="1074"/>
			<point x="68" y="771"/>
			<point x="68" y="406" type="curve" smooth="yes"/>
			<point x="68" y="104"/>
			<point x="215" y="-30"/>
			<point x="544" y="-30" type="curve" smooth="yes"/>
			<point x="825" y="-30"/>
			<point x="1013" y="92"/>
			<point x="1131" y="436" type="curve"/>
			<point x="1025" y="436" type="line"/>
			<point x="942" y="308"/>
			<point x="854" y="251"/>
			<point x="718" y="251" type="curve" smooth="yes"/>
			<point x="563" y="251"/>
			<point x="515" y="308"/>
			<point x="515" y="482" type="curve" smooth="yes"/>
			<point x="515" y="736"/>
			<point x="614" y="910"/>
		</contour>
	</outline>
	<anchor name="top" x="814" y="1044"/>
	<anchor name="right" x="951" y="0"/>
	<anchor name="bottom" x="495" y="0"/>
</glyph>
<glyph name="d" format="2">
	<unicode hex="0064"/>
	<advance width="1552"/>
	<outline>
		<contour>
			<point x="992" y="719" type="curve"/>
			<point x="1022" y="770" type="line"/>
			<point x="972" y="977"/>
			<point x="884" y="1074"/>
			<point x="729" y="1074" type="curve" smooth="yes"/>
			<point x="402" y="1074"/>
			<point x="29" y="651"/>
			<point x="29" y="269" type="curve" smooth="yes"/>
			<point x="29" y="63"/>
			<point x="185" y="-30"/>
			<point x="333" y="-30" type="curve" smooth="yes"/>
			<point x="513" y="-30"/>
			<point x="637" y="35"/>
			<point x="876" y="438" type="curve"/>
			<point x="910" y="438" type="line"/>
			<point x="798" y="157" type="line" smooth="yes"/>
			<point x="740" y="11"/>
			<point x="794" y="-30"/>
			<point x="956" y="-30" type="curve" smooth="yes"/>
			<point x="1129" y="-30"/>
			<point x="1326" y="29"/>
			<point x="1553" y="231" type="curve"/>
			<point x="1494" y="322" type="line"/>
			<point x="1351" y="228"/>
			<point x="1252" y="211"/>
			<point x="1073" y="217" type="curve"/>
			<point x="1163" y="76" type="line"/>
			<point x="1671" y="1494" type="line"/>
			<point x="1606" y="1494" type="line"/>
			<point x="916" y="1390" type="line"/>
			<point x="888" y="1277" type="line"/>
			<point x="945" y="1236.1641791045"/>
			<point x="1053" y="1158.7910447761"/>
			<point x="1089" y="1133" type="curve"/>
			<point x="927" y="690" type="line" smooth="yes"/>
			<point x="855" y="493"/>
			<point x="671" y="237"/>
			<point x="561" y="237" type="curve" smooth="yes"/>
			<point x="510" y="237"/>
			<point x="484" y="259"/>
			<point x="484" y="307" type="curve" smooth="yes"/>
			<point x="484" y="488"/>
			<point x="718" y="839"/>
			<point x="860" y="839" type="curve" smooth="yes"/>
			<point x="915" y="839"/>
			<point x="953" y="820"/>
		</contour>
	</outline>
	<anchor name="UCtop" x="1130" y="1414"/>
	<anchor name="right" x="1661" y="1464"/>
	<anchor name="bottom" x="610" y="0"/>
	<anchor name="center" x="1363" y="1207"/>
</glyph>
<glyph name="e" format="2">
	<unicode hex="0065"/>
	<advance width="1259"/>
	<outline>
		<contour>
			<point x="793" y="909" type="curve" smooth="yes"/>
			<point x="858" y="909"/>
			<point x="885" y="877"/>
			<point x="885" y="823" type="curve" smooth="yes"/>
			<point x="885" y="696"/>
			<point x="864" y="669"/>
			<point x="387" y="567" type="curve"/>
			<point x="380" y="459" type="line"/>
			<point x="633" y="480"/>
			<point x="923" y="516"/>
			<point x="1186" y="574" type="curve"/>
			<point x="1233" y="669"/>
			<point x="1248" y="745"/>
			<point x="1248" y="815" type="curve" smooth="yes"/>
			<point x="1248" y="958"/>
			<point x="1132" y="1074"/>
			<point x="838" y="1074" type="curve" smooth="yes"/>
			<point x="303" y="1074"/>
			<point x="61" y="726"/>
			<point x="61" y="362" type="curve" smooth="yes"/>
			<point x="61" y="119"/>
			<point x="214" y="-30"/>
			<point x="524" y="-30" type="curve" smooth="yes"/>
			<point x="796" y="-30"/>
			<point x="1002" y="81"/>
			<point x="1146" y="402" type="curve"/>
			<point x="1037" y="402" type="line"/>
			<point x="949" y="291"/>
			<point x="848" y="251"/>
			<point x="719" y="251" type="curve" smooth="yes"/>
			<point x="553" y="251"/>
			<point x="510" y="308"/>
			<point x="510" y="482" type="curve" smooth="yes"/>
			<point x="510" y="791"/>
			<point x="655" y="909"/>
		</contour>
	</outline>
	<anchor name="top" x="794" y="1044"/>
	<anchor name="right" x="1028" y="0"/>
	<anchor name="bottom" x="474" y="0"/>
</glyph>
<glyph name="f" format="2">
	<unicode hex="0066"/>
	<advance width="1035"/>
	<outline>
		<contour>
			<point x="129" y="862" type="line"/>
			<point x="1139" y="862" type="line"/>
			<point x="1139" y="1044" type="line"/>
			<point x="129" y="1044" type="line"/>
		</contour>
		<contour>
			<point x="728" y="419" type="curve" smooth="yes"/>
			<point x="886" y="1110" type="line" smooth="yes"/>
			<point x="919" y="1256"/>
			<point x="971" y="1302"/>
			<point x="1093" y="1302" type="curve" smooth="yes"/>
			<point x="1150" y="1302"/>
			<point x="1187" y="1295"/>
			<point x="1209" y="1271" type="curve" smooth="yes"/>
			<point x="1231" y="1247"/>
			<point x="1239" y="1207"/>
			<point x="1237" y="1144" type="curve"/>
			<point x="1448" y="1144"/>
			<point x="1504" y="1193"/>
			<point x="1504" y="1300" type="curve" smooth="yes"/>
			<point x="1504" y="1418"/>
			<point x="1420" y="1494"/>
			<point x="1129" y="1494" type="curve" smooth="yes"/>
			<point x="757" y="1494"/>
			<point x="471" y="1321"/>
			<point x="410" y="975" type="curve" smooth="yes"/>
			<point x="212" y="-143" type="line" smooth="yes"/>
			<point x="193" y="-248"/>
			<point x="149" y="-284"/>
			<point x="60" y="-284" type="curve" smooth="yes"/>
			<point x="23" y="-284"/>
			<point x="-1" y="-279"/>
			<point x="-24" y="-250" type="curve" smooth="yes"/>
			<point x="-47" y="-221"/>
			<point x="-54" y="-165"/>
			<point x="-57" y="-63" type="curve"/>
			<point x="-253" y="-63"/>
			<point x="-338" y="-122"/>
			<point x="-338" y="-241" type="curve" smooth="yes"/>
			<point x="-338" y="-390"/>
			<point x="-264" y="-465"/>
			<point x="-31" y="-465" type="curve" smooth="yes"/>
			<point x="291" y="-465"/>
			<point x="580" y="-230"/>
		</contour>
	</outline>
	<anchor name="UCtop" x="1071" y="1414"/>
	<anchor name="bottom" x="207" y="-435"/>
</glyph>
<glyph name="g" format="2">
	<unicode hex="0067"/>
	<advance width="1352"/>
	<outline>
		<contour>
			<point x="1369" y="838" type="curve" smooth="yes"/>
			<point x="1439" y="838"/>
			<point x="1534" y="1006"/>
			<point x="1534" y="1061" type="curve" smooth="yes"/>
			<point x="1534" y="1076"/>
			<point x="1518" y="1081"/>
			<point x="1508" y="1081" type="curve" smooth="yes"/>
			<point x="1449" y="1081"/>
			<point x="1215" y="1047"/>
			<point x="908" y="1052" type="curve"/>
			<point x="880" y="952" type="line"/>
			<point x="1144" y="929"/>
			<point x="1356" y="838"/>
		</contour>
		<contour>
			<point x="604" y="498" type="curve" smooth="yes"/>
			<point x="548" y="498"/>
			<point x="516" y="516"/>
			<point x="515" y="593" type="curve" smooth="yes"/>
			<point x="513" y="690"/>
			<point x="568" y="897"/>
			<point x="718" y="897" type="curve" smooth="yes"/>
			<point x="773" y="897"/>
			<point x="806" y="879"/>
			<point x="807" y="803" type="curve" smooth="yes"/>
			<point x="809" y="706"/>
			<point x="752" y="498"/>
		</contour>
		<contour>
			<point x="739" y="1074" type="curve" smooth="yes"/>
			<point x="319" y="1074"/>
			<point x="121" y="843"/>
			<point x="124" y="615" type="curve" smooth="yes"/>
			<point x="127" y="453"/>
			<point x="255" y="321"/>
			<point x="582" y="321" type="curve" smooth="yes"/>
			<point x="1002" y="321"/>
			<point x="1199" y="553"/>
			<point x="1196" y="781" type="curve" smooth="yes"/>
			<point x="1193" y="942"/>
			<point x="1067" y="1074"/>
		</contour>
		<contour>
			<point x="344" y="-465" type="curve" smooth="yes"/>
			<point x="968" y="-465"/>
			<point x="1143" y="-293"/>
			<point x="1143" y="-68" type="curve" smooth="yes"/>
			<point x="1143" y="91"/>
			<point x="1025" y="189"/>
			<point x="653" y="207" type="curve" smooth="yes"/>
			<point x="330" y="223"/>
			<point x="273" y="232"/>
			<point x="273" y="279" type="curve" smooth="yes"/>
			<point x="273" y="321"/>
			<point x="309" y="348"/>
			<point x="470" y="337" type="curve"/>
			<point x="539" y="374" type="line"/>
			<point x="222" y="390"/>
			<point x="11" y="314"/>
			<point x="11" y="121" type="curve" smooth="yes"/>
			<point x="11" y="-13"/>
			<point x="83" y="-90"/>
			<point x="387" y="-114" type="curve" smooth="yes"/>
			<point x="725" y="-141"/>
			<point x="754" y="-156"/>
			<point x="754" y="-211" type="curve" smooth="yes"/>
			<point x="754" y="-275"/>
			<point x="661" y="-314"/>
			<point x="484" y="-314" type="curve" smooth="yes"/>
			<point x="224" y="-314"/>
			<point x="151" y="-267"/>
			<point x="151" y="-185" type="curve" smooth="yes"/>
			<point x="151" y="-137"/>
			<point x="166" y="-100"/>
			<point x="225" y="-86" type="curve"/>
			<point x="235" y="-66" type="line"/>
			<point x="226" y="-65" type="line"/>
			<point x="-88" y="-96"/>
			<point x="-175" y="-146"/>
			<point x="-175" y="-259" type="curve" smooth="yes"/>
			<point x="-175" y="-377"/>
			<point x="-102" y="-465"/>
		</contour>
	</outline>
	<anchor name="top" x="750" y="1044"/>
	<anchor name="bottom" x="428" y="-435"/>
</glyph>
<glyph name="h" format="2">
	<unicode hex="0068"/>
	<advance width="1540"/>
	<outline>
		<contour>
			<point x="530" y="173" type="line" smooth="yes"/>
			<point x="674" y="602"/>
			<point x="768" y="748"/>
			<point x="878" y="748" type="curve" smooth="yes"/>
			<point x="914" y="748"/>
			<point x="929" y="732"/>
			<point x="929" y="701" type="curve" smooth="yes"/>
			<point x="929" y="669"/>
			<point x="921" y="629"/>
			<point x="875" y="511" type="curve" smooth="yes"/>
			<point x="742" y="170" type="line" smooth="yes"/>
			<point x="691" y="40"/>
			<point x="763" y="-30"/>
			<point x="896" y="-30" type="curve" smooth="yes"/>
			<point x="1090" y="-30"/>
			<point x="1282" y="21"/>
			<point x="1531" y="225" type="curve"/>
			<point x="1477" y="321" type="line"/>
			<point x="1272" y="215"/>
			<point x="1180" y="208"/>
			<point x="1042" y="223" type="curve"/>
			<point x="1170" y="91" type="line"/>
			<point x="1344" y="538" type="line" smooth="yes"/>
			<point x="1402" y="688"/>
			<point x="1419" y="775"/>
			<point x="1419" y="839" type="curve" smooth="yes"/>
			<point x="1419" y="972"/>
			<point x="1330" y="1074"/>
			<point x="1147" y="1074" type="curve" smooth="yes"/>
			<point x="907" y="1074"/>
			<point x="755" y="960"/>
			<point x="537" y="463" type="curve"/>
			<point x="496" y="463" type="line"/>
			<point x="937" y="1494" type="line"/>
			<point x="872" y="1494" type="line"/>
			<point x="182" y="1390" type="line"/>
			<point x="154" y="1277" type="line"/>
			<point x="211" y="1237.3235294118"/>
			<point x="322" y="1160.0588235294"/>
			<point x="358" y="1135" type="curve"/>
			<point x="11" y="0" type="line"/>
			<point x="472" y="0" type="line"/>
		</contour>
	</outline>
	<anchor name="UCtop" x="1027" y="1414"/>
	<anchor name="bottom" x="611" y="0"/>
	<anchor name="center" x="580" y="1207"/>
</glyph>
<glyph name="i" format="2">
	<unicode hex="0069"/>
	<advance width="964"/>
	<outline>
		<contour>
			<point x="144" y="253" type="line" smooth="yes"/>
			<point x="54" y="38"/>
			<point x="107" y="-30"/>
			<point x="279" y="-30" type="curve" smooth="yes"/>
			<point x="477" y="-30"/>
			<point x="692" y="37"/>
			<point x="936" y="226" type="curve"/>
			<point x="876" y="322" type="line"/>
			<point x="740" y="239"/>
			<point x="634" y="216"/>
			<point x="439" y="231" type="curve"/>
			<point x="558" y="91" type="line"/>
			<point x="852" y="791" type="line" smooth="yes"/>
			<point x="933" y="983"/>
			<point x="904" y="1074"/>
			<point x="669" y="1074" type="curve" smooth="yes"/>
			<point x="487" y="1074"/>
			<point x="299" y="1010"/>
			<point x="16" y="788" type="curve"/>
			<point x="83" y="693" type="line"/>
			<point x="250" y="809"/>
			<point x="346" y="830"/>
			<point x="532" y="822" type="curve"/>
			<point x="437" y="954" type="line"/>
		</contour>
		<contour>
			<point x="496" y="1303" type="curve" smooth="yes"/>
			<point x="496" y="1211"/>
			<point x="575" y="1164"/>
			<point x="752" y="1164" type="curve" smooth="yes"/>
			<point x="989" y="1164"/>
			<point x="1058" y="1245"/>
			<point x="1058" y="1355" type="curve" smooth="yes"/>
			<point x="1058" y="1447"/>
			<point x="979" y="1494"/>
			<point x="802" y="1494" type="curve" smooth="yes"/>
			<point x="565" y="1494"/>
			<point x="496" y="1413"/>
		</contour>
	</outline>
	<anchor name="top" x="794" y="1414"/>
	<anchor name="bottom" x="287" y="0"/>
	<anchor name="right" x="578" y="0"/>
</glyph>
<glyph name="j" format="2">
	<unicode hex="006A"/>
	<advance width="887"/>
	<outline>
		<contour>
			<point x="454" y="1303" type="curve" smooth="yes"/>
			<point x="454" y="1211"/>
			<point x="533" y="1164"/>
			<point x="710" y="1164" type="curve" smooth="yes"/>
			<point x="947" y="1164"/>
			<point x="1016" y="1245"/>
			<point x="1016" y="1355" type="curve" smooth="yes"/>
			<point x="1016" y="1447"/>
			<point x="937" y="1494"/>
			<point x="760" y="1494" type="curve" smooth="yes"/>
			<point x="523" y="1494"/>
			<point x="454" y="1413"/>
		</contour>
		<contour>
			<point x="635" y="208" type="curve" smooth="yes"/>
			<point x="810" y="791" type="line" smooth="yes"/>
			<point x="870" y="991"/>
			<point x="862" y="1074"/>
			<point x="627" y="1074" type="curve" smooth="yes"/>
			<point x="456" y="1074"/>
			<point x="283" y="1008"/>
			<point x="15" y="798" type="curve"/>
			<point x="82" y="703" type="line"/>
			<point x="235" y="809"/>
			<point x="321" y="829"/>
			<point x="490" y="822" type="curve"/>
			<point x="395" y="954" type="line"/>
			<point x="89" y="-119" type="line" smooth="yes"/>
			<point x="56" y="-235"/>
			<point x="29" y="-280"/>
			<point x="-35" y="-280" type="curve" smooth="yes"/>
			<point x="-49" y="-280"/>
			<point x="-86" y="-225"/>
			<point x="-122" y="-172" type="curve" smooth="yes"/>
			<point x="-158" y="-119"/>
			<point x="-195" y="-66"/>
			<point x="-211" y="-66" type="curve" smooth="yes"/>
			<point x="-350" y="-66"/>
			<point x="-400" y="-152"/>
			<point x="-400" y="-246" type="curve" smooth="yes"/>
			<point x="-400" y="-370"/>
			<point x="-321" y="-465"/>
			<point x="-100" y="-465" type="curve" smooth="yes"/>
			<point x="197" y="-465"/>
			<point x="480" y="-309"/>
		</contour>
	</outline>
	<anchor name="top" x="735" y="1414"/>
	<anchor name="bottom" x="56" y="-435"/>
</glyph>
<glyph name="k" format="2">
  <advance width="1545"/>
  <unicode hex="006B"/>
  <guideline x="937.0" y="1494" angle="178.09207420361835" identifier="4mMGona6iy"/>
  <anchor x="973.0" y="1414" name="UCtop"/>
  <anchor x="663.0" y="0" name="bottom"/>
  <outline>
    <contour>
      <point x="937.0" y="1494.0" type="line"/>
      <point x="872.0" y="1494.0" type="line"/>
      <point x="182.0" y="1390.0" type="line"/>
      <point x="154.0" y="1277.0" type="line"/>
      <point x="211.0" y="1237.3235294117646"/>
      <point x="322.0" y="1160.0588235294117"/>
      <point x="358.0" y="1135.0" type="curve"/>
      <point x="11.0" y="0.0" type="line"/>
      <point x="480.0" y="0.0" type="line"/>
    </contour>
    <contour>
      <point x="630" y="555" type="line"/>
      <point x="770" y="43"/>
      <point x="841" y="-30"/>
      <point x="971" y="-30" type="curve" smooth="yes"/>
      <point x="1112" y="-30"/>
      <point x="1302" y="71"/>
      <point x="1472" y="264" type="curve"/>
      <point x="1408" y="355" type="line"/>
      <point x="1335" y="295"/>
      <point x="1293" y="276"/>
      <point x="1263" y="276" type="curve" smooth="yes"/>
      <point x="1196" y="276"/>
      <point x="1144" y="364"/>
      <point x="984" y="835" type="curve"/>
      <point x="789" y="587" type="line"/>
      <point x="1078" y="785"/>
      <point x="1098" y="796"/>
      <point x="1163" y="796" type="curve" smooth="yes"/>
      <point x="1199" y="796"/>
      <point x="1235.0" y="764.0"/>
      <point x="1267" y="728" type="curve" smooth="yes"/>
      <point x="1299" y="692"/>
      <point x="1330" y="643"/>
      <point x="1338" y="643" type="curve" smooth="yes"/>
      <point x="1432" y="643"/>
      <point x="1534" y="732"/>
      <point x="1534" y="881" type="curve" smooth="yes"/>
      <point x="1534" y="991"/>
      <point x="1462" y="1074"/>
      <point x="1321" y="1074" type="curve" smooth="yes"/>
      <point x="1171" y="1074"/>
      <point x="1087" y="1032"/>
      <point x="667" y="619" type="curve"/>
    </contour>
  </outline>
</glyph>
<glyph name="l" format="2">
	<unicode hex="006C"/>
	<advance width="883"/>
	<outline>
		<contour>
			<point x="366" y="1135" type="curve"/>
			<point x="81" y="249" type="line" smooth="yes"/>
			<point x="20" y="59"/>
			<point x="84" y="-30"/>
			<point x="221" y="-30" type="curve" smooth="yes"/>
			<point x="419" y="-30"/>
			<point x="610" y="26"/>
			<point x="878" y="236" type="curve"/>
			<point x="819" y="331" type="line"/>
			<point x="677" y="250"/>
			<point x="560" y="222"/>
			<point x="365" y="242" type="curve"/>
			<point x="486" y="73" type="line"/>
			<point x="945" y="1494" type="line"/>
			<point x="880" y="1494" type="line"/>
			<point x="190" y="1390" type="line"/>
			<point x="162" y="1277" type="line"/>
			<point x="219" y="1237.3235294118"/>
			<point x="330" y="1160.0588235294"/>
		</contour>
	</outline>
	<anchor name="UCtop" x="681" y="1414"/>
	<anchor name="right" x="935" y="1464"/>
	<anchor name="bottom" x="261" y="0"/>
	<anchor name="mid" x="965" y="612"/>
</glyph>
<glyph name="m" format="2">
	<unicode hex="006D"/>
	<advance width="2275"/>
	<outline>
		<contour>
			<point x="1900" y="91" type="line"/>
			<point x="2079" y="538" type="line" smooth="yes"/>
			<point x="2139" y="687"/>
			<point x="2154" y="775"/>
			<point x="2154" y="839" type="curve" smooth="yes"/>
			<point x="2154" y="972"/>
			<point x="2058" y="1074"/>
			<point x="1862" y="1074" type="curve" smooth="yes"/>
			<point x="1678" y="1074"/>
			<point x="1532" y="969"/>
			<point x="1312" y="463" type="curve"/>
			<point x="1271" y="463" type="line"/>
			<point x="1344" y="683" type="line" smooth="yes"/>
			<point x="1368" y="755"/>
			<point x="1379" y="817"/>
			<point x="1379" y="869" type="curve" smooth="yes"/>
			<point x="1379" y="1006"/>
			<point x="1300" y="1074"/>
			<point x="1152" y="1074" type="curve" smooth="yes"/>
			<point x="980" y="1074"/>
			<point x="871" y="992"/>
			<point x="654" y="463" type="curve"/>
			<point x="613" y="463" type="line"/>
			<point x="789" y="1063" type="line"/>
			<point x="692" y="1070"/>
			<point x="652" y="1070"/>
			<point x="560" y="1070" type="curve" smooth="yes"/>
			<point x="272" y="1070"/>
			<point x="121" y="978"/>
			<point x="49" y="645" type="curve"/>
			<point x="96" y="633" type="line"/>
			<point x="183" y="774"/>
			<point x="227" y="787"/>
			<point x="358" y="787" type="curve" smooth="yes"/>
			<point x="364" y="787"/>
			<point x="369" y="787"/>
			<point x="373" y="787" type="curve"/>
			<point x="131" y="0" type="line"/>
			<point x="589" y="0" type="line"/>
			<point x="647" y="173" type="line" smooth="yes"/>
			<point x="802" y="634"/>
			<point x="862" y="758"/>
			<point x="965" y="758" type="curve" smooth="yes"/>
			<point x="996" y="758"/>
			<point x="1008" y="740"/>
			<point x="1008" y="709" type="curve" smooth="yes"/>
			<point x="1008" y="681"/>
			<point x="999" y="640"/>
			<point x="957" y="519" type="curve" smooth="yes"/>
			<point x="778" y="0" type="line"/>
			<point x="1237" y="0" type="line"/>
			<point x="1295" y="173" type="line" smooth="yes"/>
			<point x="1453" y="645"/>
			<point x="1536" y="758"/>
			<point x="1613" y="758" type="curve" smooth="yes"/>
			<point x="1653" y="758"/>
			<point x="1671" y="738"/>
			<point x="1671" y="702" type="curve" smooth="yes"/>
			<point x="1671" y="678"/>
			<point x="1661" y="638"/>
			<point x="1614" y="521" type="curve" smooth="yes"/>
			<point x="1472" y="170" type="line" smooth="yes"/>
			<point x="1419" y="40"/>
			<point x="1493" y="-30"/>
			<point x="1626" y="-30" type="curve" smooth="yes"/>
			<point x="1820" y="-30"/>
			<point x="2012" y="21"/>
			<point x="2261" y="225" type="curve"/>
			<point x="2207" y="321" type="line"/>
			<point x="2002" y="215"/>
			<point x="1910" y="208"/>
			<point x="1772" y="223" type="curve"/>
		</contour>
	</outline>
	<anchor name="top" x="1345" y="1044"/>
	<anchor name="bottom" x="1025" y="0"/>
</glyph>
<glyph name="n" format="2">
	<unicode hex="006E"/>
	<advance width="1657"/>
	<outline>
		<contour>
			<point x="96" y="633" type="line"/>
			<point x="183" y="774"/>
			<point x="227" y="787"/>
			<point x="358" y="787" type="curve" smooth="yes"/>
			<point x="364" y="787"/>
			<point x="369" y="787"/>
			<point x="373" y="787" type="curve"/>
			<point x="131" y="0" type="line"/>
			<point x="589" y="0" type="line"/>
			<point x="647" y="173" type="line" smooth="yes"/>
			<point x="791" y="602"/>
			<point x="885" y="748"/>
			<point x="995" y="748" type="curve" smooth="yes"/>
			<point x="1031" y="748"/>
			<point x="1046" y="732"/>
			<point x="1046" y="701" type="curve" smooth="yes"/>
			<point x="1046" y="669"/>
			<point x="1038" y="629"/>
			<point x="992" y="511" type="curve" smooth="yes"/>
			<point x="859" y="170" type="line" smooth="yes"/>
			<point x="808" y="40"/>
			<point x="880" y="-30"/>
			<point x="1013" y="-30" type="curve" smooth="yes"/>
			<point x="1207" y="-30"/>
			<point x="1399" y="21"/>
			<point x="1648" y="225" type="curve"/>
			<point x="1594" y="321" type="line"/>
			<point x="1389" y="215"/>
			<point x="1297" y="208"/>
			<point x="1159" y="223" type="curve"/>
			<point x="1287" y="91" type="line"/>
			<point x="1461" y="538" type="line" smooth="yes"/>
			<point x="1519" y="688"/>
			<point x="1536" y="775"/>
			<point x="1536" y="839" type="curve" smooth="yes"/>
			<point x="1536" y="972"/>
			<point x="1447" y="1074"/>
			<point x="1264" y="1074" type="curve" smooth="yes"/>
			<point x="1024" y="1074"/>
			<point x="872" y="960"/>
			<point x="654" y="463" type="curve"/>
			<point x="613" y="463" type="line"/>
			<point x="789" y="1063" type="line"/>
			<point x="692" y="1070"/>
			<point x="652" y="1070"/>
			<point x="560" y="1070" type="curve" smooth="yes"/>
			<point x="272" y="1070"/>
			<point x="121" y="978"/>
			<point x="49" y="645" type="curve"/>
		</contour>
	</outline>
	<anchor name="top" x="978" y="1044"/>
	<anchor name="bottom" x="728" y="0"/>
</glyph>
<glyph name="o" format="2">
	<unicode hex="006F"/>
	<advance width="1349"/>
	<outline>
		<contour>
			<point x="774" y="1074" type="curve" smooth="yes"/>
			<point x="298" y="1074"/>
			<point x="69" y="735"/>
			<point x="69" y="400" type="curve" smooth="yes"/>
			<point x="69" y="163"/>
			<point x="210" y="-30"/>
			<point x="576" y="-30" type="curve" smooth="yes"/>
			<point x="1052" y="-30"/>
			<point x="1281" y="309"/>
			<point x="1281" y="644" type="curve" smooth="yes"/>
			<point x="1281" y="881"/>
			<point x="1140" y="1074"/>
		</contour>
		<contour>
			<point x="604" y="229" type="curve" smooth="yes"/>
			<point x="534" y="229"/>
			<point x="504" y="261"/>
			<point x="504" y="360" type="curve" smooth="yes"/>
			<point x="504" y="530"/>
			<point x="588" y="815"/>
			<point x="746" y="815" type="curve" smooth="yes"/>
			<point x="816" y="815"/>
			<point x="846" y="783"/>
			<point x="846" y="684" type="curve" smooth="yes"/>
			<point x="846" y="514"/>
			<point x="762" y="229"/>
		</contour>
	</outline>
	<anchor name="bottom" x="535" y="0"/>
	<anchor name="horn" x="961" y="1044"/>
	<anchor name="right" x="751" y="0"/>
	<anchor name="top" x="795" y="1044"/>
</glyph>
<glyph name="p" format="2">
	<unicode hex="0070"/>
	<advance width="1531"/>
	<outline>
		<contour>
			<point x="656" y="332" type="curve" smooth="yes"/>
			<point x="685" y="439" type="line" smooth="yes"/>
			<point x="733" y="616"/>
			<point x="844" y="787"/>
			<point x="940" y="787" type="curve" smooth="yes"/>
			<point x="990" y="787"/>
			<point x="1014" y="750"/>
			<point x="1014" y="673" type="curve" smooth="yes"/>
			<point x="1014" y="410"/>
			<point x="867" y="146"/>
			<point x="733" y="146" type="curve" smooth="yes"/>
			<point x="675" y="146"/>
			<point x="641" y="184"/>
			<point x="641" y="247" type="curve" smooth="yes"/>
			<point x="641" y="266"/>
			<point x="644" y="287"/>
		</contour>
		<contour>
			<point x="426" y="170" type="line"/>
			<point x="436" y="35"/>
			<point x="572" y="-29"/>
			<point x="769" y="-29" type="curve" smooth="yes"/>
			<point x="1159" y="-29"/>
			<point x="1486" y="329"/>
			<point x="1486" y="734" type="curve" smooth="yes"/>
			<point x="1486" y="942"/>
			<point x="1383" y="1074"/>
			<point x="1172" y="1074" type="curve" smooth="yes"/>
			<point x="973" y="1074"/>
			<point x="835" y="953"/>
			<point x="693" y="664" type="curve"/>
			<point x="655" y="664" type="line"/>
			<point x="785" y="1065" type="line"/>
			<point x="716" y="1070"/>
			<point x="666" y="1071"/>
			<point x="572" y="1071" type="curve" smooth="yes"/>
			<point x="278" y="1071"/>
			<point x="110" y="980"/>
			<point x="38" y="649" type="curve"/>
			<point x="80" y="634" type="line"/>
			<point x="169" y="775"/>
			<point x="217" y="791"/>
			<point x="357" y="791" type="curve" smooth="yes"/>
			<point x="365" y="791"/>
			<point x="370" y="791"/>
			<point x="378" y="790" type="curve"/>
			<point x="63" y="-294" type="line"/>
			<point x="-51" y="-325" type="line"/>
			<point x="-81" y="-435" type="line"/>
			<point x="622" y="-435" type="line"/>
			<point x="655" y="-324" type="line"/>
			<point x="507" y="-293" type="line"/>
			<point x="641" y="170" type="line"/>
		</contour>
	</outline>
	<anchor name="top" x="902" y="1044"/>
	<anchor name="bottom" x="242" y="-435"/>
</glyph>
<glyph name="q" format="2">
	<unicode hex="0071"/>
	<advance width="1478"/>
	<outline>
		<contour>
			<point x="647" y="-293" type="line"/>
			<point x="510" y="-324" type="line"/>
			<point x="476" y="-435" type="line"/>
			<point x="1185" y="-435" type="line"/>
			<point x="1221" y="-325" type="line"/>
			<point x="1116" y="-288" type="line"/>
			<point x="1477" y="1044" type="line"/>
			<point x="1135" y="1044" type="line"/>
			<point x="987" y="847" type="line"/>
			<point x="917" y="688" type="line" smooth="yes"/>
			<point x="832" y="495"/>
			<point x="673" y="237"/>
			<point x="563" y="237" type="curve" smooth="yes"/>
			<point x="512" y="237"/>
			<point x="486" y="259"/>
			<point x="486" y="307" type="curve" smooth="yes"/>
			<point x="486" y="488"/>
			<point x="720" y="839"/>
			<point x="862" y="839" type="curve" smooth="yes"/>
			<point x="916" y="839"/>
			<point x="956" y="818"/>
			<point x="994" y="719" type="curve"/>
			<point x="1024" y="770" type="line"/>
			<point x="974" y="977"/>
			<point x="884" y="1074"/>
			<point x="729" y="1074" type="curve" smooth="yes"/>
			<point x="402" y="1074"/>
			<point x="29" y="651"/>
			<point x="29" y="269" type="curve" smooth="yes"/>
			<point x="29" y="63"/>
			<point x="185" y="-30"/>
			<point x="335" y="-30" type="curve" smooth="yes"/>
			<point x="515" y="-30"/>
			<point x="639" y="35"/>
			<point x="878" y="438" type="curve"/>
			<point x="912" y="438" type="line"/>
		</contour>
	</outline>
	<anchor name="top" x="933" y="1044"/>
	<anchor name="bottom" x="838" y="-435"/>
</glyph>
<glyph name="t" format="2">
	<unicode hex="0074"/>
	<advance width="1086"/>
	<outline>
		<contour>
			<point x="125" y="862" type="line"/>
			<point x="1166" y="862" type="line"/>
			<point x="1166" y="1044" type="line"/>
			<point x="125" y="1044" type="line"/>
		</contour>
		<contour>
			<point x="736" y="599" type="curve" smooth="yes"/>
			<point x="1007" y="1336" type="line"/>
			<point x="545" y="1336" type="line"/>
			<point x="271" y="533" type="line" smooth="yes"/>
			<point x="214" y="367"/>
			<point x="188" y="256"/>
			<point x="188" y="174" type="curve" smooth="yes"/>
			<point x="188" y="31"/>
			<point x="260" y="-30"/>
			<point x="401" y="-30" type="curve" smooth="yes"/>
			<point x="531" y="-30"/>
			<point x="713" y="-3"/>
			<point x="1003" y="263" type="curve"/>
			<point x="931" y="356" type="line"/>
			<point x="800" y="268"/>
			<point x="753" y="259"/>
			<point x="714" y="259" type="curve" smooth="yes"/>
			<point x="679" y="259"/>
			<point x="661" y="266"/>
			<point x="661" y="307" type="curve" smooth="yes"/>
			<point x="661" y="340"/>
			<point x="670" y="403"/>
		</contour>
	</outline>
	<anchor name="right" x="1026" y="1535"/>
	<anchor name="bottom" x="446" y="0"/>
</glyph>
<glyph name="w" format="2">
	<unicode hex="0077"/>
	<advance width="2081"/>
	<outline>
		<contour>
			<point x="1091" y="1044" type="line"/>
			<point x="974" y="604" type="line" smooth="yes"/>
			<point x="892" y="294"/>
			<point x="814" y="229"/>
			<point x="721" y="229" type="curve" smooth="yes"/>
			<point x="670" y="229"/>
			<point x="644" y="248"/>
			<point x="644" y="297" type="curve" smooth="yes"/>
			<point x="644" y="320"/>
			<point x="649" y="349"/>
			<point x="661" y="386" type="curve" smooth="yes"/>
			<point x="878" y="1063" type="line"/>
			<point x="764" y="1070"/>
			<point x="717" y="1074"/>
			<point x="609" y="1074" type="curve" smooth="yes"/>
			<point x="223" y="1074"/>
			<point x="109" y="976"/>
			<point x="28" y="645" type="curve"/>
			<point x="75" y="633" type="line"/>
			<point x="162" y="774"/>
			<point x="206" y="787"/>
			<point x="337" y="787" type="curve" smooth="yes"/>
			<point x="343" y="787"/>
			<point x="348" y="787"/>
			<point x="352" y="787" type="curve"/>
			<point x="243" y="443" type="line" smooth="yes"/>
			<point x="219" y="368"/>
			<point x="207" y="300"/>
			<point x="207" y="240" type="curve" smooth="yes"/>
			<point x="207" y="72"/>
			<point x="302" y="-30"/>
			<point x="506" y="-30" type="curve" smooth="yes"/>
			<point x="736" y="-30"/>
			<point x="912" y="88"/>
			<point x="1060" y="466" type="curve"/>
			<point x="1104" y="466" type="line"/>
			<point x="1078" y="329" type="line" smooth="yes"/>
			<point x="1070" y="288"/>
			<point x="1066" y="250"/>
			<point x="1066" y="217" type="curve" smooth="yes"/>
			<point x="1066" y="47"/>
			<point x="1165" y="-30"/>
			<point x="1356" y="-30" type="curve" smooth="yes"/>
			<point x="1649" y="-30"/>
			<point x="2010" y="225"/>
			<point x="2010" y="777" type="curve" smooth="yes"/>
			<point x="2010" y="1017"/>
			<point x="1938" y="1074"/>
			<point x="1822" y="1074" type="curve" smooth="yes"/>
			<point x="1664" y="1074"/>
			<point x="1597" y="961"/>
			<point x="1597" y="834" type="curve" smooth="yes"/>
			<point x="1597" y="810"/>
			<point x="1777" y="802"/>
			<point x="1777" y="619" type="curve" smooth="yes"/>
			<point x="1777" y="370"/>
			<point x="1617" y="229"/>
			<point x="1481" y="229" type="curve" smooth="yes"/>
			<point x="1404" y="229"/>
			<point x="1372" y="261"/>
			<point x="1372" y="333" type="curve" smooth="yes"/>
			<point x="1372" y="368"/>
			<point x="1380" y="413"/>
			<point x="1394" y="468" type="curve" smooth="yes"/>
			<point x="1538" y="1044" type="line"/>
		</contour>
	</outline>
	<anchor name="top" x="1289" y="1044"/>
	<anchor name="bottom" x="1009" y="0"/>
</glyph>
<glyph name="x" format="2">
	<unicode hex="0078"/>
	<advance width="1422"/>
	<outline>
		<contour>
			<point x="765" y="384" type="line"/>
			<point x="909" y="545" type="line" smooth="yes"/>
			<point x="1000" y="645"/>
			<point x="1107" y="757"/>
			<point x="1166" y="757" type="curve" smooth="yes"/>
			<point x="1192" y="757"/>
			<point x="1221" y="741"/>
			<point x="1249" y="720" type="curve" smooth="yes"/>
			<point x="1277" y="699"/>
			<point x="1304" y="674"/>
			<point x="1318" y="674" type="curve" smooth="yes"/>
			<point x="1375" y="674"/>
			<point x="1490" y="774"/>
			<point x="1490" y="897" type="curve" smooth="yes"/>
			<point x="1490" y="1008"/>
			<point x="1423" y="1074"/>
			<point x="1311" y="1074" type="curve" smooth="yes"/>
			<point x="1175" y="1074"/>
			<point x="1101" y="1026"/>
			<point x="897" y="763" type="curve" smooth="yes"/>
			<point x="718" y="532" type="line"/>
			<point x="650" y="645" type="line"/>
			<point x="515" y="499" type="line" smooth="yes"/>
			<point x="353" y="323"/>
			<point x="292" y="287"/>
			<point x="257" y="287" type="curve" smooth="yes"/>
			<point x="228" y="287"/>
			<point x="197" y="307"/>
			<point x="170" y="328" type="curve" smooth="yes"/>
			<point x="143" y="349"/>
			<point x="118" y="370"/>
			<point x="105" y="370" type="curve" smooth="yes"/>
			<point x="48" y="370"/>
			<point x="-66" y="270"/>
			<point x="-66" y="147" type="curve" smooth="yes"/>
			<point x="-66" y="36"/>
			<point x="1" y="-30"/>
			<point x="113" y="-30" type="curve" smooth="yes"/>
			<point x="262" y="-30"/>
			<point x="327" y="41"/>
			<point x="527" y="281" type="curve" smooth="yes"/>
			<point x="698" y="486" type="line"/>
		</contour>
		<contour>
			<point x="1344" y="293" type="curve"/>
			<point x="1273" y="385" type="line"/>
			<point x="1121" y="275"/>
			<point x="1046" y="243"/>
			<point x="1021" y="243" type="curve" smooth="yes"/>
			<point x="1009" y="243"/>
			<point x="1007" y="249"/>
			<point x="1001" y="275" type="curve" smooth="yes"/>
			<point x="871" y="839" type="line" smooth="yes"/>
			<point x="830" y="1016"/>
			<point x="784" y="1074"/>
			<point x="653" y="1074" type="curve" smooth="yes"/>
			<point x="462" y="1074"/>
			<point x="311" y="979"/>
			<point x="89" y="712" type="curve"/>
			<point x="169" y="629" type="line"/>
			<point x="324" y="768"/>
			<point x="387" y="802"/>
			<point x="407" y="802" type="curve" smooth="yes"/>
			<point x="415" y="802"/>
			<point x="416" y="799"/>
			<point x="424" y="766" type="curve" smooth="yes"/>
			<point x="557" y="203" type="line" smooth="yes"/>
			<point x="599" y="26"/>
			<point x="644" y="-30"/>
			<point x="775" y="-30" type="curve" smooth="yes"/>
			<point x="924" y="-30"/>
			<point x="1077" y="44"/>
		</contour>
	</outline>
	<anchor name="top" x="872" y="1044"/>
	<anchor name="bottom" x="552" y="0"/>
</glyph>
<glyph name="z" format="2">
	<unicode hex="007A"/>
	<advance width="1275"/>
	<outline>
		<contour>
			<point x="1" y="111" type="line"/>
			<point x="103" y="-30" type="line"/>
			<point x="1287" y="939" type="line"/>
			<point x="1178" y="1074" type="line"/>
		</contour>
		<contour>
			<point x="189" y="615" type="line"/>
			<point x="308" y="755"/>
			<point x="326" y="763"/>
			<point x="501" y="693" type="curve" smooth="yes"/>
			<point x="788" y="578" type="line"/>
			<point x="1067" y="908" type="line"/>
			<point x="653" y="1045" type="line" smooth="yes"/>
			<point x="452" y="1112"/>
			<point x="300" y="1087"/>
			<point x="80" y="697" type="curve"/>
		</contour>
		<contour>
			<point x="584" y="17" type="line" smooth="yes"/>
			<point x="769" y="-82"/>
			<point x="950" y="-44"/>
			<point x="1249" y="350" type="curve"/>
			<point x="1179" y="415" type="line"/>
			<point x="1006" y="274"/>
			<point x="954" y="276"/>
			<point x="799" y="372" type="curve" smooth="yes"/>
			<point x="560" y="520" type="line"/>
			<point x="211" y="217" type="line"/>
		</contour>
	</outline>
	<anchor name="top" x="744" y="1044"/>
	<anchor name="bottom" x="504" y="0"/>
</glyph>
<glyph name="braceleft" format="2">
	<unicode hex="007B"/>
	<advance width="835"/>
	<outline>
		<contour>
			<point x="56" y="526" type="line"/>
			<point x="126" y="523" type="line" smooth="yes"/>
			<point x="198" y="520"/>
			<point x="225" y="501"/>
			<point x="225" y="454" type="curve" smooth="yes"/>
			<point x="225" y="340"/>
			<point x="98" y="174"/>
			<point x="98" y="23" type="curve" smooth="yes"/>
			<point x="98" y="-103"/>
			<point x="215" y="-219"/>
			<point x="388" y="-236" type="curve" smooth="yes"/>
			<point x="513" y="-248" type="line"/>
			<point x="595" y="-39" type="line"/>
			<point x="509" y="-26" type="line" smooth="yes"/>
			<point x="459" y="-19"/>
			<point x="437" y="4"/>
			<point x="437" y="52" type="curve" smooth="yes"/>
			<point x="437" y="157"/>
			<point x="532" y="352"/>
			<point x="532" y="459" type="curve" smooth="yes"/>
			<point x="532" y="548"/>
			<point x="497" y="616"/>
			<point x="314" y="663" type="curve"/>
			<point x="290" y="583" type="line"/>
			<point x="539" y="615"/>
			<point x="647" y="730"/>
			<point x="687" y="859" type="curve" smooth="yes"/>
			<point x="716" y="954"/>
			<point x="723" y="1051"/>
			<point x="753" y="1147" type="curve" smooth="yes"/>
			<point x="778" y="1228"/>
			<point x="817" y="1260"/>
			<point x="906" y="1272" type="curve" smooth="yes"/>
			<point x="1000" y="1285" type="line"/>
			<point x="1045" y="1494" type="line"/>
			<point x="830" y="1479" type="line" smooth="yes"/>
			<point x="596" y="1463"/>
			<point x="446" y="1338"/>
			<point x="404" y="1199" type="curve" smooth="yes"/>
			<point x="361" y="1057"/>
			<point x="378" y="938"/>
			<point x="348" y="838" type="curve" smooth="yes"/>
			<point x="323" y="757"/>
			<point x="282" y="727"/>
			<point x="187" y="723" type="curve" smooth="yes"/>
			<point x="115" y="720" type="line"/>
		</contour>
	</outline>
</glyph>
<glyph name="bar" format="2">
	<unicode hex="007C"/>
	<advance width="675"/>
	<outline>
		<contour>
			<point x="-113" y="-465" type="line"/>
			<point x="187" y="-465" type="line"/>
			<point x="798" y="1535" type="line"/>
			<point x="498" y="1535" type="line"/>
		</contour>
	</outline>
</glyph>
<glyph name="braceright" format="2">
	<unicode hex="007D"/>
	<advance width="837"/>
	<outline>
		<contour>
			<point x="842" y="720" type="line"/>
			<point x="772" y="723" type="line" smooth="yes"/>
			<point x="700" y="726"/>
			<point x="673" y="745"/>
			<point x="673" y="792" type="curve" smooth="yes"/>
			<point x="673" y="906"/>
			<point x="800" y="1072"/>
			<point x="800" y="1223" type="curve" smooth="yes"/>
			<point x="800" y="1349"/>
			<point x="683" y="1465"/>
			<point x="510" y="1482" type="curve" smooth="yes"/>
			<point x="385" y="1494" type="line"/>
			<point x="303" y="1285" type="line"/>
			<point x="389" y="1272" type="line" smooth="yes"/>
			<point x="439" y="1265"/>
			<point x="461" y="1242"/>
			<point x="461" y="1194" type="curve" smooth="yes"/>
			<point x="461" y="1089"/>
			<point x="366" y="894"/>
			<point x="366" y="787" type="curve" smooth="yes"/>
			<point x="366" y="698"/>
			<point x="401" y="630"/>
			<point x="584" y="583" type="curve"/>
			<point x="608" y="663" type="line"/>
			<point x="359" y="631"/>
			<point x="251" y="516"/>
			<point x="211" y="387" type="curve" smooth="yes"/>
			<point x="182" y="292"/>
			<point x="175" y="195"/>
			<point x="145" y="99" type="curve" smooth="yes"/>
			<point x="120" y="18"/>
			<point x="81" y="-14"/>
			<point x="-8" y="-26" type="curve" smooth="yes"/>
			<point x="-102" y="-39" type="line"/>
			<point x="-147" y="-248" type="line"/>
			<point x="68" y="-233" type="line" smooth="yes"/>
			<point x="302" y="-217"/>
			<point x="452" y="-92"/>
			<point x="494" y="47" type="curve" smooth="yes"/>
			<point x="537" y="189"/>
			<point x="520" y="308"/>
			<point x="550" y="408" type="curve" smooth="yes"/>
			<point x="575" y="489"/>
			<point x="616" y="519"/>
			<point x="711" y="523" type="curve" smooth="yes"/>
			<point x="783" y="526" type="line"/>
		</contour>
	</outline>
</glyph>
<glyph name="asciitilde" format="2">
	<unicode hex="007E"/>
	<advance width="1200"/>
	<outline>
		<contour>
			<point x="1096" y="713" type="curve"/>
			<point x="845" y="713" type="line"/>
			<point x="820" y="610"/>
			<point x="787" y="588"/>
			<point x="742" y="588" type="curve" smooth="yes"/>
			<point x="666" y="588"/>
			<point x="580" y="726"/>
			<point x="436" y="726" type="curve" smooth="yes"/>
			<point x="282" y="726"/>
			<point x="175" y="633"/>
			<point x="105" y="330" type="curve"/>
			<point x="356" y="330" type="line"/>
			<point x="381" y="433"/>
			<point x="414" y="455"/>
			<point x="459" y="455" type="curve" smooth="yes"/>
			<point x="535" y="455"/>
			<point x="621" y="317"/>
			<point x="765" y="317" type="curve" smooth="yes"/>
			<point x="919" y="317"/>
			<point x="1026" y="410"/>
		</contour>
	</outline>
</glyph>
<glyph name="exclamdown" format="2">
	<unicode hex="00A1"/>
	<advance width="725"/>
	<outline>
		<contour>
			<point x="-156" y="-281" type="line" smooth="yes"/>
			<point x="-183" y="-356"/>
			<point x="-167" y="-398"/>
			<point x="82" y="-398" type="curve" smooth="yes"/>
			<point x="329" y="-398"/>
			<point x="372" y="-356"/>
			<point x="391" y="-281" type="curve" smooth="yes"/>
			<point x="413" y="-195" type="line" smooth="yes"/>
			<point x="445" y="-67"/>
			<point x="417" y="147"/>
			<point x="487" y="479" type="curve"/>
			<point x="213" y="479" type="line"/>
			<point x="80" y="147"/>
			<point x="-79" y="-67"/>
			<point x="-125" y="-195" type="curve" smooth="yes"/>
		</contour>
		<contour>
			<point x="395" y="626" type="curve" smooth="yes"/>
			<point x="629" y="626"/>
			<point x="718" y="754"/>
			<point x="718" y="904" type="curve" smooth="yes"/>
			<point x="718" y="1005"/>
			<point x="655" y="1064"/>
			<point x="529" y="1064" type="curve" smooth="yes"/>
			<point x="295" y="1064"/>
			<point x="206" y="936"/>
			<point x="206" y="786" type="curve" smooth="yes"/>
			<point x="206" y="685"/>
			<point x="269" y="626"/>
		</contour>
	</outline>
</glyph>
<glyph name="currency" format="2">
	<unicode hex="00A4"/>
	<advance width="1209"/>
	<outline>
		<contour>
			<point x="200" y="874" type="line"/>
			<point x="340" y="658" type="line"/>
			<point x="561" y="806" type="line"/>
			<point x="423" y="1018" type="line"/>
		</contour>
		<contour>
			<point x="1011" y="967" type="line"/>
			<point x="797" y="803" type="line"/>
			<point x="950" y="610" type="line"/>
			<point x="1143" y="758" type="line"/>
		</contour>
		<contour>
			<point x="1006" y="170" type="line"/>
			<point x="866" y="386" type="line"/>
			<point x="645" y="238" type="line"/>
			<point x="783" y="26" type="line"/>
		</contour>
		<contour>
			<point x="63" y="286" type="line"/>
			<point x="195" y="77" type="line"/>
			<point x="409" y="241" type="line"/>
			<point x="256" y="434" type="line"/>
		</contour>
		<contour>
			<point x="682" y="922" type="curve" smooth="yes"/>
			<point x="352" y="922"/>
			<point x="179" y="711"/>
			<point x="179" y="442" type="curve" smooth="yes"/>
			<point x="179" y="250"/>
			<point x="311" y="122"/>
			<point x="524" y="122" type="curve" smooth="yes"/>
			<point x="854" y="122"/>
			<point x="1027" y="333"/>
			<point x="1027" y="602" type="curve" smooth="yes"/>
			<point x="1027" y="794"/>
			<point x="895" y="922"/>
		</contour>
		<contour>
			<point x="565" y="333" type="curve" smooth="yes"/>
			<point x="468" y="333"/>
			<point x="414" y="391"/>
			<point x="414" y="480" type="curve" smooth="yes"/>
			<point x="414" y="607"/>
			<point x="488" y="711"/>
			<point x="641" y="711" type="curve" smooth="yes"/>
			<point x="738" y="711"/>
			<point x="792" y="653"/>
			<point x="792" y="564" type="curve" smooth="yes"/>
			<point x="792" y="437"/>
			<point x="718" y="333"/>
		</contour>
	</outline>
</glyph>
<glyph name="brokenbar" format="2">
	<unicode hex="00A6"/>
	<advance width="675"/>
	<outline>
		<contour>
			<point x="550" y="725" type="line"/>
			<point x="798" y="1535" type="line"/>
			<point x="498" y="1535" type="line"/>
			<point x="250" y="725" type="line"/>
		</contour>
		<contour>
			<point x="-113" y="-465" type="line"/>
			<point x="187" y="-465" type="line"/>
			<point x="435" y="345" type="line"/>
			<point x="135" y="345" type="line"/>
		</contour>
	</outline>
</glyph>
<glyph name="section" format="2">
	<unicode hex="00A7"/>
	<advance width="1496"/>
	<outline>
		<contour>
			<point x="797" y="730" type="curve"/>
			<point x="588" y="769" type="line"/>
			<point x="251" y="768"/>
			<point x="80" y="649"/>
			<point x="80" y="439" type="curve" smooth="yes"/>
			<point x="80" y="61"/>
			<point x="753" y="220"/>
			<point x="753" y="60" type="curve" smooth="yes"/>
			<point x="753" y="13"/>
			<point x="713" y="-32"/>
			<point x="539" y="-32" type="curve" smooth="yes"/>
			<point x="286" y="-32"/>
			<point x="225" y="106"/>
			<point x="197" y="106" type="curve" smooth="yes"/>
			<point x="92" y="106"/>
			<point x="20" y="44"/>
			<point x="20" y="-55" type="curve" smooth="yes"/>
			<point x="20" y="-165"/>
			<point x="128" y="-247"/>
			<point x="490" y="-247" type="curve" smooth="yes"/>
			<point x="996" y="-247"/>
			<point x="1207" y="-45"/>
			<point x="1207" y="190" type="curve" smooth="yes"/>
			<point x="1207" y="621"/>
			<point x="537" y="433"/>
			<point x="537" y="603" type="curve" smooth="yes"/>
			<point x="537" y="660"/>
			<point x="582" y="717"/>
		</contour>
		<contour>
			<point x="1007" y="594" type="curve" smooth="yes"/>
			<point x="1007" y="537"/>
			<point x="962" y="480"/>
			<point x="747" y="467" type="curve"/>
			<point x="956" y="428" type="line"/>
			<point x="1293" y="429"/>
			<point x="1464" y="548"/>
			<point x="1464" y="758" type="curve" smooth="yes"/>
			<point x="1464" y="1136"/>
			<point x="791" y="977"/>
			<point x="791" y="1137" type="curve" smooth="yes"/>
			<point x="791" y="1184"/>
			<point x="831" y="1229"/>
			<point x="1005" y="1229" type="curve" smooth="yes"/>
			<point x="1258" y="1229"/>
			<point x="1319" y="1091"/>
			<point x="1347" y="1091" type="curve" smooth="yes"/>
			<point x="1452" y="1091"/>
			<point x="1524" y="1153"/>
			<point x="1524" y="1252" type="curve" smooth="yes"/>
			<point x="1524" y="1362"/>
			<point x="1416" y="1444"/>
			<point x="1054" y="1444" type="curve" smooth="yes"/>
			<point x="548" y="1444"/>
			<point x="337" y="1242"/>
			<point x="337" y="1007" type="curve" smooth="yes"/>
			<point x="337" y="576"/>
			<point x="1007" y="764"/>
		</contour>
	</outline>
</glyph>
<glyph name="copyright" format="2">
	<unicode hex="00A9"/>
	<advance width="1784"/>
	<outline>
		<contour>
			<point x="996" y="466" type="curve" smooth="yes"/>
			<point x="868" y="466"/>
			<point x="809" y="502"/>
			<point x="809" y="605" type="curve" smooth="yes"/>
			<point x="809" y="773"/>
			<point x="895" y="947"/>
			<point x="1077" y="947" type="curve" smooth="yes"/>
			<point x="1156" y="947"/>
			<point x="1208" y="932"/>
			<point x="1261" y="894" type="curve"/>
			<point x="1190" y="1014" type="line"/>
			<point x="1207" y="797" type="line"/>
			<point x="1323" y="797" type="line"/>
			<point x="1428" y="1140" type="line"/>
			<point x="1338" y="1140" type="line"/>
			<point x="1238" y="1062" type="line"/>
			<point x="1321" y="1090" type="line"/>
			<point x="1248" y="1112"/>
			<point x="1165" y="1123"/>
			<point x="1089" y="1123" type="curve" smooth="yes"/>
			<point x="663" y="1123"/>
			<point x="491" y="869"/>
			<point x="491" y="590" type="curve" smooth="yes"/>
			<point x="491" y="399"/>
			<point x="612" y="301"/>
			<point x="883" y="301" type="curve" smooth="yes"/>
			<point x="994" y="301"/>
			<point x="1078" y="314"/>
			<point x="1183" y="345" type="curve"/>
			<point x="1294" y="608" type="line"/>
			<point x="1187" y="608" type="line"/>
			<point x="1017" y="388" type="line"/>
			<point x="1169" y="498" type="line"/>
			<point x="1108" y="477"/>
			<point x="1046" y="466"/>
		</contour>
		<contour>
			<point x="865" y="88" type="curve" smooth="yes"/>
			<point x="510" y="88"/>
			<point x="307" y="252"/>
			<point x="307" y="540" type="curve" smooth="yes"/>
			<point x="307" y="971"/>
			<point x="558" y="1326"/>
			<point x="1034" y="1326" type="curve" smooth="yes"/>
			<point x="1389" y="1326"/>
			<point x="1592" y="1162"/>
			<point x="1592" y="874" type="curve" smooth="yes"/>
			<point x="1592" y="443"/>
			<point x="1341" y="88"/>
		</contour>
		<contour>
			<point x="1037" y="1444" type="curve" smooth="yes"/>
			<point x="467" y="1444"/>
			<point x="169" y="1017"/>
			<point x="169" y="520" type="curve" smooth="yes"/>
			<point x="169" y="161"/>
			<point x="438" y="-30"/>
			<point x="862" y="-30" type="curve" smooth="yes"/>
			<point x="1432" y="-30"/>
			<point x="1730" y="397"/>
			<point x="1730" y="894" type="curve" smooth="yes"/>
			<point x="1730" y="1253"/>
			<point x="1461" y="1444"/>
		</contour>
	</outline>
</glyph>
<glyph name="ordfeminine" format="2">
	<unicode hex="00AA"/>
	<advance width="1157"/>
	<outline>
		<contour>
			<point x="150" y="412" type="line"/>
			<point x="982" y="412" type="line"/>
			<point x="1043" y="612" type="line"/>
			<point x="212" y="612" type="line"/>
		</contour>
		<contour>
			<point x="745" y="872" type="line" smooth="yes"/>
			<point x="706" y="756"/>
			<point x="750" y="729"/>
			<point x="850" y="729" type="curve" smooth="yes"/>
			<point x="955" y="729"/>
			<point x="1032" y="752"/>
			<point x="1190" y="856" type="curve"/>
			<point x="1164" y="929" type="line"/>
			<point x="1070" y="896"/>
			<point x="1015" y="891"/>
			<point x="893" y="898" type="curve"/>
			<point x="997" y="796" type="line"/>
			<point x="1207" y="1414" type="line"/>
			<point x="935" y="1414" type="line"/>
			<point x="845" y="1288" type="line"/>
			<point x="802" y="1187" type="line" smooth="yes"/>
			<point x="742" y="1046"/>
			<point x="656" y="924"/>
			<point x="609" y="924" type="curve" smooth="yes"/>
			<point x="578" y="924"/>
			<point x="568" y="937"/>
			<point x="568" y="965" type="curve" smooth="yes"/>
			<point x="568" y="1073"/>
			<point x="694" y="1281"/>
			<point x="771" y="1281" type="curve" smooth="yes"/>
			<point x="801" y="1281"/>
			<point x="825" y="1270"/>
			<point x="849" y="1207" type="curve"/>
			<point x="867" y="1239" type="line"/>
			<point x="837" y="1371"/>
			<point x="781" y="1433"/>
			<point x="686" y="1433" type="curve" smooth="yes"/>
			<point x="467" y="1433"/>
			<point x="240" y="1164"/>
			<point x="240" y="920" type="curve" smooth="yes"/>
			<point x="240" y="786"/>
			<point x="330" y="729"/>
			<point x="436" y="729" type="curve" smooth="yes"/>
			<point x="547" y="729"/>
			<point x="632" y="770"/>
			<point x="778" y="1028" type="curve"/>
			<point x="798" y="1028" type="line"/>
		</contour>
	</outline>
</glyph>
<glyph name="guillemotleft" format="2">
	<unicode hex="00AB"/>
	<advance width="1460"/>
	<outline>
		<contour>
			<point x="458" y="546" type="line"/>
			<point x="421" y="426" type="line"/>
			<point x="846" y="877" type="line"/>
			<point x="692" y="1074" type="line"/>
			<point x="123" y="662" type="line"/>
			<point x="37" y="382" type="line"/>
			<point x="384" y="-30" type="line"/>
			<point x="610" y="87" type="line"/>
		</contour>
		<contour>
			<point x="1104" y="546" type="line"/>
			<point x="1067" y="426" type="line"/>
			<point x="1492" y="877" type="line"/>
			<point x="1338" y="1074" type="line"/>
			<point x="769" y="662" type="line"/>
			<point x="683" y="382" type="line"/>
			<point x="1030" y="-30" type="line"/>
			<point x="1256" y="87" type="line"/>
		</contour>
	</outline>
</glyph>
<glyph name="logicalnot" format="2">
	<unicode hex="00AC"/>
	<advance width="1200"/>
	<outline>
		<contour>
			<point x="236" y="847" type="line"/>
			<point x="154" y="579" type="line"/>
			<point x="802" y="579" type="line"/>
			<point x="685" y="197" type="line"/>
			<point x="940" y="197" type="line"/>
			<point x="1138" y="847" type="line"/>
		</contour>
	</outline>
</glyph>
<glyph name="registered" format="2">
	<unicode hex="00AE"/>
	<advance width="1347"/>
	<outline>
		<contour>
			<point x="1049" y="800" type="line"/>
			<point x="1013" y="800"/>
			<point x="1007" y="805"/>
			<point x="1014" y="843" type="curve" smooth="yes"/>
			<point x="1022" y="881" type="line" smooth="yes"/>
			<point x="1033" y="936"/>
			<point x="1010" y="957"/>
			<point x="935" y="961" type="curve"/>
			<point x="935" y="960" type="line"/>
			<point x="1045" y="964"/>
			<point x="1110" y="1020"/>
			<point x="1110" y="1104" type="curve" smooth="yes"/>
			<point x="1110" y="1174"/>
			<point x="1060" y="1205"/>
			<point x="969" y="1205" type="curve" smooth="yes"/>
			<point x="762" y="1205" type="line"/>
			<point x="732" y="1106" type="line"/>
			<point x="901" y="1106" type="line" smooth="yes"/>
			<point x="924" y="1106"/>
			<point x="933" y="1097"/>
			<point x="933" y="1075" type="curve" smooth="yes"/>
			<point x="933" y="1035"/>
			<point x="914" y="999"/>
			<point x="864" y="999" type="curve" smooth="yes"/>
			<point x="699" y="999" type="line"/>
			<point x="677" y="926" type="line"/>
			<point x="791" y="926" type="line" smooth="yes"/>
			<point x="839" y="926"/>
			<point x="844" y="919"/>
			<point x="839" y="875" type="curve" smooth="yes"/>
			<point x="827" y="802" type="line" smooth="yes"/>
			<point x="815" y="736"/>
			<point x="855" y="723"/>
			<point x="1030" y="738" type="curve"/>
		</contour>
		<contour>
			<point x="855" y="1205" type="line"/>
			<point x="623" y="1205" type="line"/>
			<point x="609" y="1160" type="line"/>
			<point x="660" y="1145" type="line"/>
			<point x="555" y="799" type="line"/>
			<point x="493" y="782" type="line"/>
			<point x="480" y="738" type="line"/>
			<point x="749" y="738" type="line"/>
			<point x="762" y="782" type="line"/>
			<point x="731" y="799" type="line"/>
		</contour>
		<contour>
			<point x="751" y="572" type="curve" smooth="yes"/>
			<point x="518" y="572"/>
			<point x="385" y="673"/>
			<point x="385" y="851" type="curve" smooth="yes"/>
			<point x="385" y="1116"/>
			<point x="550" y="1336"/>
			<point x="861" y="1336" type="curve" smooth="yes"/>
			<point x="1094" y="1336"/>
			<point x="1227" y="1234"/>
			<point x="1227" y="1057" type="curve" smooth="yes"/>
			<point x="1227" y="791"/>
			<point x="1062" y="572"/>
		</contour>
		<contour>
			<point x="868" y="1444" type="curve" smooth="yes"/>
			<point x="461" y="1444"/>
			<point x="249" y="1160"/>
			<point x="249" y="830" type="curve" smooth="yes"/>
			<point x="249" y="591"/>
			<point x="441" y="464"/>
			<point x="744" y="464" type="curve" smooth="yes"/>
			<point x="1150" y="464"/>
			<point x="1363" y="748"/>
			<point x="1363" y="1078" type="curve" smooth="yes"/>
			<point x="1363" y="1317"/>
			<point x="1171" y="1444"/>
		</contour>
	</outline>
</glyph>
<glyph name="degree" format="2">
	<unicode hex="00B0"/>
	<advance width="765"/>
	<outline>
		<contour>
			<point x="597" y="1434" type="curve" smooth="yes"/>
			<point x="385" y="1434"/>
			<point x="256" y="1276"/>
			<point x="256" y="1099" type="curve" smooth="yes"/>
			<point x="256" y="943"/>
			<point x="372" y="846"/>
			<point x="532" y="846" type="curve" smooth="yes"/>
			<point x="744" y="846"/>
			<point x="873" y="1004"/>
			<point x="873" y="1181" type="curve" smooth="yes"/>
			<point x="873" y="1337"/>
			<point x="757" y="1434"/>
		</contour>
		<contour>
			<point x="550" y="1003" type="curve" smooth="yes"/>
			<point x="474" y="1003"/>
			<point x="429" y="1046"/>
			<point x="429" y="1121" type="curve" smooth="yes"/>
			<point x="429" y="1205"/>
			<point x="483" y="1277"/>
			<point x="577" y="1277" type="curve" smooth="yes"/>
			<point x="655" y="1277"/>
			<point x="700" y="1234"/>
			<point x="700" y="1159" type="curve" smooth="yes"/>
			<point x="700" y="1075"/>
			<point x="646" y="1003"/>
		</contour>
	</outline>
</glyph>
<glyph name="plusminus" format="2">
  <advance width="1200"/>
  <unicode hex="00B1"/>
  <guideline x="223.0" y="707" angle="1.6453368001796354" identifier="156Rg3cQuY"/>
  <outline>
    <contour>
      <point x="635.0" y="1044.0" type="line"/>
      <point x="354.0" y="124.0" type="line"/>
      <point x="609.0" y="124.0" type="line"/>
      <point x="890.0" y="1044.0" type="line"/>
    </contour>
    <contour>
      <point x="226.0" y="718.0" type="line"/>
      <point x="144.0" y="450.0" type="line"/>
      <point x="1018.0" y="450.0" type="line"/>
      <point x="1100.0" y="718.0" type="line"/>
    </contour>
    <contour>
      <point x="89.0" y="268.0" type="line"/>
      <point x="7.0" y="0.0" type="line"/>
      <point x="881.0" y="0.0" type="line"/>
      <point x="963.0" y="268.0" type="line"/>
    </contour>
  </outline>
</glyph>
<glyph name="uni00B2" format="2">
	<unicode hex="00B2"/>
	<advance width="856"/>
	<outline>
		<contour>
			<point x="624" y="758" type="line"/>
			<point x="886" y="909" type="line"/>
			<point x="424" y="909" type="line"/>
			<point x="392" y="858" type="line"/>
			<point x="578" y="931" type="line" smooth="yes"/>
			<point x="878" y="1049"/>
			<point x="934" y="1128"/>
			<point x="934" y="1252" type="curve" smooth="yes"/>
			<point x="934" y="1378"/>
			<point x="828" y="1438"/>
			<point x="649" y="1438" type="curve" smooth="yes"/>
			<point x="451" y="1438"/>
			<point x="348" y="1365"/>
			<point x="238" y="1171" type="curve"/>
			<point x="333" y="1106" type="line"/>
			<point x="392" y="1189"/>
			<point x="438" y="1215"/>
			<point x="507" y="1215" type="curve" smooth="yes"/>
			<point x="572" y="1215"/>
			<point x="609" y="1195"/>
			<point x="609" y="1150" type="curve" smooth="yes"/>
			<point x="609" y="1091"/>
			<point x="582" y="1052"/>
			<point x="383" y="930" type="curve" smooth="yes"/>
			<point x="198" y="816" type="line"/>
			<point x="151" y="662" type="line"/>
			<point x="672" y="662" type="line"/>
			<point x="713" y="629" type="line"/>
			<point x="776" y="629" type="line"/>
			<point x="948" y="977" type="line"/>
			<point x="859" y="977" type="line"/>
		</contour>
	</outline>
</glyph>
<glyph name="uni00B3" format="2">
	<unicode hex="00B3"/>
	<advance width="813"/>
	<outline>
		<contour>
			<point x="411" y="961" type="line"/>
			<point x="479" y="961" type="line" smooth="yes"/>
			<point x="543" y="961"/>
			<point x="581" y="945"/>
			<point x="581" y="892" type="curve" smooth="yes"/>
			<point x="581" y="816"/>
			<point x="519" y="775"/>
			<point x="417" y="775" type="curve" smooth="yes"/>
			<point x="309" y="775"/>
			<point x="263" y="859"/>
			<point x="247" y="859" type="curve" smooth="yes"/>
			<point x="177" y="859"/>
			<point x="134" y="816"/>
			<point x="134" y="752" type="curve" smooth="yes"/>
			<point x="134" y="695"/>
			<point x="187" y="643"/>
			<point x="390" y="643" type="curve" smooth="yes"/>
			<point x="727" y="643"/>
			<point x="876" y="765"/>
			<point x="876" y="942" type="curve" smooth="yes"/>
			<point x="876" y="1042"/>
			<point x="802" y="1108"/>
			<point x="670" y="1108" type="curve"/>
			<point x="670" y="1102" type="line"/>
			<point x="857" y="1126"/>
			<point x="900" y="1194"/>
			<point x="900" y="1276" type="curve" smooth="yes"/>
			<point x="900" y="1363"/>
			<point x="850" y="1438"/>
			<point x="682" y="1438" type="curve" smooth="yes"/>
			<point x="465" y="1438"/>
			<point x="350" y="1355"/>
			<point x="268" y="1194" type="curve"/>
			<point x="363" y="1137" type="line"/>
			<point x="404" y="1209"/>
			<point x="457" y="1247"/>
			<point x="525" y="1247" type="curve" smooth="yes"/>
			<point x="584" y="1247"/>
			<point x="614" y="1226"/>
			<point x="614" y="1175" type="curve" smooth="yes"/>
			<point x="614" y="1118"/>
			<point x="585" y="1085"/>
			<point x="411" y="1073" type="curve"/>
		</contour>
	</outline>
</glyph>
<glyph name="uni00B5" format="2">
  <advance width="1635"/>
  <unicode hex="00B5"/>
  <outline>
    <contour>
      <point x="974.0" y="871.0" type="line" smooth="yes"/>
      <point x="817.0" y="404.0"/>
      <point x="738.0" y="286.0"/>
      <point x="636.0" y="286.0" type="curve" smooth="yes"/>
      <point x="603.0" y="286.0"/>
      <point x="591.0" y="298.0"/>
      <point x="591.0" y="329.0" type="curve" smooth="yes"/>
      <point x="591.0" y="358.0"/>
      <point x="602.0" y="401.0"/>
      <point x="645.0" y="523.0" type="curve" smooth="yes"/>
      <point x="828.0" y="1044.0" type="line"/>
      <point x="369.0" y="1044.0" type="line"/>
      <point x="-92.0" y="-462.0" type="line"/>
      <point x="-33.0" y="-462.0" type="line"/>
      <point x="265.0" y="-432.0" type="line"/>
      <point x="313.0" y="139.0" type="line"/>
      <point x="267.0" y="205.0" type="line"/>
      <point x="267.0" y="72.0"/>
      <point x="299.0" y="-30.0"/>
      <point x="480.0" y="-30.0" type="curve" smooth="yes"/>
      <point x="639.0" y="-30.0"/>
      <point x="719.0" y="29.0"/>
      <point x="919.0" y="468.0" type="curve"/>
      <point x="958.0" y="468.0" type="line"/>
      <point x="853.0" y="169.0" type="line" smooth="yes"/>
      <point x="802.0" y="25.0"/>
      <point x="856.0" y="-30.0"/>
      <point x="976.0" y="-30.0" type="curve" smooth="yes"/>
      <point x="1106.0" y="-30.0"/>
      <point x="1318.0" y="40.0"/>
      <point x="1552.0" y="238.0" type="curve"/>
      <point x="1489.0" y="336.0" type="line"/>
      <point x="1328.0" y="239.0"/>
      <point x="1225.0" y="211.0"/>
      <point x="1053.0" y="219.0" type="curve"/>
      <point x="1171.0" y="65.0" type="line"/>
      <point x="1490.0" y="1044.0" type="line"/>
      <point x="1032.0" y="1044.0" type="line"/>
    </contour>
  </outline>
</glyph>
<glyph name="paragraph" format="2">
	<unicode hex="00B6"/>
	<advance width="1426"/>
	<outline>
		<contour>
			<point x="623" y="-217" type="line"/>
			<point x="1071" y="1247" type="line"/>
			<point x="1307" y="1247" type="line"/>
			<point x="1358" y="1414" type="line"/>
			<point x="929" y="1414" type="line"/>
			<point x="430" y="-217" type="line"/>
		</contour>
		<contour>
			<point x="949" y="-217" type="line"/>
			<point x="1398" y="1250" type="line"/>
			<point x="1571" y="1297" type="line"/>
			<point x="1607" y="1414" type="line"/>
			<point x="1255" y="1414" type="line"/>
			<point x="756" y="-217" type="line"/>
		</contour>
		<contour>
			<point x="1075" y="1414" type="line"/>
			<point x="776" y="1414" type="line" smooth="yes"/>
			<point x="367" y="1414"/>
			<point x="193" y="1146"/>
			<point x="193" y="862" type="curve" smooth="yes"/>
			<point x="193" y="668"/>
			<point x="314" y="582"/>
			<point x="552" y="582" type="curve" smooth="yes"/>
			<point x="821" y="582" type="line"/>
		</contour>
	</outline>
</glyph>
<glyph name="uni00B9" format="2">
	<unicode hex="00B9"/>
	<advance width="703"/>
	<outline>
		<contour>
			<point x="307" y="776" type="line"/>
			<point x="195" y="741" type="line"/>
			<point x="171" y="662" type="line"/>
			<point x="677" y="662" type="line"/>
			<point x="701" y="741" type="line"/>
			<point x="627" y="776" type="line"/>
			<point x="823" y="1414" type="line"/>
			<point x="591" y="1414" type="line"/>
			<point x="241" y="1259" type="line"/>
			<point x="272" y="1154" type="line"/>
			<point x="526" y="1223" type="line"/>
			<point x="484" y="1352" type="line"/>
		</contour>
	</outline>
</glyph>
<glyph name="ordmasculine" format="2">
	<unicode hex="00BA"/>
	<advance width="1095"/>
	<outline>
		<contour>
			<point x="100" y="412" type="line"/>
			<point x="932" y="412" type="line"/>
			<point x="993" y="612" type="line"/>
			<point x="162" y="612" type="line"/>
		</contour>
		<contour>
			<point x="801" y="1444" type="curve" smooth="yes"/>
			<point x="450" y="1444"/>
			<point x="289" y="1229"/>
			<point x="289" y="987" type="curve" smooth="yes"/>
			<point x="289" y="822"/>
			<point x="408" y="729"/>
			<point x="644" y="729" type="curve" smooth="yes"/>
			<point x="995" y="729"/>
			<point x="1156" y="944"/>
			<point x="1156" y="1186" type="curve" smooth="yes"/>
			<point x="1156" y="1351"/>
			<point x="1037" y="1444"/>
		</contour>
		<contour>
			<point x="687" y="926" type="curve" smooth="yes"/>
			<point x="639" y="926"/>
			<point x="607" y="949"/>
			<point x="607" y="1012" type="curve" smooth="yes"/>
			<point x="607" y="1125"/>
			<point x="665" y="1247"/>
			<point x="758" y="1247" type="curve" smooth="yes"/>
			<point x="806" y="1247"/>
			<point x="838" y="1224"/>
			<point x="838" y="1161" type="curve" smooth="yes"/>
			<point x="838" y="1048"/>
			<point x="780" y="926"/>
		</contour>
	</outline>
</glyph>
<glyph name="guillemotright" format="2">
	<unicode hex="00BB"/>
	<advance width="1489"/>
	<outline>
		<contour>
			<point x="367" y="499" type="line"/>
			<point x="404" y="619" type="line"/>
			<point x="-21" y="168" type="line"/>
			<point x="133" y="-29" type="line"/>
			<point x="702" y="383" type="line"/>
			<point x="788" y="663" type="line"/>
			<point x="441" y="1075" type="line"/>
			<point x="215" y="958" type="line"/>
		</contour>
		<contour>
			<point x="1013" y="499" type="line"/>
			<point x="1050" y="619" type="line"/>
			<point x="625" y="168" type="line"/>
			<point x="779" y="-29" type="line"/>
			<point x="1348" y="383" type="line"/>
			<point x="1434" y="663" type="line"/>
			<point x="1087" y="1075" type="line"/>
			<point x="861" y="958" type="line"/>
		</contour>
	</outline>
</glyph>
<glyph name="questiondown" format="2">
  <advance width="1489"/>
  <unicode hex="00BF"/>
  <outline>
    <contour>
      <point x="799.0" y="626.0" type="curve" smooth="yes"/>
      <point x="1033.0" y="626.0"/>
      <point x="1122.0" y="754.0"/>
      <point x="1122.0" y="904.0" type="curve" smooth="yes"/>
      <point x="1122.0" y="1005.0"/>
      <point x="1059.0" y="1064.0"/>
      <point x="933.0" y="1064.0" type="curve" smooth="yes"/>
      <point x="699.0" y="1064.0"/>
      <point x="610.0" y="936.0"/>
      <point x="610.0" y="786.0" type="curve" smooth="yes"/>
      <point x="610.0" y="685.0"/>
      <point x="673.0" y="626.0"/>
    </contour>
    <contour>
      <point x="644.0" y="-410.0" type="curve" smooth="yes"/>
      <point x="1074.0" y="-410.0"/>
      <point x="1230.0" y="-297.0"/>
      <point x="1230.0" y="-124.0" type="curve" smooth="yes"/>
      <point x="1230.0" y="-18.0"/>
      <point x="1153.0" y="57.0"/>
      <point x="1039.0" y="57.0" type="curve" smooth="yes"/>
      <point x="1001.0" y="57.0"/>
      <point x="906.0" y="-139.0"/>
      <point x="660.0" y="-139.0" type="curve" smooth="yes"/>
      <point x="506.0" y="-139.0"/>
      <point x="434.0" y="-80.0"/>
      <point x="434.0" y="26.0" type="curve" smooth="yes"/>
      <point x="434.0" y="147.0"/>
      <point x="517.0" y="199.0"/>
      <point x="848.0" y="176.0" type="curve"/>
      <point x="924.0" y="510.0" type="line"/>
      <point x="614.0" y="510.0" type="line"/>
      <point x="483.0" y="316.0" type="line"/>
      <point x="654.0" y="404.0" type="line"/>
      <point x="144.0" y="445.0"/>
      <point x="-50.0" y="294.0"/>
      <point x="-50.0" y="36.0" type="curve" smooth="yes"/>
      <point x="-50.0" y="-186.0"/>
      <point x="133.0" y="-410.0"/>
    </contour>
  </outline>
</glyph>
<glyph name="AE" format="2">
	<unicode hex="00C6"/>
	<advance width="2514"/>
	<outline>
		<contour>
			<point x="320" y="162" type="line"/>
			<point x="1340" y="1212" type="line"/>
			<point x="1328" y="1219" type="line"/>
			<point x="1002" y="169" type="line"/>
			<point x="834" y="108" type="line"/>
			<point x="801" y="0" type="line"/>
			<point x="1463" y="0" type="line"/>
			<point x="1900" y="1414" type="line"/>
			<point x="856" y="1414" type="line"/>
			<point x="824" y="1306" type="line"/>
			<point x="1044" y="1224" type="line"/>
			<point x="10" y="162" type="line"/>
			<point x="-143" y="108" type="line"/>
			<point x="-178" y="0" type="line"/>
			<point x="431" y="0" type="line"/>
			<point x="465" y="108" type="line"/>
		</contour>
		<contour>
			<point x="1979" y="-103" type="line"/>
			<point x="2136" y="-103" type="line"/>
			<point x="2464" y="493" type="line"/>
			<point x="2269" y="493" type="line"/>
			<point x="1856" y="92" type="line"/>
			<point x="2105" y="234" type="line"/>
			<point x="1293" y="234" type="line"/>
			<point x="1225" y="0" type="line"/>
			<point x="1945" y="0" type="line"/>
		</contour>
		<contour>
			<point x="518" y="408" type="line"/>
			<point x="1263" y="408" type="line"/>
			<point x="1340" y="631" type="line"/>
			<point x="595" y="631" type="line"/>
		</contour>
		<contour>
			<point x="1850" y="480" type="line"/>
			<point x="2022" y="480" type="line"/>
			<point x="2100" y="735" type="line"/>
			<point x="2178" y="990" type="line"/>
			<point x="2006" y="990" type="line"/>
			<point x="1943" y="839" type="line"/>
			<point x="1482" y="839" type="line"/>
			<point x="1419" y="635" type="line"/>
			<point x="1882" y="635" type="line"/>
		</contour>
		<contour>
			<point x="2324" y="991" type="line"/>
			<point x="2518" y="991" type="line"/>
			<point x="2641" y="1512" type="line"/>
			<point x="2506" y="1512" type="line"/>
			<point x="2370" y="1414" type="line"/>
			<point x="1657" y="1414" type="line"/>
			<point x="1591" y="1180" type="line"/>
			<point x="2376" y="1180" type="line"/>
			<point x="2324" y="1329" type="line"/>
		</contour>
	</outline>
	<anchor name="UCtop" x="1644" y="1414"/>
	<anchor name="bottom" x="1211" y="0"/>
</glyph>
<glyph name="Ccedilla" format="2">
  <advance width="1605"/>
  <unicode hex="00C7"/>
  <outline>
    <contour>
      <point x="1245.0" y="252.0" type="line"/>
      <point x="1157.0" y="226.0"/>
      <point x="1060.0" y="211.0"/>
      <point x="1008.0" y="211.0" type="curve" smooth="yes"/>
      <point x="771.0" y="211.0"/>
      <point x="641.0" y="316.0"/>
      <point x="641.0" y="579.0" type="curve" smooth="yes"/>
      <point x="641.0" y="961.0"/>
      <point x="815.0" y="1182.0"/>
      <point x="1187.0" y="1182.0" type="curve" smooth="yes"/>
      <point x="1278.0" y="1182.0"/>
      <point x="1365.0" y="1160.0"/>
      <point x="1415.0" y="1121.0" type="curve"/>
      <point x="1297.0" y="1340.0" type="line"/>
      <point x="1374.0" y="896.0" type="line"/>
      <point x="1585.0" y="896.0" type="line"/>
      <point x="1644.0" y="1512.0" type="line"/>
      <point x="1494.0" y="1512.0" type="line"/>
      <point x="1323.0" y="1360.0" type="line"/>
      <point x="1592.0" y="1375.0" type="line"/>
      <point x="1477.0" y="1419.0"/>
      <point x="1354.0" y="1444.0"/>
      <point x="1193.0" y="1444.0" type="curve" smooth="yes"/>
      <point x="456.0" y="1444.0"/>
      <point x="148.0" y="1063.0"/>
      <point x="148.0" y="564.0" type="curve" smooth="yes"/>
      <point x="148.0" y="226.0"/>
      <point x="349.0" y="-30.0"/>
      <point x="852.0" y="-30.0" type="curve" smooth="yes"/>
      <point x="1069.0" y="-30.0"/>
      <point x="1210.0" y="-5.0"/>
      <point x="1343.0" y="28.0" type="curve"/>
      <point x="1542.0" y="505.0" type="line"/>
      <point x="1342.0" y="505.0" type="line"/>
      <point x="998.0" y="91.0" type="line"/>
    </contour>
    <contour>
      <point x="632.0" y="-356.0" type="curve" smooth="yes"/>
      <point x="564.0" y="-356.0"/>
      <point x="510.0" y="-312.0"/>
      <point x="486.0" y="-312.0" type="curve" smooth="yes"/>
      <point x="452.0" y="-312.0"/>
      <point x="425.0" y="-344.0"/>
      <point x="425.0" y="-387.0" type="curve" smooth="yes"/>
      <point x="425.0" y="-443.0"/>
      <point x="467.0" y="-465.0"/>
      <point x="585.0" y="-465.0" type="curve" smooth="yes"/>
      <point x="871.0" y="-465.0"/>
      <point x="964.0" y="-368.0"/>
      <point x="964.0" y="-226.0" type="curve" smooth="yes"/>
      <point x="964.0" y="-147.0"/>
      <point x="909.0" y="-87.0"/>
      <point x="727.0" y="-65.0" type="curve"/>
      <point x="695.0" y="-190.0" type="line"/>
      <point x="976.0" y="49.0" type="line"/>
      <point x="820.0" y="49.0" type="line"/>
      <point x="551.0" y="-184.0" type="line"/>
      <point x="537.0" y="-229.0" type="line"/>
      <point x="698.0" y="-240.0"/>
      <point x="734.0" y="-258.0"/>
      <point x="734.0" y="-291.0" type="curve" smooth="yes"/>
      <point x="734.0" y="-333.0"/>
      <point x="706.0" y="-356.0"/>
    </contour>
  </outline>
</glyph>
<glyph name="multiply" format="2">
	<unicode hex="00D7"/>
	<advance width="1200"/>
	<outline>
		<contour>
			<point x="90" y="286" type="line"/>
			<point x="222" y="77" type="line"/>
			<point x="1110" y="758" type="line"/>
			<point x="978" y="967" type="line"/>
		</contour>
		<contour>
			<point x="271" y="823" type="line"/>
			<point x="706" y="77" type="line"/>
			<point x="933" y="213" type="line"/>
			<point x="494" y="967" type="line"/>
		</contour>
	</outline>
</glyph>
<glyph name="Oslash" format="2">
	<unicode hex="00D8"/>
	<advance width="1821"/>
	<outline>
		<contour>
			<point x="2028" y="1414" type="line"/>
			<point x="1689" y="1414" type="line"/>
			<point x="1477" y="1246" type="line"/>
			<point x="1364" y="1168" type="line"/>
			<point x="468" y="417" type="line"/>
			<point x="324" y="330" type="line"/>
			<point x="-92" y="0" type="line"/>
			<point x="247" y="0" type="line"/>
			<point x="459" y="168" type="line"/>
			<point x="572" y="246" type="line"/>
			<point x="1468" y="997" type="line"/>
			<point x="1612" y="1084" type="line"/>
		</contour>
		<contour>
			<point x="632" y="487" type="curve" smooth="yes"/>
			<point x="632" y="824"/>
			<point x="775" y="1174"/>
			<point x="1075" y="1174" type="curve" smooth="yes"/>
			<point x="1227" y="1174"/>
			<point x="1304" y="1100"/>
			<point x="1304" y="927" type="curve" smooth="yes"/>
			<point x="1304" y="590"/>
			<point x="1161" y="240"/>
			<point x="861" y="240" type="curve" smooth="yes"/>
			<point x="709" y="240"/>
			<point x="632" y="314"/>
		</contour>
		<contour>
			<point x="1782" y="874" type="curve" smooth="yes"/>
			<point x="1782" y="1242"/>
			<point x="1563" y="1444"/>
			<point x="1088" y="1444" type="curve" smooth="yes"/>
			<point x="487" y="1444"/>
			<point x="154" y="1063"/>
			<point x="154" y="540" type="curve" smooth="yes"/>
			<point x="154" y="172"/>
			<point x="373" y="-30"/>
			<point x="848" y="-30" type="curve" smooth="yes"/>
			<point x="1449" y="-30"/>
			<point x="1782" y="351"/>
		</contour>
	</outline>
	<anchor name="UCtop" x="1115" y="1414"/>
	<anchor name="bottom" x="792" y="0"/>
</glyph>
<glyph name="Thorn" format="2">
	<unicode hex="00DE"/>
	<advance width="1636"/>
	<outline>
		<contour>
			<point x="933" y="494" type="curve" smooth="yes"/>
			<point x="522" y="494" type="line"/>
			<point x="394" y="260" type="line"/>
			<point x="990" y="260" type="line" smooth="yes"/>
			<point x="1442" y="260"/>
			<point x="1624" y="542"/>
			<point x="1624" y="818" type="curve" smooth="yes"/>
			<point x="1624" y="1042"/>
			<point x="1491" y="1174"/>
			<point x="1096" y="1174" type="curve" smooth="yes"/>
			<point x="685" y="1174" type="line"/>
			<point x="690" y="940" type="line"/>
			<point x="976" y="940" type="line" smooth="yes"/>
			<point x="1098" y="940"/>
			<point x="1150" y="905"/>
			<point x="1150" y="821" type="curve" smooth="yes"/>
			<point x="1150" y="688"/>
			<point x="1087" y="494"/>
		</contour>
		<contour>
			<point x="476" y="1249" type="line"/>
			<point x="140" y="169" type="line"/>
			<point x="-28" y="108" type="line"/>
			<point x="-61" y="0" type="line"/>
			<point x="773" y="0" type="line"/>
			<point x="804" y="108" type="line"/>
			<point x="651" y="165" type="line"/>
			<point x="987" y="1245" type="line"/>
			<point x="1155" y="1306" type="line"/>
			<point x="1186" y="1414" type="line"/>
			<point x="354" y="1414" type="line"/>
			<point x="322" y="1306" type="line"/>
		</contour>
	</outline>
</glyph>
<glyph name="germandbls" format="2">
	<unicode hex="00DF"/>
	<advance width="1792"/>
	<outline>
		<contour>
			<point x="129" y="862" type="line"/>
			<point x="592" y="862" type="line"/>
			<point x="592" y="1044" type="line"/>
			<point x="129" y="1044" type="line"/>
		</contour>
		<contour>
			<point x="728" y="419" type="curve" smooth="yes"/>
			<point x="886" y="1110" type="line" smooth="yes"/>
			<point x="920" y="1258"/>
			<point x="957" y="1302"/>
			<point x="1092" y="1302" type="curve" smooth="yes"/>
			<point x="1218" y="1302"/>
			<point x="1261" y="1260"/>
			<point x="1261" y="1198" type="curve" smooth="yes"/>
			<point x="1261" y="1106"/>
			<point x="1222" y="1043"/>
			<point x="1106" y="959" type="curve" smooth="yes"/>
			<point x="983" y="870"/>
			<point x="942" y="794"/>
			<point x="942" y="694" type="curve" smooth="yes"/>
			<point x="942" y="601"/>
			<point x="989" y="526"/>
			<point x="1113" y="454" type="curve" smooth="yes"/>
			<point x="1237" y="382"/>
			<point x="1281" y="328"/>
			<point x="1281" y="264" type="curve" smooth="yes"/>
			<point x="1281" y="160"/>
			<point x="1245" y="132"/>
			<point x="1160" y="132" type="curve" smooth="yes"/>
			<point x="1117" y="132"/>
			<point x="1084" y="139"/>
			<point x="1061" y="165" type="curve" smooth="yes"/>
			<point x="1038" y="191"/>
			<point x="1022" y="242"/>
			<point x="1019" y="326" type="curve"/>
			<point x="794" y="326"/>
			<point x="745" y="282"/>
			<point x="745" y="175" type="curve" smooth="yes"/>
			<point x="745" y="54"/>
			<point x="840" y="-30"/>
			<point x="1117" y="-30" type="curve" smooth="yes"/>
			<point x="1500" y="-30"/>
			<point x="1663" y="118"/>
			<point x="1663" y="380" type="curve" smooth="yes"/>
			<point x="1663" y="505"/>
			<point x="1595" y="609"/>
			<point x="1474" y="688" type="curve" smooth="yes"/>
			<point x="1353" y="767"/>
			<point x="1313" y="811"/>
			<point x="1313" y="850" type="curve" smooth="yes"/>
			<point x="1313" y="904"/>
			<point x="1337" y="934"/>
			<point x="1474" y="990" type="curve" smooth="yes"/>
			<point x="1611" y="1046"/>
			<point x="1661" y="1113"/>
			<point x="1661" y="1221" type="curve" smooth="yes"/>
			<point x="1661" y="1378"/>
			<point x="1541" y="1494"/>
			<point x="1191" y="1494" type="curve" smooth="yes"/>
			<point x="760" y="1494"/>
			<point x="473" y="1332"/>
			<point x="410" y="975" type="curve" smooth="yes"/>
			<point x="212" y="-143" type="line" smooth="yes"/>
			<point x="193" y="-248"/>
			<point x="149" y="-284"/>
			<point x="60" y="-284" type="curve" smooth="yes"/>
			<point x="23" y="-284"/>
			<point x="-1" y="-279"/>
			<point x="-24" y="-250" type="curve" smooth="yes"/>
			<point x="-47" y="-221"/>
			<point x="-54" y="-165"/>
			<point x="-57" y="-63" type="curve"/>
			<point x="-253" y="-63"/>
			<point x="-338" y="-122"/>
			<point x="-338" y="-241" type="curve" smooth="yes"/>
			<point x="-338" y="-390"/>
			<point x="-264" y="-465"/>
			<point x="-31" y="-465" type="curve" smooth="yes"/>
			<point x="291" y="-465"/>
			<point x="580" y="-230"/>
		</contour>
	</outline>
</glyph>
<glyph name="ae" format="2">
  <advance width="2094"/>
  <unicode hex="00E6"/>
  <guideline x="1379.0" y="1044" angle="178.46589833083902" identifier="BZGTuQaY5t"/>
  <anchor x="1246.0" y="1044.0" name="top"/>
  <anchor x="856.0" y="0" name="bottom"/>
  <outline>
    <contour>
      <point x="1323.0" y="859.0" type="line"/>
      <point x="1379.0" y="1044.0" type="line"/>
      <point x="1135.0" y="1044.0" type="line"/>
      <point x="987.0" y="847.0" type="line"/>
      <point x="917.0" y="688.0" type="line" smooth="yes"/>
      <point x="832.0" y="495.0"/>
      <point x="673.0" y="237.0"/>
      <point x="563.0" y="237.0" type="curve" smooth="yes"/>
      <point x="512.0" y="237.0"/>
      <point x="486.0" y="259.0"/>
      <point x="486.0" y="307.0" type="curve" smooth="yes"/>
      <point x="486.0" y="488.0"/>
      <point x="720.0" y="839.0"/>
      <point x="862.0" y="839.0" type="curve" smooth="yes"/>
      <point x="916.0" y="839.0"/>
      <point x="956.0" y="818.0"/>
      <point x="994.0" y="719.0" type="curve"/>
      <point x="1024.0" y="770.0" type="line"/>
      <point x="974.0" y="977.0"/>
      <point x="884.0" y="1074.0"/>
      <point x="729.0" y="1074.0" type="curve" smooth="yes"/>
      <point x="402.0" y="1074.0"/>
      <point x="29.0" y="651.0"/>
      <point x="29.0" y="269.0" type="curve" smooth="yes"/>
      <point x="29.0" y="63.0"/>
      <point x="185.0" y="-30.0"/>
      <point x="335.0" y="-30.0" type="curve" smooth="yes"/>
      <point x="515.0" y="-30.0"/>
      <point x="639.0" y="35.0"/>
      <point x="878.0" y="438.0" type="curve"/>
      <point x="912.0" y="438.0" type="line"/>
      <point x="897.0" y="156.0"/>
      <point x="1049.0" y="-30.0"/>
      <point x="1359.0" y="-30.0" type="curve" smooth="yes"/>
      <point x="1631.0" y="-30.0"/>
      <point x="1837.0" y="81.0"/>
      <point x="1981.0" y="402.0" type="curve"/>
      <point x="1872.0" y="402.0" type="line"/>
      <point x="1784.0" y="291.0"/>
      <point x="1683.0" y="251.0"/>
      <point x="1554.0" y="251.0" type="curve" smooth="yes"/>
      <point x="1388.0" y="251.0"/>
      <point x="1345.0" y="308.0"/>
      <point x="1345.0" y="482.0" type="curve" smooth="yes"/>
      <point x="1345.0" y="791.0"/>
      <point x="1490.0" y="909.0"/>
      <point x="1628.0" y="909.0" type="curve" smooth="yes"/>
      <point x="1693.0" y="909.0"/>
      <point x="1720.0" y="877.0"/>
      <point x="1720.0" y="823.0" type="curve" smooth="yes"/>
      <point x="1720.0" y="696.0"/>
      <point x="1699.0" y="669.0"/>
      <point x="1222.0" y="567.0" type="curve"/>
      <point x="1215.0" y="459.0" type="line"/>
      <point x="1468.0" y="480.0"/>
      <point x="1758.0" y="516.0"/>
      <point x="2021.0" y="574.0" type="curve"/>
      <point x="2068.0" y="669.0"/>
      <point x="2083.0" y="745.0"/>
      <point x="2083.0" y="815.0" type="curve" smooth="yes"/>
      <point x="2083.0" y="958.0"/>
      <point x="2002.0" y="1074.0"/>
      <point x="1797.0" y="1074.0" type="curve" smooth="yes"/>
      <point x="1568.0" y="1074.0"/>
      <point x="1449.0" y="985.0"/>
      <point x="1352.0" y="859.0" type="curve"/>
    </contour>
  </outline>
</glyph>
<glyph name="ccedilla" format="2">
	<unicode hex="00E7"/>
	<advance width="1216"/>
	<outline>
		<contour>
			<point x="264" y="-465" type="curve" smooth="yes"/>
			<point x="550" y="-465"/>
			<point x="643" y="-368"/>
			<point x="643" y="-226" type="curve" smooth="yes"/>
			<point x="643" y="-147"/>
			<point x="588" y="-87"/>
			<point x="406" y="-65" type="curve"/>
			<point x="374" y="-190" type="line"/>
			<point x="655" y="49" type="line"/>
			<point x="499" y="49" type="line"/>
			<point x="230" y="-184" type="line"/>
			<point x="216" y="-229" type="line"/>
			<point x="377" y="-240"/>
			<point x="413" y="-258"/>
			<point x="413" y="-291" type="curve" smooth="yes"/>
			<point x="413" y="-333"/>
			<point x="385" y="-356"/>
			<point x="311" y="-356" type="curve" smooth="yes"/>
			<point x="243" y="-356"/>
			<point x="189" y="-312"/>
			<point x="165" y="-312" type="curve" smooth="yes"/>
			<point x="131" y="-312"/>
			<point x="104" y="-344"/>
			<point x="104" y="-387" type="curve" smooth="yes"/>
			<point x="104" y="-443"/>
			<point x="146" y="-465"/>
		</contour>
		<contour>
			<point x="784" y="910" type="curve" smooth="yes"/>
			<point x="839" y="910"/>
			<point x="884" y="854"/>
			<point x="924" y="792" type="curve" smooth="yes"/>
			<point x="964" y="730"/>
			<point x="995" y="662"/>
			<point x="1017" y="662" type="curve" smooth="yes"/>
			<point x="1127" y="662"/>
			<point x="1221" y="736"/>
			<point x="1221" y="851" type="curve" smooth="yes"/>
			<point x="1221" y="976"/>
			<point x="1117" y="1074"/>
			<point x="835" y="1074" type="curve" smooth="yes"/>
			<point x="349" y="1074"/>
			<point x="68" y="771"/>
			<point x="68" y="406" type="curve" smooth="yes"/>
			<point x="68" y="104"/>
			<point x="215" y="-30"/>
			<point x="544" y="-30" type="curve" smooth="yes"/>
			<point x="825" y="-30"/>
			<point x="1013" y="92"/>
			<point x="1131" y="436" type="curve"/>
			<point x="1025" y="436" type="line"/>
			<point x="942" y="308"/>
			<point x="854" y="251"/>
			<point x="718" y="251" type="curve" smooth="yes"/>
			<point x="563" y="251"/>
			<point x="515" y="308"/>
			<point x="515" y="482" type="curve" smooth="yes"/>
			<point x="515" y="736"/>
			<point x="614" y="910"/>
		</contour>
	</outline>
</glyph>
<glyph name="eth" format="2">
	<unicode hex="00F0"/>
	<advance width="1359"/>
	<outline>
		<contour>
			<point x="904" y="580" type="line"/>
			<point x="904" y="795"/>
			<point x="839" y="970"/>
			<point x="566" y="970" type="curve" smooth="yes"/>
			<point x="281" y="970"/>
			<point x="61" y="711"/>
			<point x="61" y="360" type="curve" smooth="yes"/>
			<point x="61" y="145"/>
			<point x="201" y="-30"/>
			<point x="564" y="-30" type="curve" smooth="yes"/>
			<point x="1078" y="-30"/>
			<point x="1312" y="378"/>
			<point x="1312" y="772" type="curve" smooth="yes"/>
			<point x="1312" y="1120"/>
			<point x="1080" y="1437"/>
			<point x="344" y="1494" type="curve"/>
			<point x="299" y="1295" type="line"/>
			<point x="952" y="1181"/>
			<point x="980" y="974"/>
			<point x="803" y="390" type="curve"/>
		</contour>
		<contour>
			<point x="600" y="225" type="curve" smooth="yes"/>
			<point x="529" y="225"/>
			<point x="500" y="254"/>
			<point x="500" y="343" type="curve" smooth="yes"/>
			<point x="500" y="498"/>
			<point x="583" y="757"/>
			<point x="740" y="757" type="curve" smooth="yes"/>
			<point x="810" y="757"/>
			<point x="839" y="728"/>
			<point x="839" y="637" type="curve" smooth="yes"/>
			<point x="839" y="483"/>
			<point x="757" y="225"/>
		</contour>
		<contour>
			<point x="545" y="1009" type="line"/>
			<point x="1189" y="1380" type="line"/>
			<point x="1125" y="1494" type="line"/>
			<point x="481" y="1123" type="line"/>
		</contour>
	</outline>
</glyph>
<glyph name="divide" format="2">
	<unicode hex="00F7"/>
	<advance width="1200"/>
	<outline>
		<contour>
			<point x="205" y="656" type="line"/>
			<point x="123" y="388" type="line"/>
			<point x="997" y="388" type="line"/>
			<point x="1079" y="656" type="line"/>
		</contour>
		<contour>
			<point x="761" y="1074" type="curve" smooth="yes"/>
			<point x="619" y="1074"/>
			<point x="535" y="967"/>
			<point x="535" y="857" type="curve" smooth="yes"/>
			<point x="535" y="781"/>
			<point x="583" y="727"/>
			<point x="673" y="727" type="curve" smooth="yes"/>
			<point x="815" y="727"/>
			<point x="899" y="834"/>
			<point x="899" y="944" type="curve" smooth="yes"/>
			<point x="899" y="1020"/>
			<point x="851" y="1074"/>
		</contour>
		<contour>
			<point x="529" y="317" type="curve" smooth="yes"/>
			<point x="387" y="317"/>
			<point x="303" y="210"/>
			<point x="303" y="100" type="curve" smooth="yes"/>
			<point x="303" y="24"/>
			<point x="351" y="-30"/>
			<point x="441" y="-30" type="curve" smooth="yes"/>
			<point x="583" y="-30"/>
			<point x="667" y="77"/>
			<point x="667" y="187" type="curve" smooth="yes"/>
			<point x="667" y="263"/>
			<point x="619" y="317"/>
		</contour>
	</outline>
</glyph>
<glyph name="oslash" format="2">
	<unicode hex="00F8"/>
	<advance width="1389"/>
	<outline>
		<contour>
			<point x="795" y="1074" type="curve" smooth="yes"/>
			<point x="319" y="1074"/>
			<point x="90" y="735"/>
			<point x="90" y="400" type="curve" smooth="yes"/>
			<point x="90" y="163"/>
			<point x="231" y="-30"/>
			<point x="597" y="-30" type="curve" smooth="yes"/>
			<point x="1073" y="-30"/>
			<point x="1302" y="309"/>
			<point x="1302" y="644" type="curve" smooth="yes"/>
			<point x="1302" y="881"/>
			<point x="1161" y="1074"/>
		</contour>
		<contour>
			<point x="625" y="229" type="curve" smooth="yes"/>
			<point x="555" y="229"/>
			<point x="525" y="261"/>
			<point x="525" y="360" type="curve" smooth="yes"/>
			<point x="525" y="530"/>
			<point x="609" y="815"/>
			<point x="767" y="815" type="curve" smooth="yes"/>
			<point x="837" y="815"/>
			<point x="867" y="783"/>
			<point x="867" y="684" type="curve" smooth="yes"/>
			<point x="867" y="514"/>
			<point x="783" y="229"/>
		</contour>
		<contour>
			<point x="1272" y="1044" type="line"/>
			<point x="1074" y="893" type="line"/>
			<point x="1004" y="877" type="line"/>
			<point x="324" y="275" type="line"/>
			<point x="245" y="260" type="line"/>
			<point x="-96" y="0" type="line"/>
			<point x="120" y="0" type="line"/>
			<point x="318" y="151" type="line"/>
			<point x="388" y="167" type="line"/>
			<point x="1068" y="769" type="line"/>
			<point x="1147" y="784" type="line"/>
			<point x="1488" y="1044" type="line"/>
		</contour>
	</outline>
	<anchor name="bottom" x="556" y="0"/>
	<anchor name="top" x="816" y="1044"/>
</glyph>
<glyph name="thorn" format="2">
	<unicode hex="00FE"/>
	<advance width="1402"/>
	<outline>
		<contour>
			<point x="527" y="332" type="curve" smooth="yes"/>
			<point x="556" y="439" type="line" smooth="yes"/>
			<point x="604" y="616"/>
			<point x="715" y="787"/>
			<point x="811" y="787" type="curve" smooth="yes"/>
			<point x="861" y="787"/>
			<point x="885" y="750"/>
			<point x="885" y="673" type="curve" smooth="yes"/>
			<point x="885" y="410"/>
			<point x="738" y="146"/>
			<point x="604" y="146" type="curve" smooth="yes"/>
			<point x="546" y="146"/>
			<point x="512" y="184"/>
			<point x="512" y="247" type="curve" smooth="yes"/>
			<point x="512" y="266"/>
			<point x="515" y="287"/>
		</contour>
		<contour>
			<point x="526" y="664" type="line"/>
			<point x="868" y="1494" type="line"/>
			<point x="803" y="1494" type="line"/>
			<point x="173" y="1390" type="line"/>
			<point x="145" y="1277" type="line"/>
			<point x="202" y="1237.3235294118"/>
			<point x="313" y="1160.0588235294"/>
			<point x="349" y="1135" type="curve"/>
			<point x="-66" y="-294" type="line"/>
			<point x="-180" y="-325" type="line"/>
			<point x="-210" y="-435" type="line"/>
			<point x="493" y="-435" type="line"/>
			<point x="526" y="-324" type="line"/>
			<point x="378" y="-293" type="line"/>
			<point x="512" y="170" type="line"/>
			<point x="297" y="170" type="line"/>
			<point x="307" y="35"/>
			<point x="443" y="-29"/>
			<point x="640" y="-29" type="curve" smooth="yes"/>
			<point x="1030" y="-29"/>
			<point x="1357" y="329"/>
			<point x="1357" y="734" type="curve" smooth="yes"/>
			<point x="1357" y="942"/>
			<point x="1254" y="1074"/>
			<point x="1043" y="1074" type="curve" smooth="yes"/>
			<point x="844" y="1074"/>
			<point x="706" y="953"/>
			<point x="564" y="664" type="curve"/>
		</contour>
	</outline>
</glyph>
<glyph name="Aogonek" format="2">
	<unicode hex="0104"/>
	<advance width="1851"/>
	<outline>
		<contour>
			<point x="367" y="388" type="line"/>
			<point x="1082" y="388" type="line"/>
			<point x="1159" y="611" type="line"/>
			<point x="444" y="611" type="line"/>
		</contour>
		<contour>
			<point x="1575" y="165" type="line"/>
			<point x="1448" y="1414" type="line"/>
			<point x="880" y="1414" type="line"/>
			<point x="59" y="162" type="line"/>
			<point x="-94" y="108" type="line"/>
			<point x="-129" y="0" type="line"/>
			<point x="450" y="0" type="line"/>
			<point x="484" y="108" type="line"/>
			<point x="339" y="162" type="line"/>
			<point x="1060" y="1284" type="line"/>
			<point x="985" y="1273" type="line"/>
			<point x="1072" y="163" type="line"/>
			<point x="904" y="108" type="line"/>
			<point x="868" y="0" type="line"/>
			<point x="1709" y="0" type="line"/>
			<point x="1744" y="108" type="line"/>
		</contour>
		<contour>
			<point x="1227" y="-242" type="curve" smooth="yes"/>
			<point x="1227" y="-198"/>
			<point x="1236" y="-164"/>
			<point x="1317" y="-58" type="curve" smooth="yes"/>
			<point x="1435" y="97" type="line"/>
			<point x="1332" y="97" type="line"/>
			<point x="1216" y="-8" type="line" smooth="yes"/>
			<point x="1042" y="-166"/>
			<point x="1010" y="-222"/>
			<point x="1010" y="-311" type="curve" smooth="yes"/>
			<point x="1010" y="-394"/>
			<point x="1058" y="-465"/>
			<point x="1182" y="-465" type="curve" smooth="yes"/>
			<point x="1248" y="-465"/>
			<point x="1318" y="-446"/>
			<point x="1426" y="-387" type="curve"/>
			<point x="1426" y="-277" type="line"/>
			<point x="1373" y="-296"/>
			<point x="1345" y="-303"/>
			<point x="1307" y="-303" type="curve" smooth="yes"/>
			<point x="1250" y="-303"/>
			<point x="1227" y="-287"/>
		</contour>
	</outline>
</glyph>
<glyph name="aogonek" format="2">
	<unicode hex="0105"/>
	<advance width="1558"/>
	<outline>
		<contour>
			<point x="1544" y="231" type="curve"/>
			<point x="1485" y="322" type="line"/>
			<point x="1342" y="228"/>
			<point x="1243" y="211"/>
			<point x="1064" y="217" type="curve"/>
			<point x="1154" y="76" type="line"/>
			<point x="1499" y="1044" type="line"/>
			<point x="1135" y="1044" type="line"/>
			<point x="987" y="847" type="line"/>
			<point x="917" y="688" type="line" smooth="yes"/>
			<point x="832" y="495"/>
			<point x="673" y="237"/>
			<point x="563" y="237" type="curve" smooth="yes"/>
			<point x="512" y="237"/>
			<point x="486" y="259"/>
			<point x="486" y="307" type="curve" smooth="yes"/>
			<point x="486" y="488"/>
			<point x="720" y="839"/>
			<point x="862" y="839" type="curve" smooth="yes"/>
			<point x="916" y="839"/>
			<point x="956" y="818"/>
			<point x="994" y="719" type="curve"/>
			<point x="1024" y="770" type="line"/>
			<point x="974" y="977"/>
			<point x="884" y="1074"/>
			<point x="729" y="1074" type="curve" smooth="yes"/>
			<point x="402" y="1074"/>
			<point x="29" y="651"/>
			<point x="29" y="269" type="curve" smooth="yes"/>
			<point x="29" y="63"/>
			<point x="185" y="-30"/>
			<point x="335" y="-30" type="curve" smooth="yes"/>
			<point x="515" y="-30"/>
			<point x="639" y="35"/>
			<point x="878" y="438" type="curve"/>
			<point x="912" y="438" type="line"/>
			<point x="798" y="161" type="line" smooth="yes"/>
			<point x="738" y="16"/>
			<point x="785" y="-30"/>
			<point x="947" y="-30" type="curve" smooth="yes"/>
			<point x="1038" y="-30"/>
			<point x="1136" y="-14"/>
			<point x="1241" y="31" type="curve"/>
			<point x="1223" y="56" type="line"/>
			<point x="1147" y="1" type="line" smooth="yes"/>
			<point x="947" y="-146"/>
			<point x="890" y="-212"/>
			<point x="890" y="-311" type="curve" smooth="yes"/>
			<point x="890" y="-394"/>
			<point x="938" y="-465"/>
			<point x="1062" y="-465" type="curve" smooth="yes"/>
			<point x="1128" y="-465"/>
			<point x="1198" y="-446"/>
			<point x="1306" y="-387" type="curve"/>
			<point x="1306" y="-277" type="line"/>
			<point x="1253" y="-296"/>
			<point x="1225" y="-303"/>
			<point x="1187" y="-303" type="curve" smooth="yes"/>
			<point x="1130" y="-303"/>
			<point x="1107" y="-287"/>
			<point x="1107" y="-242" type="curve" smooth="yes"/>
			<point x="1107" y="-198"/>
			<point x="1122" y="-153"/>
			<point x="1235" y="-53" type="curve" smooth="yes"/>
			<point x="1325" y="27" type="line" smooth="yes"/>
			<point x="1392" y="87"/>
			<point x="1471" y="161"/>
		</contour>
	</outline>
</glyph>
<glyph name="Dcroat" format="2">
	<unicode hex="0110"/>
	<advance width="1756"/>
	<outline>
		<contour>
			<point x="130" y="606" type="line"/>
			<point x="1020" y="606" type="line"/>
			<point x="1088" y="828" type="line"/>
			<point x="198" y="828" type="line"/>
		</contour>
		<contour>
			<point x="799" y="234" type="curve" smooth="yes"/>
			<point x="461" y="234" type="line"/>
			<point x="342" y="0" type="line"/>
			<point x="748" y="0" type="line" smooth="yes"/>
			<point x="1327" y="0"/>
			<point x="1735" y="328"/>
			<point x="1735" y="914" type="curve" smooth="yes"/>
			<point x="1735" y="1195"/>
			<point x="1587" y="1414"/>
			<point x="1105" y="1414" type="curve" smooth="yes"/>
			<point x="774" y="1414" type="line"/>
			<point x="759" y="1180" type="line"/>
			<point x="1016" y="1180" type="line" smooth="yes"/>
			<point x="1167" y="1180"/>
			<point x="1244" y="1103"/>
			<point x="1244" y="965" type="curve" smooth="yes"/>
			<point x="1244" y="742"/>
			<point x="1097" y="234"/>
		</contour>
		<contour>
			<point x="481" y="1249" type="line"/>
			<point x="145" y="169" type="line"/>
			<point x="-23" y="108" type="line"/>
			<point x="-56" y="0" type="line"/>
			<point x="606" y="0" type="line"/>
			<point x="1043" y="1414" type="line"/>
			<point x="359" y="1414" type="line"/>
			<point x="327" y="1306" type="line"/>
		</contour>
	</outline>
</glyph>
<glyph name="dcroat" format="2">
	<unicode hex="0111"/>
	<advance width="1553"/>
	<outline>
		<contour>
			<point x="992" y="719" type="curve"/>
			<point x="1022" y="770" type="line"/>
			<point x="972" y="977"/>
			<point x="884" y="1074"/>
			<point x="729" y="1074" type="curve" smooth="yes"/>
			<point x="402" y="1074"/>
			<point x="29" y="651"/>
			<point x="29" y="269" type="curve" smooth="yes"/>
			<point x="29" y="63"/>
			<point x="185" y="-30"/>
			<point x="333" y="-30" type="curve" smooth="yes"/>
			<point x="513" y="-30"/>
			<point x="637" y="35"/>
			<point x="876" y="438" type="curve"/>
			<point x="910" y="438" type="line"/>
			<point x="798" y="157" type="line" smooth="yes"/>
			<point x="740" y="11"/>
			<point x="794" y="-30"/>
			<point x="956" y="-30" type="curve" smooth="yes"/>
			<point x="1129" y="-30"/>
			<point x="1326" y="29"/>
			<point x="1553" y="231" type="curve"/>
			<point x="1494" y="322" type="line"/>
			<point x="1351" y="228"/>
			<point x="1252" y="211"/>
			<point x="1073" y="217" type="curve"/>
			<point x="1163" y="76" type="line"/>
			<point x="1671" y="1494" type="line"/>
			<point x="1606" y="1494" type="line"/>
			<point x="1115" y="1464" type="line"/>
			<point x="1087" y="1351" type="line"/>
			<point x="1111" y="1330"/>
			<point x="1128" y="1314"/>
			<point x="1148" y="1294" type="curve"/>
			<point x="927" y="690" type="line" smooth="yes"/>
			<point x="856" y="495"/>
			<point x="671" y="237"/>
			<point x="561" y="237" type="curve" smooth="yes"/>
			<point x="510" y="237"/>
			<point x="484" y="259"/>
			<point x="484" y="307" type="curve" smooth="yes"/>
			<point x="484" y="488"/>
			<point x="718" y="839"/>
			<point x="860" y="839" type="curve" smooth="yes"/>
			<point x="915" y="839"/>
			<point x="953" y="820"/>
		</contour>
		<contour>
			<point x="834" y="1142" type="line"/>
			<point x="1724" y="1142" type="line"/>
			<point x="1763" y="1272" type="line"/>
			<point x="873" y="1272" type="line"/>
		</contour>
	</outline>
</glyph>
<glyph name="Eogonek" format="2">
	<unicode hex="0118"/>
	<advance width="1652"/>
	<outline>
		<contour>
			<point x="476" y="1249" type="line"/>
			<point x="140" y="169" type="line"/>
			<point x="-28" y="108" type="line"/>
			<point x="-61" y="0" type="line"/>
			<point x="601" y="0" type="line"/>
			<point x="1038" y="1414" type="line"/>
			<point x="354" y="1414" type="line"/>
			<point x="322" y="1306" type="line"/>
		</contour>
		<contour>
			<point x="988" y="480" type="line"/>
			<point x="1160" y="480" type="line"/>
			<point x="1238" y="735" type="line"/>
			<point x="1316" y="990" type="line"/>
			<point x="1144" y="990" type="line"/>
			<point x="1081" y="839" type="line"/>
			<point x="620" y="839" type="line"/>
			<point x="557" y="635" type="line"/>
			<point x="1020" y="635" type="line"/>
		</contour>
		<contour>
			<point x="1656" y="991" type="line"/>
			<point x="1779" y="1512" type="line"/>
			<point x="1644" y="1512" type="line"/>
			<point x="1508" y="1414" type="line"/>
			<point x="795" y="1414" type="line"/>
			<point x="729" y="1180" type="line"/>
			<point x="1514" y="1180" type="line"/>
			<point x="1462" y="1329" type="line"/>
			<point x="1462" y="991" type="line"/>
		</contour>
		<contour>
			<point x="1117" y="-103" type="line"/>
			<point x="1274" y="-103" type="line"/>
			<point x="1602" y="493" type="line"/>
			<point x="1407" y="493" type="line"/>
			<point x="994" y="92" type="line"/>
			<point x="1243" y="234" type="line"/>
			<point x="431" y="234" type="line"/>
			<point x="363" y="0" type="line"/>
			<point x="1083" y="0" type="line"/>
		</contour>
		<contour>
			<point x="922" y="-242" type="curve" smooth="yes"/>
			<point x="922" y="-198"/>
			<point x="939" y="-171"/>
			<point x="1050" y="-68" type="curve" smooth="yes"/>
			<point x="1229" y="97" type="line"/>
			<point x="1126" y="97" type="line"/>
			<point x="952" y="-14" type="line" smooth="yes"/>
			<point x="742" y="-148"/>
			<point x="705" y="-210"/>
			<point x="705" y="-311" type="curve" smooth="yes"/>
			<point x="705" y="-394"/>
			<point x="753" y="-465"/>
			<point x="877" y="-465" type="curve" smooth="yes"/>
			<point x="943" y="-465"/>
			<point x="1013" y="-446"/>
			<point x="1121" y="-387" type="curve"/>
			<point x="1121" y="-277" type="line"/>
			<point x="1068" y="-296"/>
			<point x="1040" y="-303"/>
			<point x="1002" y="-303" type="curve" smooth="yes"/>
			<point x="945" y="-303"/>
			<point x="922" y="-287"/>
		</contour>
	</outline>
</glyph>
<glyph name="eogonek" format="2">
	<unicode hex="0119"/>
	<advance width="1259"/>
	<outline>
		<contour>
			<point x="1037" y="213" type="line" smooth="yes"/>
			<point x="1077" y="265"/>
			<point x="1111" y="323"/>
			<point x="1146" y="402" type="curve"/>
			<point x="1037" y="402" type="line"/>
			<point x="949" y="291"/>
			<point x="848" y="251"/>
			<point x="719" y="251" type="curve" smooth="yes"/>
			<point x="553" y="251"/>
			<point x="510" y="308"/>
			<point x="510" y="482" type="curve" smooth="yes"/>
			<point x="510" y="791"/>
			<point x="655" y="909"/>
			<point x="793" y="909" type="curve" smooth="yes"/>
			<point x="858" y="909"/>
			<point x="885" y="877"/>
			<point x="885" y="823" type="curve" smooth="yes"/>
			<point x="885" y="696"/>
			<point x="864" y="669"/>
			<point x="387" y="567" type="curve"/>
			<point x="380" y="459" type="line"/>
			<point x="633" y="480"/>
			<point x="923" y="516"/>
			<point x="1186" y="574" type="curve"/>
			<point x="1233" y="669"/>
			<point x="1248" y="745"/>
			<point x="1248" y="815" type="curve" smooth="yes"/>
			<point x="1248" y="958"/>
			<point x="1132" y="1074"/>
			<point x="838" y="1074" type="curve" smooth="yes"/>
			<point x="303" y="1074"/>
			<point x="61" y="726"/>
			<point x="61" y="362" type="curve" smooth="yes"/>
			<point x="61" y="119"/>
			<point x="214" y="-30"/>
			<point x="524" y="-30" type="curve" smooth="yes"/>
			<point x="643" y="-30"/>
			<point x="749" y="-9"/>
			<point x="843" y="42" type="curve"/>
			<point x="806" y="86" type="line"/>
			<point x="780" y="60" type="line" smooth="yes"/>
			<point x="605" y="-113"/>
			<point x="534" y="-208"/>
			<point x="534" y="-311" type="curve" smooth="yes"/>
			<point x="534" y="-394"/>
			<point x="582" y="-465"/>
			<point x="706" y="-465" type="curve" smooth="yes"/>
			<point x="772" y="-465"/>
			<point x="842" y="-446"/>
			<point x="950" y="-387" type="curve"/>
			<point x="950" y="-277" type="line"/>
			<point x="897" y="-296"/>
			<point x="869" y="-303"/>
			<point x="831" y="-303" type="curve" smooth="yes"/>
			<point x="774" y="-303"/>
			<point x="751" y="-287"/>
			<point x="751" y="-242" type="curve" smooth="yes"/>
			<point x="751" y="-198"/>
			<point x="785" y="-116"/>
			<point x="878" y="6" type="curve" smooth="yes"/>
		</contour>
	</outline>
</glyph>
<glyph name="Hbar" format="2">
	<unicode hex="0126"/>
	<advance width="1960"/>
	<outline>
		<contour>
			<point x="535" y="606" type="line"/>
			<point x="1491" y="606" type="line"/>
			<point x="1549" y="840" type="line"/>
			<point x="594" y="840" type="line"/>
		</contour>
		<contour>
			<point x="239" y="969" type="line"/>
			<point x="1994" y="969" type="line"/>
			<point x="2062" y="1191" type="line"/>
			<point x="307" y="1191" type="line"/>
		</contour>
		<contour>
			<point x="480" y="1249" type="line"/>
			<point x="144" y="169" type="line"/>
			<point x="-24" y="108" type="line"/>
			<point x="-57" y="0" type="line"/>
			<point x="777" y="0" type="line"/>
			<point x="808" y="108" type="line"/>
			<point x="655" y="165" type="line"/>
			<point x="991" y="1245" type="line"/>
			<point x="1159" y="1306" type="line"/>
			<point x="1190" y="1414" type="line"/>
			<point x="358" y="1414" type="line"/>
			<point x="326" y="1306" type="line"/>
		</contour>
		<contour>
			<point x="1419" y="1249" type="line"/>
			<point x="1084" y="169" type="line"/>
			<point x="915" y="108" type="line"/>
			<point x="884" y="0" type="line"/>
			<point x="1716" y="0" type="line"/>
			<point x="1749" y="108" type="line"/>
			<point x="1594" y="165" type="line"/>
			<point x="1930" y="1245" type="line"/>
			<point x="2098" y="1306" type="line"/>
			<point x="2130" y="1414" type="line"/>
			<point x="1297" y="1414" type="line"/>
			<point x="1266" y="1306" type="line"/>
		</contour>
	</outline>
</glyph>
<glyph name="hbar" format="2">
	<unicode hex="0127"/>
	<advance width="1541"/>
	<outline>
		<contour>
			<point x="531" y="173" type="line" smooth="yes"/>
			<point x="675" y="602"/>
			<point x="769" y="748"/>
			<point x="879" y="748" type="curve" smooth="yes"/>
			<point x="915" y="748"/>
			<point x="930" y="732"/>
			<point x="930" y="701" type="curve" smooth="yes"/>
			<point x="930" y="669"/>
			<point x="922" y="629"/>
			<point x="876" y="511" type="curve" smooth="yes"/>
			<point x="743" y="170" type="line" smooth="yes"/>
			<point x="692" y="40"/>
			<point x="764" y="-30"/>
			<point x="897" y="-30" type="curve" smooth="yes"/>
			<point x="1091" y="-30"/>
			<point x="1283" y="21"/>
			<point x="1532" y="225" type="curve"/>
			<point x="1478" y="321" type="line"/>
			<point x="1273" y="215"/>
			<point x="1181" y="208"/>
			<point x="1043" y="223" type="curve"/>
			<point x="1171" y="91" type="line"/>
			<point x="1345" y="538" type="line" smooth="yes"/>
			<point x="1403" y="688"/>
			<point x="1420" y="775"/>
			<point x="1420" y="839" type="curve" smooth="yes"/>
			<point x="1420" y="972"/>
			<point x="1331" y="1074"/>
			<point x="1148" y="1074" type="curve" smooth="yes"/>
			<point x="908" y="1074"/>
			<point x="756" y="960"/>
			<point x="538" y="463" type="curve"/>
			<point x="497" y="463" type="line"/>
			<point x="938" y="1494" type="line"/>
			<point x="873" y="1494" type="line"/>
			<point x="329" y="1464" type="line"/>
			<point x="301" y="1351" type="line"/>
			<point x="358" y="1315.0291262136"/>
			<point x="368" y="1308.7184466019"/>
			<point x="404" y="1286" type="curve"/>
			<point x="12" y="0" type="line"/>
			<point x="473" y="0" type="line"/>
		</contour>
		<contour>
			<point x="182" y="1142" type="line"/>
			<point x="1072" y="1142" type="line"/>
			<point x="1111" y="1272" type="line"/>
			<point x="221" y="1272" type="line"/>
		</contour>
	</outline>
</glyph>
<glyph name="Iogonek" format="2">
	<unicode hex="012E"/>
	<advance width="1013"/>
	<outline>
		<contour>
			<point x="476" y="1249" type="line"/>
			<point x="140" y="169" type="line"/>
			<point x="-28" y="108" type="line"/>
			<point x="-61" y="0" type="line"/>
			<point x="773" y="0" type="line"/>
			<point x="804" y="108" type="line"/>
			<point x="651" y="165" type="line"/>
			<point x="987" y="1245" type="line"/>
			<point x="1155" y="1306" type="line"/>
			<point x="1186" y="1414" type="line"/>
			<point x="354" y="1414" type="line"/>
			<point x="322" y="1306" type="line"/>
		</contour>
		<contour>
			<point x="277" y="-242" type="curve" smooth="yes"/>
			<point x="277" y="-198"/>
			<point x="281" y="-171"/>
			<point x="372" y="-68" type="curve" smooth="yes"/>
			<point x="520" y="98" type="line"/>
			<point x="417" y="98" type="line"/>
			<point x="274" y="-13" type="line" smooth="yes"/>
			<point x="94" y="-152"/>
			<point x="60" y="-212"/>
			<point x="60" y="-311" type="curve" smooth="yes"/>
			<point x="60" y="-394"/>
			<point x="108" y="-465"/>
			<point x="232" y="-465" type="curve" smooth="yes"/>
			<point x="298" y="-465"/>
			<point x="368" y="-446"/>
			<point x="476" y="-387" type="curve"/>
			<point x="476" y="-277" type="line"/>
			<point x="423" y="-296"/>
			<point x="395" y="-303"/>
			<point x="357" y="-303" type="curve" smooth="yes"/>
			<point x="300" y="-303"/>
			<point x="277" y="-287"/>
		</contour>
	</outline>
</glyph>
<glyph name="iogonek" format="2">
	<unicode hex="012F"/>
	<advance width="969"/>
	<outline>
		<contour>
			<point x="496" y="1303" type="curve" smooth="yes"/>
			<point x="496" y="1211"/>
			<point x="575" y="1164"/>
			<point x="752" y="1164" type="curve" smooth="yes"/>
			<point x="989" y="1164"/>
			<point x="1058" y="1245"/>
			<point x="1058" y="1355" type="curve" smooth="yes"/>
			<point x="1058" y="1447"/>
			<point x="979" y="1494"/>
			<point x="802" y="1494" type="curve" smooth="yes"/>
			<point x="565" y="1494"/>
			<point x="496" y="1413"/>
		</contour>
		<contour>
			<point x="711" y="78" type="line" smooth="yes"/>
			<point x="783" y="118"/>
			<point x="856" y="164"/>
			<point x="936" y="226" type="curve"/>
			<point x="876" y="322" type="line"/>
			<point x="740" y="239"/>
			<point x="634" y="216"/>
			<point x="439" y="231" type="curve"/>
			<point x="558" y="91" type="line"/>
			<point x="852" y="791" type="line" smooth="yes"/>
			<point x="933" y="983"/>
			<point x="904" y="1074"/>
			<point x="669" y="1074" type="curve" smooth="yes"/>
			<point x="487" y="1074"/>
			<point x="299" y="1010"/>
			<point x="16" y="788" type="curve"/>
			<point x="83" y="693" type="line"/>
			<point x="250" y="809"/>
			<point x="346" y="830"/>
			<point x="532" y="822" type="curve"/>
			<point x="437" y="954" type="line"/>
			<point x="144" y="253" type="line" smooth="yes"/>
			<point x="54" y="38"/>
			<point x="107" y="-30"/>
			<point x="279" y="-30" type="curve" smooth="yes"/>
			<point x="340" y="-30"/>
			<point x="403" y="-24"/>
			<point x="468" y="-9" type="curve"/>
			<point x="455" y="11" type="line"/>
			<point x="374" y="-26" type="line" smooth="yes"/>
			<point x="148" y="-129"/>
			<point x="84" y="-214"/>
			<point x="84" y="-311" type="curve" smooth="yes"/>
			<point x="84" y="-394"/>
			<point x="132" y="-465"/>
			<point x="256" y="-465" type="curve" smooth="yes"/>
			<point x="322" y="-465"/>
			<point x="392" y="-446"/>
			<point x="500" y="-387" type="curve"/>
			<point x="500" y="-277" type="line"/>
			<point x="447" y="-296"/>
			<point x="419" y="-303"/>
			<point x="381" y="-303" type="curve" smooth="yes"/>
			<point x="324" y="-303"/>
			<point x="301" y="-287"/>
			<point x="301" y="-242" type="curve" smooth="yes"/>
			<point x="301" y="-182"/>
			<point x="339" y="-131"/>
			<point x="470" y="-57" type="curve" smooth="yes"/>
		</contour>
	</outline>
</glyph>
<glyph name="dotlessi" format="2">
	<unicode hex="0131"/>
	<advance width="964"/>
	<outline>
		<contour>
			<point x="144" y="253" type="line" smooth="yes"/>
			<point x="54" y="38"/>
			<point x="107" y="-30"/>
			<point x="279" y="-30" type="curve" smooth="yes"/>
			<point x="477" y="-30"/>
			<point x="692" y="37"/>
			<point x="936" y="226" type="curve"/>
			<point x="876" y="322" type="line"/>
			<point x="740" y="239"/>
			<point x="634" y="216"/>
			<point x="439" y="231" type="curve"/>
			<point x="558" y="91" type="line"/>
			<point x="852" y="791" type="line" smooth="yes"/>
			<point x="933" y="983"/>
			<point x="904" y="1074"/>
			<point x="669" y="1074" type="curve" smooth="yes"/>
			<point x="487" y="1074"/>
			<point x="299" y="1010"/>
			<point x="16" y="788" type="curve"/>
			<point x="83" y="693" type="line"/>
			<point x="250" y="809"/>
			<point x="346" y="830"/>
			<point x="532" y="822" type="curve"/>
			<point x="437" y="954" type="line"/>
		</contour>
	</outline>
	<anchor name="top" x="687" y="1044"/>
	<anchor name="bottom" x="287" y="0"/>
	<anchor name="right" x="578" y="0"/>
</glyph>
<glyph name="kgreenlandic" format="2">
	<unicode hex="0138"/>
	<advance width="1664"/>
	<outline>
		<contour>
			<point x="920" y="1044" type="line"/>
			<point x="842" y="1063"/>
			<point x="753" y="1074"/>
			<point x="642" y="1074" type="curve" smooth="yes"/>
			<point x="243" y="1074"/>
			<point x="129" y="976"/>
			<point x="48" y="645" type="curve"/>
			<point x="95" y="633" type="line"/>
			<point x="182" y="774"/>
			<point x="226" y="787"/>
			<point x="357" y="787" type="curve" smooth="yes"/>
			<point x="363" y="787"/>
			<point x="368" y="787"/>
			<point x="372" y="787" type="curve"/>
			<point x="132" y="0" type="line"/>
			<point x="601" y="0" type="line"/>
		</contour>
		<contour>
			<point x="1459" y="643" type="curve" smooth="yes"/>
			<point x="1552" y="643"/>
			<point x="1655" y="733"/>
			<point x="1655" y="881" type="curve" smooth="yes"/>
			<point x="1655" y="991"/>
			<point x="1583" y="1074"/>
			<point x="1442" y="1074" type="curve" smooth="yes"/>
			<point x="1292" y="1074"/>
			<point x="1160" y="988"/>
			<point x="768" y="569" type="curve"/>
			<point x="731" y="505" type="line"/>
			<point x="848" y="91"/>
			<point x="964" y="-30"/>
			<point x="1092" y="-30" type="curve" smooth="yes"/>
			<point x="1231" y="-30"/>
			<point x="1421" y="68"/>
			<point x="1593" y="264" type="curve"/>
			<point x="1529" y="355" type="line"/>
			<point x="1455" y="294"/>
			<point x="1415" y="276"/>
			<point x="1384" y="276" type="curve" smooth="yes"/>
			<point x="1303" y="276"/>
			<point x="1221" y="393"/>
			<point x="1085" y="785" type="curve"/>
			<point x="890" y="537" type="line"/>
			<point x="1171" y="765"/>
			<point x="1228" y="796"/>
			<point x="1284" y="796" type="curve" smooth="yes"/>
			<point x="1320" y="796"/>
			<point x="1356" y="764"/>
			<point x="1388" y="728" type="curve" smooth="yes"/>
			<point x="1420" y="692"/>
			<point x="1451" y="643"/>
		</contour>
	</outline>
</glyph>
<glyph name="Lslash" format="2">
	<unicode hex="0141"/>
	<advance width="1548"/>
	<outline>
		<contour>
			<point x="1016" y="1245" type="line"/>
			<point x="1184" y="1306" type="line"/>
			<point x="1215" y="1414" type="line"/>
			<point x="383" y="1414" type="line"/>
			<point x="351" y="1306" type="line"/>
			<point x="505" y="1249" type="line"/>
			<point x="169" y="169" type="line"/>
			<point x="1" y="108" type="line"/>
			<point x="-32" y="0" type="line"/>
			<point x="630" y="0" type="line"/>
		</contour>
		<contour>
			<point x="930" y="120" type="line"/>
			<point x="1110" y="234" type="line"/>
			<point x="273" y="234" type="line"/>
			<point x="205" y="0" type="line"/>
			<point x="1004" y="0" type="line"/>
			<point x="1078" y="-103" type="line"/>
			<point x="1235" y="-103" type="line"/>
			<point x="1525" y="562" type="line"/>
			<point x="1328" y="562" type="line"/>
		</contour>
		<contour>
			<point x="1263" y="1041" type="line"/>
			<point x="750" y="811" type="line"/>
			<point x="568" y="815" type="line"/>
			<point x="150" y="627" type="line"/>
			<point x="74" y="378" type="line"/>
			<point x="492" y="566" type="line"/>
			<point x="674" y="562" type="line"/>
			<point x="1187" y="792" type="line"/>
		</contour>
	</outline>
</glyph>
<glyph name="lslash" format="2">
	<unicode hex="0142"/>
	<advance width="1024"/>
	<outline>
		<contour>
			<point x="81" y="560" type="line"/>
			<point x="26" y="381" type="line"/>
			<point x="341" y="555" type="line"/>
			<point x="454" y="521" type="line"/>
			<point x="948" y="801" type="line"/>
			<point x="1003" y="980" type="line"/>
			<point x="510" y="700" type="line"/>
			<point x="397" y="734" type="line"/>
		</contour>
		<contour>
			<point x="412" y="1135" type="curve"/>
			<point x="127" y="249" type="line" smooth="yes"/>
			<point x="66" y="59"/>
			<point x="130" y="-30"/>
			<point x="267" y="-30" type="curve" smooth="yes"/>
			<point x="465" y="-30"/>
			<point x="656" y="26"/>
			<point x="924" y="236" type="curve"/>
			<point x="865" y="331" type="line"/>
			<point x="723" y="250"/>
			<point x="606" y="222"/>
			<point x="411" y="242" type="curve"/>
			<point x="532" y="73" type="line"/>
			<point x="991" y="1494" type="line"/>
			<point x="926" y="1494" type="line"/>
			<point x="236" y="1390" type="line"/>
			<point x="208" y="1277" type="line"/>
			<point x="265" y="1237.3235294118"/>
			<point x="376" y="1160.0588235294"/>
		</contour>
	</outline>
</glyph>
<glyph name="Eng" format="2">
  <advance width="1782"/>
  <unicode hex="014A"/>
  <guideline x="1244.0" y="-186" angle="0" identifier="0IEEZks028"/>
  <guideline x="1040.0" y="-64" angle="0" identifier="5IC3faftk6"/>
  <outline>
    <contour>
      <point x="1385.0" y="646.0" type="line"/>
      <point x="1103.0" y="1414.0" type="line"/>
      <point x="349.0" y="1414.0" type="line"/>
      <point x="319.0" y="1315.0" type="line"/>
      <point x="471.0" y="1228.0" type="line"/>
      <point x="142.0" y="163.0" type="line"/>
      <point x="-31.0" y="108.0" type="line"/>
      <point x="-61.0" y="0.0" type="line"/>
      <point x="536.0" y="0.0" type="line"/>
      <point x="567.0" y="108.0" type="line"/>
      <point x="397.0" y="167.0" type="line"/>
      <point x="742.0" y="1291.0" type="line"/>
      <point x="668.0" y="1229.0" type="line"/>
      <point x="1165.0" y="-53.0" type="line"/>
    </contour>
    <contour>
      <point x="1369.0" y="-87.0" type="curve" smooth="yes"/>
      <point x="1780.0" y="1251.0" type="line"/>
      <point x="1953.0" y="1306.0" type="line"/>
      <point x="1983.0" y="1414.0" type="line"/>
      <point x="1386.0" y="1414.0" type="line"/>
      <point x="1355.0" y="1306.0" type="line"/>
      <point x="1525.0" y="1247.0" type="line"/>
      <point x="1125" y="-63" type="line" smooth="yes"/>
      <point x="1087" y="-187"/>
      <point x="1043.0" y="-205.0"/>
      <point x="943" y="-205.0" type="curve" smooth="yes"/>
      <point x="832" y="-205"/>
      <point x="759.0" y="-103.0"/>
      <point x="721.0" y="-103.0" type="curve" smooth="yes"/>
      <point x="628.0" y="-103.0"/>
      <point x="564.0" y="-168.0"/>
      <point x="564.0" y="-278.0" type="curve" smooth="yes"/>
      <point x="564.0" y="-381.0"/>
      <point x="647.0" y="-465.0"/>
      <point x="851.0" y="-465.0" type="curve" smooth="yes"/>
      <point x="1138.0" y="-465.0"/>
      <point x="1295.0" y="-328.0"/>
    </contour>
  </outline>
</glyph>
<glyph name="OE" format="2">
	<unicode hex="0152"/>
	<advance width="2436"/>
	<outline>
		<contour>
			<point x="1309" y="1414" type="line"/>
			<point x="872" y="0" type="line"/>
			<point x="1382" y="0" type="line"/>
			<point x="1823" y="1414" type="line"/>
		</contour>
		<contour>
			<point x="1117" y="1414" type="line" smooth="yes"/>
			<point x="465" y="1414"/>
			<point x="130" y="1017"/>
			<point x="130" y="470" type="curve" smooth="yes"/>
			<point x="130" y="182"/>
			<point x="295" y="0"/>
			<point x="760" y="0" type="curve" smooth="yes"/>
			<point x="1867" y="0" type="line"/>
			<point x="1901" y="-103" type="line"/>
			<point x="2058" y="-103" type="line"/>
			<point x="2386" y="493" type="line"/>
			<point x="2191" y="493" type="line"/>
			<point x="1778" y="92" type="line"/>
			<point x="2027" y="234" type="line"/>
			<point x="849" y="234" type="line" smooth="yes"/>
			<point x="698" y="234"/>
			<point x="621" y="311"/>
			<point x="621" y="449" type="curve" smooth="yes"/>
			<point x="621" y="656"/>
			<point x="736" y="1180"/>
			<point x="1066" y="1180" type="curve" smooth="yes"/>
			<point x="2298" y="1180" type="line"/>
			<point x="2246" y="1329" type="line"/>
			<point x="2246" y="991" type="line"/>
			<point x="2440" y="991" type="line"/>
			<point x="2563" y="1512" type="line"/>
			<point x="2428" y="1512" type="line"/>
			<point x="2292" y="1414" type="line"/>
		</contour>
		<contour>
			<point x="1944" y="480" type="line"/>
			<point x="2022" y="735" type="line"/>
			<point x="2100" y="990" type="line"/>
			<point x="1928" y="990" type="line"/>
			<point x="1865" y="839" type="line"/>
			<point x="1404" y="839" type="line"/>
			<point x="1341" y="635" type="line"/>
			<point x="1804" y="635" type="line"/>
			<point x="1772" y="480" type="line"/>
		</contour>
	</outline>
</glyph>
<glyph name="oe" format="2">
	<unicode hex="0153"/>
	<advance width="2010"/>
	<outline>
		<contour>
			<point x="774" y="1074" type="curve" smooth="yes"/>
			<point x="298" y="1074"/>
			<point x="69" y="735"/>
			<point x="69" y="400" type="curve" smooth="yes"/>
			<point x="69" y="163"/>
			<point x="210" y="-30"/>
			<point x="576" y="-30" type="curve" smooth="yes"/>
			<point x="829" y="-30"/>
			<point x="1006" y="90"/>
			<point x="1095" y="244" type="curve"/>
			<point x="890" y="244" type="line"/>
			<point x="932" y="89"/>
			<point x="1029" y="-30"/>
			<point x="1275" y="-30" type="curve" smooth="yes"/>
			<point x="1547" y="-30"/>
			<point x="1753" y="81"/>
			<point x="1897" y="402" type="curve"/>
			<point x="1788" y="402" type="line"/>
			<point x="1700" y="291"/>
			<point x="1599" y="251"/>
			<point x="1470" y="251" type="curve" smooth="yes"/>
			<point x="1304" y="251"/>
			<point x="1261" y="308"/>
			<point x="1261" y="482" type="curve" smooth="yes"/>
			<point x="1261" y="791"/>
			<point x="1406" y="909"/>
			<point x="1544" y="909" type="curve" smooth="yes"/>
			<point x="1609" y="909"/>
			<point x="1636" y="877"/>
			<point x="1636" y="823" type="curve" smooth="yes"/>
			<point x="1636" y="696"/>
			<point x="1615" y="669"/>
			<point x="1138" y="567" type="curve"/>
			<point x="1131" y="459" type="line"/>
			<point x="1384" y="480"/>
			<point x="1674" y="516"/>
			<point x="1937" y="574" type="curve"/>
			<point x="1984" y="669"/>
			<point x="1999" y="745"/>
			<point x="1999" y="815" type="curve" smooth="yes"/>
			<point x="1999" y="958"/>
			<point x="1883" y="1074"/>
			<point x="1589" y="1074" type="curve" smooth="yes"/>
			<point x="1324" y="1074"/>
			<point x="1124" y="971"/>
			<point x="994" y="829" type="curve"/>
			<point x="1222" y="829" type="line"/>
			<point x="1158" y="949"/>
			<point x="1047" y="1074"/>
		</contour>
		<contour>
			<point x="604" y="229" type="curve" smooth="yes"/>
			<point x="534" y="229"/>
			<point x="504" y="261"/>
			<point x="504" y="360" type="curve" smooth="yes"/>
			<point x="504" y="530"/>
			<point x="588" y="815"/>
			<point x="746" y="815" type="curve" smooth="yes"/>
			<point x="816" y="815"/>
			<point x="846" y="783"/>
			<point x="846" y="684" type="curve" smooth="yes"/>
			<point x="846" y="514"/>
			<point x="762" y="229"/>
		</contour>
	</outline>
	<anchor name="top" x="1161" y="1044"/>
	<anchor name="bottom" x="937" y="0"/>
</glyph>
<glyph name="scedilla" format="2">
	<unicode hex="015F"/>
	<advance width="1172"/>
	<outline>
		<contour>
			<point x="265" y="-465" type="curve" smooth="yes"/>
			<point x="551" y="-465"/>
			<point x="644" y="-368"/>
			<point x="644" y="-226" type="curve" smooth="yes"/>
			<point x="644" y="-147"/>
			<point x="589" y="-87"/>
			<point x="407" y="-65" type="curve"/>
			<point x="375" y="-190" type="line"/>
			<point x="656" y="49" type="line"/>
			<point x="500" y="49" type="line"/>
			<point x="231" y="-184" type="line"/>
			<point x="217" y="-229" type="line"/>
			<point x="378" y="-240"/>
			<point x="414" y="-258"/>
			<point x="414" y="-291" type="curve" smooth="yes"/>
			<point x="414" y="-333"/>
			<point x="386" y="-356"/>
			<point x="312" y="-356" type="curve" smooth="yes"/>
			<point x="244" y="-356"/>
			<point x="190" y="-312"/>
			<point x="166" y="-312" type="curve" smooth="yes"/>
			<point x="132" y="-312"/>
			<point x="105" y="-344"/>
			<point x="105" y="-387" type="curve" smooth="yes"/>
			<point x="105" y="-443"/>
			<point x="147" y="-465"/>
		</contour>
		<contour>
			<point x="275" y="326" type="curve"/>
			<point x="49" y="326"/>
			<point x="0" y="282"/>
			<point x="0" y="175" type="curve" smooth="yes"/>
			<point x="0" y="57"/>
			<point x="106" y="-30"/>
			<point x="423" y="-30" type="curve" smooth="yes"/>
			<point x="857" y="-30"/>
			<point x="1054" y="104"/>
			<point x="1054" y="397" type="curve" smooth="yes"/>
			<point x="1054" y="557"/>
			<point x="973" y="628"/>
			<point x="774" y="681" type="curve" smooth="yes"/>
			<point x="575" y="734"/>
			<point x="551" y="761"/>
			<point x="551" y="821" type="curve" smooth="yes"/>
			<point x="551" y="884"/>
			<point x="592" y="917"/>
			<point x="730" y="917" type="curve" smooth="yes"/>
			<point x="782" y="917"/>
			<point x="820" y="908"/>
			<point x="853" y="882" type="curve" smooth="yes"/>
			<point x="886" y="856"/>
			<point x="909" y="808"/>
			<point x="923" y="734" type="curve"/>
			<point x="1125" y="734"/>
			<point x="1172" y="778"/>
			<point x="1172" y="883" type="curve" smooth="yes"/>
			<point x="1172" y="995"/>
			<point x="1075" y="1073"/>
			<point x="769" y="1073" type="curve" smooth="yes"/>
			<point x="376" y="1073"/>
			<point x="172" y="925"/>
			<point x="172" y="693" type="curve" smooth="yes"/>
			<point x="172" y="501"/>
			<point x="252" y="436"/>
			<point x="457" y="386" type="curve" smooth="yes"/>
			<point x="662" y="336"/>
			<point x="692" y="314"/>
			<point x="692" y="243" type="curve" smooth="yes"/>
			<point x="692" y="172"/>
			<point x="634" y="132"/>
			<point x="465" y="132" type="curve" smooth="yes"/>
			<point x="389" y="132"/>
			<point x="344" y="139"/>
			<point x="317" y="167" type="curve" smooth="yes"/>
			<point x="290" y="195"/>
			<point x="280" y="244"/>
		</contour>
	</outline>
</glyph>
<glyph name="uni0162" format="2">
	<unicode hex="0162"/>
	<advance width="1716"/>
	<outline>
		<contour>
			<point x="1634" y="1180" type="line"/>
			<point x="1542" y="1268" type="line"/>
			<point x="1606" y="858" type="line"/>
			<point x="1791" y="858" type="line"/>
			<point x="1873" y="1514" type="line"/>
			<point x="1705" y="1514" type="line"/>
			<point x="1551" y="1374" type="line"/>
			<point x="1735" y="1414" type="line"/>
			<point x="479" y="1414" type="line"/>
			<point x="647" y="1374" type="line"/>
			<point x="581" y="1514" type="line"/>
			<point x="408" y="1514" type="line"/>
			<point x="149" y="858" type="line"/>
			<point x="351" y="858" type="line"/>
			<point x="661" y="1240" type="line"/>
			<point x="483" y="1180" type="line"/>
		</contour>
		<contour>
			<point x="850" y="1300" type="line"/>
			<point x="499" y="169" type="line"/>
			<point x="327" y="108" type="line"/>
			<point x="295" y="0" type="line"/>
			<point x="1128" y="0" type="line"/>
			<point x="1159" y="108" type="line"/>
			<point x="1010" y="165" type="line"/>
			<point x="1362" y="1300" type="line"/>
		</contour>
		<contour>
			<point x="472" y="-465" type="curve" smooth="yes"/>
			<point x="758" y="-465"/>
			<point x="851" y="-368"/>
			<point x="851" y="-226" type="curve" smooth="yes"/>
			<point x="851" y="-147"/>
			<point x="796" y="-87"/>
			<point x="614" y="-65" type="curve"/>
			<point x="582" y="-190" type="line"/>
			<point x="863" y="49" type="line"/>
			<point x="707" y="49" type="line"/>
			<point x="438" y="-184" type="line"/>
			<point x="424" y="-229" type="line"/>
			<point x="585" y="-240"/>
			<point x="621" y="-258"/>
			<point x="621" y="-291" type="curve" smooth="yes"/>
			<point x="621" y="-333"/>
			<point x="593" y="-356"/>
			<point x="519" y="-356" type="curve" smooth="yes"/>
			<point x="451" y="-356"/>
			<point x="397" y="-312"/>
			<point x="373" y="-312" type="curve" smooth="yes"/>
			<point x="339" y="-312"/>
			<point x="312" y="-344"/>
			<point x="312" y="-387" type="curve" smooth="yes"/>
			<point x="312" y="-443"/>
			<point x="354" y="-465"/>
		</contour>
	</outline>
</glyph>
<glyph name="uni0163" format="2">
  <advance width="1086"/>
  <unicode hex="0163"/>
  <outline>
    <contour>
      <point x="125.0" y="862.0" type="line"/>
      <point x="1166.0" y="862.0" type="line"/>
      <point x="1166.0" y="1044.0" type="line"/>
      <point x="125.0" y="1044.0" type="line"/>
    </contour>
    <contour>
      <point x="736.0" y="599.0" type="curve" smooth="yes"/>
      <point x="1007.0" y="1336.0" type="line"/>
      <point x="545.0" y="1336.0" type="line"/>
      <point x="271.0" y="533.0" type="line" smooth="yes"/>
      <point x="214.0" y="367.0"/>
      <point x="188.0" y="256.0"/>
      <point x="188.0" y="174.0" type="curve" smooth="yes"/>
      <point x="188.0" y="31.0"/>
      <point x="260.0" y="-30.0"/>
      <point x="401.0" y="-30.0" type="curve" smooth="yes"/>
      <point x="531.0" y="-30.0"/>
      <point x="713.0" y="-3.0"/>
      <point x="1003.0" y="263.0" type="curve"/>
      <point x="931.0" y="356.0" type="line"/>
      <point x="800.0" y="268.0"/>
      <point x="753.0" y="259.0"/>
      <point x="714.0" y="259.0" type="curve" smooth="yes"/>
      <point x="679.0" y="259.0"/>
      <point x="661.0" y="266.0"/>
      <point x="661.0" y="307.0" type="curve" smooth="yes"/>
      <point x="661.0" y="340.0"/>
      <point x="670.0" y="403.0"/>
    </contour>
    <contour>
      <point x="215.0" y="-465.0" type="curve" smooth="yes"/>
      <point x="501.0" y="-465.0"/>
      <point x="594.0" y="-368.0"/>
      <point x="594.0" y="-226.0" type="curve" smooth="yes"/>
      <point x="594.0" y="-147.0"/>
      <point x="539.0" y="-87.0"/>
      <point x="357.0" y="-65.0" type="curve"/>
      <point x="325.0" y="-190.0" type="line"/>
      <point x="606.0" y="49.0" type="line"/>
      <point x="450.0" y="49.0" type="line"/>
      <point x="181.0" y="-184.0" type="line"/>
      <point x="167.0" y="-229.0" type="line"/>
      <point x="328.0" y="-240.0"/>
      <point x="364.0" y="-258.0"/>
      <point x="364.0" y="-291.0" type="curve" smooth="yes"/>
      <point x="364.0" y="-333.0"/>
      <point x="336.0" y="-356.0"/>
      <point x="262.0" y="-356.0" type="curve" smooth="yes"/>
      <point x="194.0" y="-356.0"/>
      <point x="140.0" y="-312.0"/>
      <point x="116.0" y="-312.0" type="curve" smooth="yes"/>
      <point x="82.0" y="-312.0"/>
      <point x="55.0" y="-344.0"/>
      <point x="55.0" y="-387.0" type="curve" smooth="yes"/>
      <point x="55.0" y="-443.0"/>
      <point x="97.0" y="-465.0"/>
    </contour>
  </outline>
</glyph>
<glyph name="Tbar" format="2">
	<unicode hex="0166"/>
	<advance width="1719"/>
	<outline>
		<contour>
			<point x="312" y="536" type="line"/>
			<point x="1427" y="536" type="line"/>
			<point x="1495" y="758" type="line"/>
			<point x="380" y="758" type="line"/>
		</contour>
		<contour>
			<point x="1634" y="1180" type="line"/>
			<point x="1542" y="1268" type="line"/>
			<point x="1606" y="858" type="line"/>
			<point x="1791" y="858" type="line"/>
			<point x="1873" y="1514" type="line"/>
			<point x="1705" y="1514" type="line"/>
			<point x="1551" y="1374" type="line"/>
			<point x="1735" y="1414" type="line"/>
			<point x="479" y="1414" type="line"/>
			<point x="647" y="1374" type="line"/>
			<point x="581" y="1514" type="line"/>
			<point x="408" y="1514" type="line"/>
			<point x="149" y="858" type="line"/>
			<point x="351" y="858" type="line"/>
			<point x="661" y="1240" type="line"/>
			<point x="483" y="1180" type="line"/>
		</contour>
		<contour>
			<point x="850" y="1300" type="line"/>
			<point x="499" y="169" type="line"/>
			<point x="327" y="108" type="line"/>
			<point x="295" y="0" type="line"/>
			<point x="1128" y="0" type="line"/>
			<point x="1159" y="108" type="line"/>
			<point x="1010" y="165" type="line"/>
			<point x="1362" y="1300" type="line"/>
		</contour>
	</outline>
</glyph>
<glyph name="tbar" format="2">
	<unicode hex="0167"/>
	<advance width="1112"/>
	<outline>
		<contour>
			<point x="102" y="542" type="line"/>
			<point x="992" y="542" type="line"/>
			<point x="1031" y="672" type="line"/>
			<point x="141" y="672" type="line"/>
		</contour>
		<contour>
			<point x="149" y="862" type="line"/>
			<point x="1190" y="862" type="line"/>
			<point x="1190" y="1044" type="line"/>
			<point x="149" y="1044" type="line"/>
		</contour>
		<contour>
			<point x="685" y="307" type="curve" smooth="yes"/>
			<point x="685" y="340"/>
			<point x="694" y="403"/>
			<point x="760" y="599" type="curve" smooth="yes"/>
			<point x="1031" y="1336" type="line"/>
			<point x="569" y="1336" type="line"/>
			<point x="295" y="533" type="line" smooth="yes"/>
			<point x="238" y="367"/>
			<point x="212" y="256"/>
			<point x="212" y="174" type="curve" smooth="yes"/>
			<point x="212" y="31"/>
			<point x="284" y="-30"/>
			<point x="425" y="-30" type="curve" smooth="yes"/>
			<point x="555" y="-30"/>
			<point x="737" y="-3"/>
			<point x="1027" y="263" type="curve"/>
			<point x="955" y="356" type="line"/>
			<point x="824" y="268"/>
			<point x="777" y="259"/>
			<point x="738" y="259" type="curve" smooth="yes"/>
			<point x="703" y="259"/>
			<point x="685" y="266"/>
		</contour>
	</outline>
</glyph>
<glyph name="Uogonek" format="2">
	<unicode hex="0172"/>
	<advance width="1751"/>
	<outline>
		<contour>
			<point x="721" y="556" type="curve" smooth="yes"/>
			<point x="935" y="1245" type="line"/>
			<point x="1103" y="1306" type="line"/>
			<point x="1134" y="1414" type="line"/>
			<point x="302" y="1414" type="line"/>
			<point x="270" y="1306" type="line"/>
			<point x="424" y="1249" type="line"/>
			<point x="215" y="579" type="line" smooth="yes"/>
			<point x="94" y="193"/>
			<point x="304" y="-30"/>
			<point x="800" y="-30" type="curve" smooth="yes"/>
			<point x="1223" y="-30"/>
			<point x="1418" y="132"/>
			<point x="1540" y="530" type="curve" smooth="yes"/>
			<point x="1762" y="1251" type="line"/>
			<point x="1935" y="1306" type="line"/>
			<point x="1965" y="1414" type="line"/>
			<point x="1368" y="1414" type="line"/>
			<point x="1337" y="1306" type="line"/>
			<point x="1507" y="1247" type="line"/>
			<point x="1301" y="575" type="line" smooth="yes"/>
			<point x="1234" y="355"/>
			<point x="1142" y="296"/>
			<point x="960" y="296" type="curve" smooth="yes"/>
			<point x="747" y="296"/>
			<point x="664" y="374"/>
		</contour>
		<contour>
			<point x="718" y="-242" type="curve" smooth="yes"/>
			<point x="718" y="-198"/>
			<point x="728" y="-171"/>
			<point x="829" y="-68" type="curve" smooth="yes"/>
			<point x="992" y="97" type="line"/>
			<point x="889" y="97" type="line"/>
			<point x="726" y="-14" type="line" smooth="yes"/>
			<point x="529" y="-148"/>
			<point x="501" y="-212"/>
			<point x="501" y="-311" type="curve" smooth="yes"/>
			<point x="501" y="-394"/>
			<point x="549" y="-465"/>
			<point x="673" y="-465" type="curve" smooth="yes"/>
			<point x="739" y="-465"/>
			<point x="809" y="-446"/>
			<point x="917" y="-387" type="curve"/>
			<point x="917" y="-277" type="line"/>
			<point x="864" y="-296"/>
			<point x="836" y="-303"/>
			<point x="798" y="-303" type="curve" smooth="yes"/>
			<point x="741" y="-303"/>
			<point x="718" y="-287"/>
		</contour>
	</outline>
</glyph>
<glyph name="uogonek" format="2">
	<unicode hex="0173"/>
	<advance width="1617"/>
	<outline>
		<contour>
			<point x="1611" y="238" type="curve"/>
			<point x="1548" y="336" type="line"/>
			<point x="1387" y="239"/>
			<point x="1284" y="211"/>
			<point x="1112" y="219" type="curve"/>
			<point x="1230" y="65" type="line"/>
			<point x="1549" y="1044" type="line"/>
			<point x="1091" y="1044" type="line"/>
			<point x="1033" y="871" type="line" smooth="yes"/>
			<point x="876" y="404"/>
			<point x="797" y="286"/>
			<point x="695" y="286" type="curve" smooth="yes"/>
			<point x="662" y="286"/>
			<point x="650" y="298"/>
			<point x="650" y="329" type="curve" smooth="yes"/>
			<point x="650" y="358"/>
			<point x="660" y="404"/>
			<point x="704" y="523" type="curve" smooth="yes"/>
			<point x="802" y="788" type="line" smooth="yes"/>
			<point x="870" y="971"/>
			<point x="836" y="1074"/>
			<point x="647" y="1074" type="curve" smooth="yes"/>
			<point x="453" y="1074"/>
			<point x="232" y="982"/>
			<point x="36" y="773" type="curve"/>
			<point x="106" y="687" type="line"/>
			<point x="219" y="782"/>
			<point x="308" y="824"/>
			<point x="488" y="829" type="curve"/>
			<point x="400" y="954" type="line"/>
			<point x="239" y="506" type="line" smooth="yes"/>
			<point x="184" y="354"/>
			<point x="164" y="269"/>
			<point x="164" y="205" type="curve" smooth="yes"/>
			<point x="164" y="72"/>
			<point x="248" y="-30"/>
			<point x="414" y="-30" type="curve" smooth="yes"/>
			<point x="649" y="-30"/>
			<point x="744" y="51"/>
			<point x="978" y="468" type="curve"/>
			<point x="1017" y="468" type="line"/>
			<point x="912" y="169" type="line" smooth="yes"/>
			<point x="861" y="25"/>
			<point x="915" y="-30"/>
			<point x="1035" y="-30" type="curve" smooth="yes"/>
			<point x="1088" y="-30"/>
			<point x="1156" y="-18"/>
			<point x="1233" y="10" type="curve"/>
			<point x="1218" y="38" type="line"/>
			<point x="1144" y="-14" type="line" smooth="yes"/>
			<point x="941" y="-154"/>
			<point x="897" y="-214"/>
			<point x="897" y="-311" type="curve" smooth="yes"/>
			<point x="897" y="-394"/>
			<point x="945" y="-465"/>
			<point x="1069" y="-465" type="curve" smooth="yes"/>
			<point x="1135" y="-465"/>
			<point x="1205" y="-446"/>
			<point x="1313" y="-387" type="curve"/>
			<point x="1313" y="-277" type="line"/>
			<point x="1260" y="-296"/>
			<point x="1232" y="-303"/>
			<point x="1194" y="-303" type="curve" smooth="yes"/>
			<point x="1137" y="-303"/>
			<point x="1114" y="-287"/>
			<point x="1114" y="-242" type="curve" smooth="yes"/>
			<point x="1114" y="-198"/>
			<point x="1124" y="-164"/>
			<point x="1242" y="-68" type="curve" smooth="yes"/>
			<point x="1375" y="40" type="line" smooth="yes"/>
			<point x="1454" y="104"/>
			<point x="1532" y="169"/>
		</contour>
	</outline>
</glyph>
<glyph name="uni018F" format="2">
	<unicode hex="018F"/>
	<advance width="1627"/>
	<outline>
		<contour>
			<point x="171" y="769" type="line"/>
			<point x="127" y="641"/>
			<point x="106" y="529"/>
			<point x="106" y="432" type="curve" smooth="yes"/>
			<point x="106" y="124"/>
			<point x="318" y="-30"/>
			<point x="668" y="-30" type="curve" smooth="yes"/>
			<point x="1242" y="-30"/>
			<point x="1612" y="386"/>
			<point x="1612" y="935" type="curve" smooth="yes"/>
			<point x="1612" y="1270"/>
			<point x="1404" y="1444"/>
			<point x="1000" y="1444" type="curve" smooth="yes"/>
			<point x="851" y="1444"/>
			<point x="671" y="1410"/>
			<point x="346" y="1239" type="curve"/>
			<point x="289" y="1053" type="line"/>
			<point x="446" y="1102"/>
			<point x="602" y="1117"/>
			<point x="808" y="1117" type="curve" smooth="yes"/>
			<point x="1048" y="1117"/>
			<point x="1144" y="1061"/>
			<point x="1144" y="888" type="curve" smooth="yes"/>
			<point x="1144" y="590"/>
			<point x="1029" y="240"/>
			<point x="721" y="240" type="curve" smooth="yes"/>
			<point x="572" y="240"/>
			<point x="506" y="307"/>
			<point x="506" y="421" type="curve" smooth="yes"/>
			<point x="506" y="487"/>
			<point x="525" y="570"/>
			<point x="563" y="671" type="curve"/>
			<point x="400" y="535" type="line"/>
			<point x="1122" y="535" type="line"/>
			<point x="1212" y="769" type="line"/>
		</contour>
	</outline>
</glyph>
<glyph name="Ohorn" format="2">
	<unicode hex="01A0"/>
	<advance width="1800"/>
	<outline>
		<contour>
			<point x="623" y="487" type="curve" smooth="yes"/>
			<point x="623" y="824"/>
			<point x="766" y="1174"/>
			<point x="1066" y="1174" type="curve" smooth="yes"/>
			<point x="1218" y="1174"/>
			<point x="1295" y="1100"/>
			<point x="1295" y="927" type="curve" smooth="yes"/>
			<point x="1295" y="590"/>
			<point x="1152" y="240"/>
			<point x="852" y="240" type="curve" smooth="yes"/>
			<point x="700" y="240"/>
			<point x="623" y="314"/>
		</contour>
		<contour>
			<point x="1773" y="874" type="curve" smooth="yes"/>
			<point x="1773" y="1054"/>
			<point x="1718" y="1214"/>
			<point x="1583" y="1311" type="curve"/>
			<point x="1583" y="1290" type="line"/>
			<point x="1827" y="1318"/>
			<point x="1924" y="1423"/>
			<point x="1924" y="1595" type="curve" smooth="yes"/>
			<point x="1924" y="1692"/>
			<point x="1865" y="1737"/>
			<point x="1773" y="1737" type="curve" smooth="yes"/>
			<point x="1685" y="1737"/>
			<point x="1624" y="1677"/>
			<point x="1624" y="1641" type="curve" smooth="yes"/>
			<point x="1624" y="1622"/>
			<point x="1660" y="1576"/>
			<point x="1660" y="1525" type="curve" smooth="yes"/>
			<point x="1660" y="1462"/>
			<point x="1617" y="1414"/>
			<point x="1488" y="1414" type="curve" smooth="yes"/>
			<point x="1356" y="1414"/>
			<point x="1259" y="1444"/>
			<point x="1079" y="1444" type="curve" smooth="yes"/>
			<point x="478" y="1444"/>
			<point x="145" y="1063"/>
			<point x="145" y="540" type="curve" smooth="yes"/>
			<point x="145" y="172"/>
			<point x="364" y="-30"/>
			<point x="839" y="-30" type="curve" smooth="yes"/>
			<point x="1440" y="-30"/>
			<point x="1773" y="351"/>
		</contour>
	</outline>
	<anchor name="UCtop" x="1106" y="1414"/>
	<anchor name="bottom" x="783" y="0"/>
</glyph>
<glyph name="ohorn" format="2">
	<unicode hex="01A1"/>
	<advance width="1374"/>
	<outline>
		<contour>
			<point x="604" y="229" type="curve" smooth="yes"/>
			<point x="534" y="229"/>
			<point x="504" y="261"/>
			<point x="504" y="360" type="curve" smooth="yes"/>
			<point x="504" y="530"/>
			<point x="588" y="815"/>
			<point x="746" y="815" type="curve" smooth="yes"/>
			<point x="816" y="815"/>
			<point x="846" y="783"/>
			<point x="846" y="684" type="curve" smooth="yes"/>
			<point x="846" y="514"/>
			<point x="762" y="229"/>
		</contour>
		<contour>
			<point x="1281" y="644" type="curve" smooth="yes"/>
			<point x="1281" y="775"/>
			<point x="1236" y="889"/>
			<point x="1151" y="957" type="curve"/>
			<point x="1151" y="938" type="line"/>
			<point x="1363" y="960"/>
			<point x="1452" y="1059"/>
			<point x="1452" y="1225" type="curve" smooth="yes"/>
			<point x="1452" y="1322"/>
			<point x="1393" y="1367"/>
			<point x="1301" y="1367" type="curve" smooth="yes"/>
			<point x="1213" y="1367"/>
			<point x="1152" y="1307"/>
			<point x="1152" y="1271" type="curve" smooth="yes"/>
			<point x="1152" y="1252"/>
			<point x="1188" y="1206"/>
			<point x="1188" y="1155" type="curve" smooth="yes"/>
			<point x="1188" y="1081"/>
			<point x="1148" y="1044"/>
			<point x="1079" y="1044" type="curve" smooth="yes"/>
			<point x="986" y="1044"/>
			<point x="890" y="1074"/>
			<point x="774" y="1074" type="curve" smooth="yes"/>
			<point x="298" y="1074"/>
			<point x="69" y="735"/>
			<point x="69" y="400" type="curve" smooth="yes"/>
			<point x="69" y="163"/>
			<point x="210" y="-30"/>
			<point x="576" y="-30" type="curve" smooth="yes"/>
			<point x="1052" y="-30"/>
			<point x="1281" y="309"/>
		</contour>
	</outline>
	<anchor name="bottom" x="535" y="0"/>
	<anchor name="top" x="795" y="1044"/>
</glyph>
<glyph name="Uhorn" format="2">
	<unicode hex="01AF"/>
	<advance width="1818"/>
	<outline>
		<contour>
			<point x="721" y="556" type="curve" smooth="yes"/>
			<point x="935" y="1245" type="line"/>
			<point x="1103" y="1306" type="line"/>
			<point x="1134" y="1414" type="line"/>
			<point x="302" y="1414" type="line"/>
			<point x="270" y="1306" type="line"/>
			<point x="424" y="1249" type="line"/>
			<point x="215" y="579" type="line" smooth="yes"/>
			<point x="94" y="193"/>
			<point x="304" y="-30"/>
			<point x="800" y="-30" type="curve" smooth="yes"/>
			<point x="1223" y="-30"/>
			<point x="1418" y="132"/>
			<point x="1540" y="530" type="curve" smooth="yes"/>
			<point x="1764" y="1259" type="line"/>
			<point x="2101" y="1280"/>
			<point x="2226" y="1423"/>
			<point x="2226" y="1595" type="curve" smooth="yes"/>
			<point x="2226" y="1692"/>
			<point x="2167" y="1737"/>
			<point x="2075" y="1737" type="curve" smooth="yes"/>
			<point x="1987" y="1737"/>
			<point x="1926" y="1677"/>
			<point x="1926" y="1641" type="curve" smooth="yes"/>
			<point x="1926" y="1622"/>
			<point x="1962" y="1576"/>
			<point x="1962" y="1525" type="curve" smooth="yes"/>
			<point x="1962" y="1453"/>
			<point x="1906" y="1414"/>
			<point x="1798" y="1414" type="curve" smooth="yes"/>
			<point x="1368" y="1414" type="line"/>
			<point x="1337" y="1306" type="line"/>
			<point x="1507" y="1247" type="line"/>
			<point x="1301" y="575" type="line" smooth="yes"/>
			<point x="1234" y="355"/>
			<point x="1142" y="296"/>
			<point x="960" y="296" type="curve" smooth="yes"/>
			<point x="747" y="296"/>
			<point x="664" y="374"/>
		</contour>
	</outline>
	<anchor name="UCtop" x="1206" y="1414"/>
	<anchor name="bottom" x="753" y="0"/>
</glyph>
<glyph name="uhorn" format="2">
	<unicode hex="01B0"/>
	<advance width="1695"/>
	<outline>
		<contour>
			<point x="912" y="169" type="line" smooth="yes"/>
			<point x="861" y="25"/>
			<point x="915" y="-30"/>
			<point x="1035" y="-30" type="curve" smooth="yes"/>
			<point x="1165" y="-30"/>
			<point x="1377" y="40"/>
			<point x="1611" y="238" type="curve"/>
			<point x="1548" y="336" type="line"/>
			<point x="1387" y="239"/>
			<point x="1284" y="211"/>
			<point x="1112" y="219" type="curve"/>
			<point x="1230" y="65" type="line"/>
			<point x="1549" y="1044" type="line"/>
			<point x="1091" y="1044" type="line"/>
			<point x="1033" y="871" type="line" smooth="yes"/>
			<point x="876" y="404"/>
			<point x="797" y="286"/>
			<point x="695" y="286" type="curve" smooth="yes"/>
			<point x="662" y="286"/>
			<point x="650" y="298"/>
			<point x="650" y="329" type="curve" smooth="yes"/>
			<point x="650" y="358"/>
			<point x="660" y="404"/>
			<point x="704" y="523" type="curve" smooth="yes"/>
			<point x="802" y="788" type="line" smooth="yes"/>
			<point x="870" y="971"/>
			<point x="836" y="1074"/>
			<point x="647" y="1074" type="curve" smooth="yes"/>
			<point x="453" y="1074"/>
			<point x="232" y="982"/>
			<point x="36" y="773" type="curve"/>
			<point x="106" y="687" type="line"/>
			<point x="219" y="782"/>
			<point x="308" y="824"/>
			<point x="488" y="829" type="curve"/>
			<point x="400" y="954" type="line"/>
			<point x="239" y="506" type="line" smooth="yes"/>
			<point x="184" y="354"/>
			<point x="164" y="269"/>
			<point x="164" y="205" type="curve" smooth="yes"/>
			<point x="164" y="72"/>
			<point x="248" y="-30"/>
			<point x="414" y="-30" type="curve" smooth="yes"/>
			<point x="649" y="-30"/>
			<point x="744" y="51"/>
			<point x="978" y="468" type="curve"/>
			<point x="1017" y="468" type="line"/>
		</contour>
		<contour>
			<point x="1869" y="1225" type="curve" smooth="yes"/>
			<point x="1869" y="1322"/>
			<point x="1810" y="1367"/>
			<point x="1718" y="1367" type="curve" smooth="yes"/>
			<point x="1630" y="1367"/>
			<point x="1569" y="1307"/>
			<point x="1569" y="1271" type="curve" smooth="yes"/>
			<point x="1569" y="1252"/>
			<point x="1605" y="1206"/>
			<point x="1605" y="1155" type="curve" smooth="yes"/>
			<point x="1605" y="1083"/>
			<point x="1549" y="1044"/>
			<point x="1441" y="1044" type="curve" smooth="yes"/>
			<point x="1302" y="1044" type="line"/>
			<point x="1259" y="919" type="line"/>
			<point x="1436" y="919" type="line" smooth="yes"/>
			<point x="1708" y="919"/>
			<point x="1869" y="1035"/>
		</contour>
	</outline>
	<anchor name="top" x="923" y="1044"/>
	<anchor name="bottom" x="693" y="0"/>
</glyph>
